<svg width="76" height="52" fill="none" xmlns="http://www.w3.org/2000/svg">
  <path d="M4.54 41.009s-5.115 7.894 7.062 8.852c12.177.958 15.444-.24 17.523-.48 2.078-.238 8.127-4.67 18.373.84 6.939 3.73 14.296-.598 17.71-3.235 3.416-2.636 5.495-5.51 3.861-5.989-1.633-.479-64.529.012-64.529.012z" fill="#F5F5FC"/>
  <path d="M4.33 41.244s-7.265-10.715-2.974-14.87c4.34-4.206-1.376-9.469.542-15.6 1.623-5.19 11.53-13.701 20.62-9.767 12.548 5.432 12.49 6.626 20.21 5.29 7.723-1.337 16.677-8.614 21.026.542 2.578 5.426 9.664 6.617 11.395 11.666 1.731 5.05-.877 11.37-2.307 12.75-5.07 4.904-3.34 10.198-3.34 10.198L4.33 41.243z" fill="#F8F8FF"/>
  <path d="M38.954 16.628a2.163 2.163 0 100-4.325 2.163 2.163 0 000 4.325z" fill="#fff"/>
  <path d="M41.305 16.327a1.598 1.598 0 100-3.196 1.598 1.598 0 000 3.196zM56.796 15.631a1.98 1.98 0 100-3.96 1.98 1.98 0 000 3.96z" fill="#fff"/>
  <path d="M54.583 15.322a1.462 1.462 0 100-2.925 1.462 1.462 0 000 2.925zM59.396 15.508a1.462 1.462 0 100-2.924 1.462 1.462 0 000 2.924zM8.863 16.767a1.98 1.98 0 100-3.96 1.98 1.98 0 000 3.96z" fill="#fff"/>
  <path d="M6.71 16.01a1.462 1.462 0 100-2.926 1.462 1.462 0 000 2.925z" fill="#fff"/>
</svg>
