<svg width="76" height="52" viewBox="0 0 76 52" fill="none" xmlns="http://www.w3.org/2000/svg">
<g id="layer1">
<g id="Layer 1">
<g id="g924">
<g id="bg">
<path id="path586" d="M4.54049 41.0086C4.54049 41.0086 -0.574663 48.9029 11.6023 49.8609C23.7793 50.8189 27.0457 49.621 29.1246 49.3819C31.2035 49.1428 37.2521 44.7114 47.4981 50.2203C54.4366 53.9515 61.7936 49.6225 65.2087 46.9861C68.6237 44.3497 70.7027 41.4764 69.0691 40.9974C67.4356 40.5184 4.54049 41.0086 4.54049 41.0086V41.0086Z" fill="#F5F5FC"/>
<path id="path588" d="M4.32975 41.244C4.32975 41.244 -2.93459 30.5287 1.35557 26.3731C5.69653 22.1681 -0.0201818 16.905 1.89809 10.7736C3.52119 5.58443 13.4287 -2.92712 22.5171 1.00658C35.0662 6.43858 35.0072 7.63348 42.7289 6.29659C50.4506 4.9597 59.4053 -2.31734 63.7544 6.83912C66.3318 12.2651 73.4176 13.4556 75.149 18.505C76.8805 23.5543 74.2725 29.8741 72.8422 31.2558C67.7711 36.1588 69.5025 41.4525 69.5025 41.4525L4.32975 41.244Z" fill="#F8F8FF"/>
<path id="circle590" d="M38.9536 16.6285C40.148 16.6285 41.1163 15.6603 41.1163 14.4659C41.1163 13.2715 40.148 12.3032 38.9536 12.3032C37.7592 12.3032 36.791 13.2715 36.791 14.4659C36.791 15.6603 37.7592 16.6285 38.9536 16.6285Z" fill="white"/>
<path id="circle592" d="M41.3053 16.3267C42.1877 16.3267 42.903 15.6114 42.903 14.729C42.903 13.8467 42.1877 13.1313 41.3053 13.1313C40.4229 13.1313 39.7076 13.8467 39.7076 14.729C39.7076 15.6114 40.4229 16.3267 41.3053 16.3267Z" fill="white"/>
<path id="circle594" d="M56.7957 15.631C57.889 15.631 58.7753 14.7447 58.7753 13.6514C58.7753 12.5582 57.889 11.6719 56.7957 11.6719C55.7025 11.6719 54.8162 12.5582 54.8162 13.6514C54.8162 14.7447 55.7025 15.631 56.7957 15.631Z" fill="white"/>
<path id="circle596" d="M54.583 15.3216C55.3907 15.3216 56.0455 14.6668 56.0455 13.8592C56.0455 13.0515 55.3907 12.3967 54.583 12.3967C53.7754 12.3967 53.1206 13.0515 53.1206 13.8592C53.1206 14.6668 53.7754 15.3216 54.583 15.3216Z" fill="white"/>
<path id="circle598" d="M59.3963 15.5084C60.204 15.5084 60.8587 14.8536 60.8587 14.0459C60.8587 13.2383 60.204 12.5835 59.3963 12.5835C58.5886 12.5835 57.9339 13.2383 57.9339 14.0459C57.9339 14.8536 58.5886 15.5084 59.3963 15.5084Z" fill="white"/>
<path id="circle600" d="M8.86276 16.7667C9.95604 16.7667 10.8423 15.8804 10.8423 14.7872C10.8423 13.6939 9.95604 12.8076 8.86276 12.8076C7.76949 12.8076 6.88321 13.6939 6.88321 14.7872C6.88321 15.8804 7.76949 16.7667 8.86276 16.7667Z" fill="white"/>
<path id="circle602" d="M6.70984 16.0091C7.51752 16.0091 8.17227 15.3543 8.17227 14.5467C8.17227 13.739 7.51752 13.0842 6.70984 13.0842C5.90216 13.0842 5.24741 13.739 5.24741 14.5467C5.24741 15.3543 5.90216 16.0091 6.70984 16.0091Z" fill="white"/>
</g>
<g id="build 1">
<g id="Layer 2">
<path id="polygon605" d="M9.47256 11.0105L9.54729 41.0378H33.3856L33.3109 11.0852L9.47256 11.0105Z" fill="#E9EDFA"/>
<path id="polygon607" d="M8.42636 8.24561L34.0582 8.32033L34.1329 11.0853H8.42636V8.24561Z" fill="#BAC6F2"/>
<path id="rect609" d="M34.0582 16.6152H8.42636V17.4372H34.0582V16.6152Z" fill="#BAC6F2"/>
<path id="rect611" d="M33.2362 17.3625H9.54729V18.1846H33.2362V17.3625Z" fill="#BAC6F2"/>
<path id="rect613" d="M33.1614 10.8611H9.47256V11.6831H33.1614V10.8611Z" fill="#BAC6F2"/>
<path id="rect615" d="M34.2076 40.9766H8.57582V41.7986H34.2076V40.9766Z" fill="#BAC6F2"/>
<path id="polygon617" d="M30.9943 15.6437L31.7416 14.9711V13.5513L30.8449 12.6545H11.8639L11.0419 13.5513V14.8217L11.7891 15.5689L30.9943 15.6437Z" fill="#BAC6F2"/>
</g>
<g id="details">
<path id="polygon620" d="M9.47256 20.0527H10.9671V21.0242H9.54729L9.47256 20.0527Z" fill="#B1C1F2"/>
<path id="polygon622" d="M9.47256 29.7673H10.3693V30.7388H9.54729L9.47256 29.7673Z" fill="#B1C1F2"/>
<path id="rect624" d="M19.9345 28.3477H17.5432V29.2444H19.9345V28.3477Z" fill="#B1C1F2"/>
<path id="rect626" d="M18.5147 29.842H16.1234V30.7388H18.5147V29.842Z" fill="#B1C1F2"/>
<path id="rect628" d="M17.3601 24.3362H14.9688V25.2329H17.3601V24.3362Z" fill="#B1C1F2"/>
<path id="rect630" d="M22.8489 29.9167H20.4576V30.8135H22.8489V29.9167Z" fill="#B1C1F2"/>
<path id="rect632" d="M18.6141 19.1724H16.2228V20.0691H18.6141V19.1724Z" fill="#B1C1F2"/>
<path id="rect634" d="M32.0405 29.3938H29.6492V30.2905H32.0405V29.3938Z" fill="#B1C1F2"/>
<path id="rect636" d="M32.4141 18.4087H30.0228V19.3054H32.4141V18.4087Z" fill="#B1C1F2"/>
</g>
<g id="door">
<path id="rect639" d="M31.7864 32.3821H27.447C27.3054 32.3821 27.1906 32.4968 27.1906 32.6384V40.9557C27.1906 41.0972 27.3054 41.212 27.447 41.212H31.7864C31.928 41.212 32.0428 41.0972 32.0428 40.9557V32.6384C32.0428 32.4968 31.928 32.3821 31.7864 32.3821Z" fill="#BAC6F2"/>
<g id="door-window">
<path id="rect641" d="M31.3313 33.3767H27.9118C27.7702 33.3767 27.6555 33.4915 27.6555 33.633V34.5357C27.6555 34.6773 27.7702 34.7921 27.9118 34.7921H31.3313C31.4729 34.7921 31.5877 34.6773 31.5877 34.5357V33.633C31.5877 33.4915 31.4729 33.3767 31.3313 33.3767Z" fill="white"/>
</g>
</g>
<g id="window">
<path id="path644" d="M10.8588 23.047H11.3467L16.7959 23.0417C16.7959 23.0417 17.0948 21.3977 15.8992 20.4263C14.7035 19.4548 13.4653 19.4548 12.5685 19.9032C11.6718 20.3515 10.8251 21.0241 10.8588 23.047Z" fill="#BAC6F2"/>
<path id="polyline646" d="M11.346 23.0471L11.3049 27.0309H16.376V22.9462L11.2645 22.864L11.346 23.0471Z" fill="#BAC6F2"/>
<path id="polygon648" d="M16.6756 27.0068L11.3049 27.0307L10.9716 27.0068V27.6809H16.704L16.6756 27.0068Z" fill="#BAC6F2"/>
<g id="top-left-window">
<path id="rect650" d="M13.7067 23.2698H11.9363V24.8996H13.7067V23.2698Z" fill="white"/>
<path id="rect652" d="M15.7587 23.251H14.0668V24.8808H15.7587V23.251Z" fill="white"/>
<path id="rect654" d="M15.7826 25.3022H14.0579V26.9321H15.7826V25.3022Z" fill="white"/>
<path id="rect656" d="M13.7231 25.3015H11.9528V26.9313H13.7231V25.3015Z" fill="white"/>
</g>
<path id="polyline658" d="M11.5739 20.619L11.3662 23.0582L12.3795 23.0253L12.5857 19.8994L11.9446 20.2753L11.6516 20.5368" fill="#B1C1F2"/>
<path id="polyline660" d="M16.1667 20.67L16.3573 23.0591L15.4291 23.0269L15.2476 19.9915L15.82 20.3643L16.0957 20.59" fill="#B1C1F2"/>
<path id="polyline662" d="M12.9101 20.5712L12.7718 23.035L13.6558 23.0499L13.8539 19.6184L13.4713 19.6289L13.0094 19.7156" fill="#B1C1F2"/>
<path id="polyline664" d="M14.9875 20.5615L15.1123 23.0252L14.3172 23.0402L14.149 19.6318L14.566 19.7193L14.9143 19.8306" fill="#B1C1F2"/>
</g>
<g id="window copy">
<path id="path667" d="M18.4295 23.0995H18.9175L24.3667 23.0942C24.3667 23.0942 24.6656 21.4502 23.4699 20.4787C22.2743 19.5073 21.036 19.5073 20.1393 19.9556C19.2425 20.404 18.3966 21.0788 18.4295 23.0995V23.0995Z" fill="#BAC6F2"/>
<path id="polyline669" d="M18.9175 23.0986L18.8764 27.0831H23.9467V22.9977L18.8353 22.9155L18.9175 23.0986Z" fill="#BAC6F2"/>
<path id="polygon671" d="M24.2471 27.0586L18.8764 27.0833L18.5431 27.0586V27.7334H24.2747L24.2471 27.0586Z" fill="#BAC6F2"/>
<g id="middle-window">
<path id="rect673" d="M21.2781 23.3213H19.5078V24.9511H21.2781V23.3213Z" fill="white"/>
<path id="rect675" d="M23.3294 23.3027H21.6376V24.9326H23.3294V23.3027Z" fill="white"/>
<path id="rect677" d="M23.3533 25.354H21.6286V26.9838H23.3533V25.354Z" fill="white"/>
<path id="rect679" d="M21.2946 25.3533H19.5243V26.9831H21.2946V25.3533Z" fill="white"/>
</g>
<path id="polyline681" d="M19.1446 20.6708L18.9369 23.1099L19.9502 23.0778L20.1565 19.9519L19.516 20.3278L19.2224 20.5893" fill="#B1C1F2"/>
<path id="polyline683" d="M23.7374 20.7215L23.928 23.1113L22.9999 23.0792L22.8183 20.043L23.3907 20.4159L23.6664 20.6415" fill="#B1C1F2"/>
<path id="polyline685" d="M20.4808 20.623L20.3425 23.0867L21.2266 23.1017L21.4246 19.6702L21.042 19.6806L20.5802 19.7681" fill="#B1C1F2"/>
<path id="polyline687" d="M22.559 20.6139L22.683 23.077L21.8887 23.0919L21.7198 19.6843L22.1375 19.771L22.485 19.8824" fill="#B1C1F2"/>
</g>
<g id="window copy 2">
<path id="path690" d="M25.8971 23.0995H26.3851L31.8343 23.0942C31.8343 23.0942 32.1332 21.4502 30.9375 20.4787C29.7419 19.5073 28.5036 19.5073 27.6069 19.9556C26.7101 20.404 25.8635 21.0788 25.8971 23.0995Z" fill="#BAC6F2"/>
<path id="polyline692" d="M26.3843 23.0986L26.3432 27.0831H31.4143V22.9977L26.3021 22.9155L26.3843 23.0986Z" fill="#BAC6F2"/>
<path id="polygon694" d="M31.7139 27.0586L26.3432 27.0833L26.0099 27.0586V27.7334H31.7423L31.7139 27.0586Z" fill="#BAC6F2"/>
<g id="right-window">
<path id="rect696" d="M28.745 23.3213H26.9747V24.9511H28.745V23.3213Z" fill="white"/>
<path id="rect698" d="M30.7963 23.3027H29.1044V24.9326H30.7963V23.3027Z" fill="white"/>
<path id="rect700" d="M30.8209 25.354H29.0962V26.9838H30.8209V25.354Z" fill="white"/>
<path id="rect702" d="M28.7614 25.3533H26.9911V26.9831H28.7614V25.3533Z" fill="white"/>
</g>
<path id="polyline704" d="M26.6122 20.6708L26.4045 23.1099L27.4178 23.0778L27.6233 19.9519L26.9829 20.3278L26.6892 20.5893" fill="#B1C1F2"/>
<path id="polyline706" d="M31.205 20.7215L31.3956 23.1113L30.4667 23.0792L30.2859 20.043L30.8583 20.4159L31.1341 20.6415" fill="#B1C1F2"/>
<path id="polyline708" d="M27.9484 20.623L27.8101 23.0867L28.6942 23.1017L28.8915 19.6702L28.5096 19.6806L28.0478 19.7681" fill="#B1C1F2"/>
<path id="polyline710" d="M30.0258 20.6139L30.1506 23.077L29.3555 23.0919L29.1874 19.6843L29.6044 19.771L29.9518 19.8824" fill="#B1C1F2"/>
</g>
<g id="window copy 3">
<path id="path713" d="M10.876 34.4424H12.168L26.5906 34.4372C26.5906 34.4372 27.7616 32.6198 24.5968 31.6274C21.4321 30.635 16.2272 30.9175 13.8561 31.3756C11.485 31.8337 10.7878 32.3792 10.876 34.4424V34.4424Z" fill="#BAC6F2"/>
<path id="polyline715" d="M11.065 34.4791L10.9387 40.9902H26.5487V34.3147L10.8124 34.1802L11.065 34.4791Z" fill="#BAC6F2"/>
<g id="window-light-2">
<path id="rect717" d="M25.5758 34.5671H11.822V37.8828H25.5758V34.5671Z" fill="white"/>
<path id="rect719" d="M20.6332 38.4172H16.6719V40.0471H20.6332V38.4172Z" fill="white"/>
<path id="rect721" d="M15.8775 38.4456H11.9162V40.0754H15.8775V38.4456Z" fill="white"/>
<path id="rect723" d="M25.4457 38.4456H21.4844V40.0754H25.4457V38.4456Z" fill="white"/>
</g>
<path id="polyline725" d="M12.3362 31.8904L12.0537 34.2451L13.3995 34.2145L13.6387 31.3613L12.8495 31.5504L12.4131 31.7297" fill="#B1C1F2"/>
<path id="polyline727" d="M14.5571 31.9143L14.3306 34.2227L15.681 34.2055L15.9268 31.0781L15.2677 31.1558L14.6722 31.2111" fill="#B1C1F2"/>
<path id="polyline729" d="M24.6118 31.8733L24.8337 34.228L23.7756 34.1974L23.588 31.3442L24.2082 31.5333L24.5512 31.7126" fill="#B1C1F2"/>
<path id="polyline731" d="M22.8557 31.8972L23.044 34.2056L21.9193 34.1884L21.7153 31.061L22.2638 31.1388L22.7593 31.1941" fill="#B1C1F2"/>
<path id="polyline733" d="M20.7909 31.8792L20.9792 34.1875L19.8546 34.1711L19.6453 30.9697L20.1781 30.9959L20.6855 31.022" fill="#B1C1F2"/>
<path id="polyline735" d="M18.3458 31.9652L18.5341 34.2736L17.4095 34.2571L17.2002 31.0565L17.7607 31.0371L18.2875 31.0259" fill="#B1C1F2"/>
</g>
</g>
<g id="build 2">
<path id="polygon739" d="M35.2366 26.6429L35.1656 41.602L60.444 41.67V26.5039L35.2366 26.6429Z" fill="#E9EDFA"/>
<path id="rect741" d="M60.6577 40.9055H35.0259V41.7275H60.6577V40.9055Z" fill="#BAC6F2"/>
<path id="rect743" d="M61.8728 26.6287H33.8392V27.6196H61.8728V26.6287Z" fill="#BAC6F2"/>
<path id="path745" d="M34.2823 26.79C34.2823 26.79 34.5813 22.3362 37.4957 22.251C39.8959 22.1808 52.1985 22.2413 56.4363 22.2802C58.9322 22.3034 61.0695 24.1484 61.3736 26.6256C61.3801 26.6799 61.3861 26.7347 61.3915 26.79H34.2823Z" fill="#BAC6F2"/>
<g id="details copy">
<path id="polygon747" d="M58.9023 33.3728H60.3969V34.3443H58.9771L58.9023 33.3728Z" fill="#B1C1F2"/>
<path id="polygon749" d="M59.5188 29.3149H60.4156V30.2864H59.5936L59.5188 29.3149Z" fill="#B1C1F2"/>
<path id="rect751" d="M38.7212 36.5674H36.3299V37.4641H38.7212V36.5674Z" fill="#B1C1F2"/>
<path id="rect753" d="M37.8753 32.6284H35.484V33.5252H37.8753V32.6284Z" fill="#B1C1F2"/>
<path id="rect755" d="M39.3609 29.4382H36.9696V30.335H39.3609V29.4382Z" fill="#B1C1F2"/>
<path id="rect757" d="M47.8642 28.6521H45.4729V29.5488H47.8642V28.6521Z" fill="#B1C1F2"/>
<path id="rect759" d="M59.9298 31.6345H57.5385V32.5313H59.9298V31.6345Z" fill="#B1C1F2"/>
<path id="rect761" d="M58.6363 38.5596H56.245V39.4563H58.6363V38.5596Z" fill="#B1C1F2"/>
<path id="rect763" d="M52.9592 27.9355H50.5679V28.8323H52.9592V27.9355Z" fill="#B1C1F2"/>
</g>
<g id="window copy 4">
<path id="path766" d="M39.8257 34.3465H41.1177L55.5403 34.3413C55.5403 34.3413 56.7113 32.5239 53.5465 31.5315C50.3818 30.5391 45.177 30.8216 42.8058 31.2796C40.4347 31.7377 39.7375 32.2832 39.8257 34.3465V34.3465Z" fill="#BAC6F2"/>
<path id="polyline768" d="M40.0147 34.3831L39.8885 40.8942H55.4984V34.2187L39.7622 34.0842L40.0147 34.3831Z" fill="#BAC6F2"/>
<g id="window-light-1">
<path id="rect770" d="M54.5255 34.4712H45.6216V37.7869H54.5255V34.4712Z" fill="white"/>
<path id="rect772" d="M49.583 38.3213H45.6216V39.9511H49.583V38.3213Z" fill="white"/>
<path id="rect774" d="M44.8273 34.5332H40.8659V39.9794H44.8273V34.5332Z" fill="white"/>
<path id="rect776" d="M54.3962 38.3496H50.4349V39.9794H54.3962V38.3496Z" fill="white"/>
</g>
<path id="polyline778" d="M41.2859 31.7945L41.0042 34.1491L42.35 34.1185L42.5884 31.2654L41.8 31.4544L41.3636 31.6338" fill="#B1C1F2"/>
<path id="polyline780" d="M43.5068 31.8184L43.2811 34.1267L44.6315 34.1096L44.8766 30.9822L44.2182 31.0599L43.6226 31.1152" fill="#B1C1F2"/>
<path id="polyline782" d="M53.5622 31.7774L53.7834 34.1321L52.726 34.1014L52.5385 31.2483L53.158 31.4374L53.501 31.6167" fill="#B1C1F2"/>
<path id="polyline784" d="M51.8061 31.8013L51.9937 34.1097L50.869 34.0925L50.665 30.9651L51.2135 31.0428L51.7097 31.0981" fill="#B1C1F2"/>
<path id="polyline786" d="M49.7406 31.7832L49.9289 34.0916L48.8043 34.0751L48.595 30.8745L49.1279 30.8999L49.6353 30.9261" fill="#B1C1F2"/>
<path id="polyline788" d="M47.2963 31.87L47.4838 34.1776L46.3592 34.1612L46.1499 30.9606L46.7104 30.9411L47.2372 30.9307" fill="#B1C1F2"/>
</g>
</g>
<g id="Layer 13">
<path id="rect792" d="M62.9474 40.7546H62.9466C62.7543 40.7546 62.5984 40.9105 62.5984 41.1029V41.8307C62.5984 42.0231 62.7543 42.179 62.9466 42.179H62.9474C63.1397 42.179 63.2956 42.0231 63.2956 41.8307V41.1029C63.2956 40.9105 63.1397 40.7546 62.9474 40.7546Z" fill="white"/>
<path id="rect794" d="M65.1892 40.7546H65.1885C64.9961 40.7546 64.8402 40.9105 64.8402 41.1029V41.8307C64.8402 42.0231 64.9961 42.179 65.1885 42.179H65.1892C65.3815 42.179 65.5375 42.0231 65.5375 41.8307V41.1029C65.5375 40.9105 65.3815 40.7546 65.1892 40.7546Z" fill="white"/>
<path id="path796" d="M62.3264 35.5767C62.3264 35.5767 61.7854 41.1925 61.8885 41.2695C61.9916 41.3465 66.1129 41.398 66.216 41.3211C66.3191 41.2441 65.9066 35.6283 65.8297 35.6021C65.7527 35.576 62.4549 35.4997 62.3264 35.5767V35.5767Z" fill="#BAC6F2"/>
<path id="rect798" d="M65.2752 36.9937H63.0087C62.9302 36.9937 62.8667 37.0571 62.8667 37.1353C62.8667 37.2135 62.9302 37.2769 63.0087 37.2769H65.2752C65.3536 37.2769 65.4171 37.2135 65.4171 37.1353C65.4171 37.0571 65.3536 36.9937 65.2752 36.9937Z" fill="white"/>
<path id="rect800" d="M65.533 37.8948H62.7C62.6216 37.8948 62.558 37.9582 62.558 38.0364C62.558 38.1146 62.6216 38.178 62.7 38.178H65.533C65.6114 38.178 65.675 38.1146 65.675 38.0364C65.675 37.9582 65.6114 37.8948 65.533 37.8948Z" fill="white"/>
</g>
</g>
</g>
</g>
</svg>
