<svg width="210" height="297" viewBox="0 0 210 297" fill="none" xmlns="http://www.w3.org/2000/svg">
<g id="man-opening-grid 1">
<g id="man-opening-generator">
<path id="Vector" d="M92.772 33.03C96.826 30.745 101.046 29.015 105.676 28.628C108.054 27.083 110.696 25.892 113.879 25.428C116.295 23.59 119.217 22.952 122.606 23.407L123.2 32.273L123.397 35.24L123.483 36.552C123.307 36.251 123.123 35.95 122.934 35.662C121.716 33.807 120.179 32.323 117.865 32.449C114.31 33.969 110.157 34.422 105.172 34.813C102.162 35.887 98.696 36.683 95.172 37.056C94.944 37.082 94.719 37.106 94.489 37.122C93.613 37.208 92.732 37.258 91.856 37.285L88.993 35.315C90.2297 34.515 91.4903 33.7527 92.773 33.029" fill="#21758A"/>
<path id="Vector_2" d="M94.49 37.122L94.104 37.056L95.02 36.799C95.146 36.763 95.271 36.732 95.397 36.696C99.617 35.523 103.707 34.314 105.001 32.49H105.116C109.259 32.49 113.892 31.828 117.865 30.413C118.189 31.193 118.562 31.913 118.963 32.514C118.692 32.4658 118.417 32.4417 118.141 32.442H118.136C118.047 32.442 117.956 32.444 117.865 32.449C114.31 33.969 110.157 34.422 105.172 34.813C102.162 35.887 98.696 36.683 95.172 37.056C94.944 37.082 94.719 37.106 94.489 37.122" fill="#1C6475"/>
<path id="Vector_3" d="M141.12 113.76C141.947 114.64 143.196 115.04 144.8 115.04C148.383 114.532 151.185 112.573 152.532 107.932C153.647 107.515 154.495 106.549 155.045 104.98L155.097 104.832C154.927 103.804 154.635 102.945 154.239 102.205C153.85 101.483 153.358 100.822 152.779 100.241L152.176 100.53L146.332 103.341C146.251 103.863 146.138 104.38 145.993 104.888C144.784 109.042 141.901 109.798 141.12 111.278C140.802 112.07 140.786 112.898 141.12 113.761" fill="black"/>
<path id="Vector_4" d="M128.083 52.606C129.285 55.426 131.595 57.521 134.673 59.113C133.419 68.772 133.989 77.145 137.583 85.416C141.228 91.585 144.173 98.91 145.381 104.184C145.494 104.451 145.711 104.694 145.993 104.888C147.463 105.952 150.86 106.107 152.834 104.524C153.566 103.945 154.065 103.122 154.239 102.205C154.353 101.629 154.37 101.038 154.289 100.457C153.359 92.006 150.625 84.553 144.868 81.391C146.239 72.651 147.206 64.305 146.754 57.314C147.365 54.22 147.576 51.061 147.327 47.822L147.318 47.694C147.211 46.3224 147.022 44.9584 146.754 43.609L128.906 45.835L127.559 46.005L127.451 46.452L126.875 46.992L126.504 47.706L128.083 52.606" fill="#21758A"/>
<path id="Vector_5" d="M119.238 31.54C119.41 35.928 120.788 40.097 123.368 43.889C124.297 45.2524 125.347 46.5298 126.504 47.706L126.629 47.862C126.739 48.019 126.865 48.167 126.997 48.316C129.023 50.623 132.143 51.946 136.477 52.172C141.114 52.524 144.807 51.211 147.325 47.823L147.317 47.698C147.145 46.306 146.95 44.938 146.731 43.608C146.611 42.8494 146.478 42.093 146.332 41.339C146.188 40.6104 146.026 39.8855 145.846 39.165C145.056 35.912 143.953 33.065 142.296 30.929C140.411 28.669 137.877 26.941 134.161 26.135C128.78 20.551 123.532 20.95 120.02 24.148C119.402 26.66 119.137 29.13 119.238 31.54" fill="#21758A"/>
<path id="Vector_6" d="M128.193 24.15C128.321 24.15 130.318 25.644 130.318 25.644C133.238 27.297 129.896 35.241 125.623 33.249L121.639 30.481L128.193 24.149" fill="#FFBB7D"/>
<path id="Vector_7" d="M123.37 43.892C121.34 40.91 120.058 37.7 119.516 34.334C119.446 33.906 119.389 33.474 119.345 33.041C119.939 33.786 120.58 34.258 121.217 34.291C121.33 34.295 121.441 34.298 121.548 34.298C122.978 34.298 123.908 33.802 125.092 32.881L125.623 33.249C126.093 33.469 126.553 33.569 126.993 33.569C127.266 33.569 127.53 33.531 127.787 33.46C126.798 37.54 124.851 42.76 123.371 43.892" fill="#1C6475"/>
<path id="Vector_8" d="M126.994 33.568C126.554 33.568 126.094 33.469 125.624 33.249L125.092 32.881C125.254 32.754 125.422 32.62 125.596 32.478C127.048 31.492 127.866 30.198 128.336 28.706C128.563 29.453 128.311 31.296 127.787 33.46C127.529 33.5314 127.262 33.5677 126.994 33.568" fill="#D99F6A"/>
<path id="Vector_9" d="M155.045 104.981L152.837 104.521C153.568 103.943 154.066 103.121 154.239 102.205C154.635 102.945 154.926 103.804 155.097 104.832L155.047 104.977L155.045 104.981" fill="black"/>
<path id="Vector_10" d="M152.837 104.522H152.832C152.66 103.185 152.44 101.854 152.174 100.532C150.571 92.522 147.254 85.852 140.872 81.557C143.085 73.314 144.33 65.32 141.757 58.304C138.135 55.167 133.896 52.932 129.007 51.641C128.563 51.522 128.117 51.411 127.665 51.308L126.504 47.706C126.58 47.8113 126.66 47.9144 126.742 48.015C126.82 48.115 126.905 48.213 126.994 48.312L126.997 48.316C129.023 50.623 132.143 51.946 136.477 52.172C136.96 52.209 137.433 52.228 137.895 52.228H137.904C141.866 52.227 145.053 50.863 147.306 47.848L147.325 47.823C147.569 50.9972 147.377 54.1898 146.755 57.312V57.314C146.975 60.727 146.857 64.464 146.52 68.411C146.35 70.3628 146.14 72.3108 145.89 74.254C145.585 76.6382 145.245 79.0178 144.869 81.392V81.393C145.409 81.689 145.922 82.023 146.409 82.391C150.071 85.165 152.292 89.915 153.496 95.489C153.84 97.085 154.099 98.749 154.286 100.454C154.321 100.723 154.338 100.978 154.338 101.222C154.338 101.573 154.302 101.9 154.238 102.205C154.065 103.121 153.568 103.943 152.837 104.522" fill="#1C6475"/>
<path id="Vector_11" d="M137.897 52.228H137.895C137.433 52.228 136.96 52.208 136.476 52.172C132.143 51.945 129.023 50.623 126.997 48.316L126.994 48.312C126.862 48.1706 126.74 48.0202 126.629 47.862C128.154 48.444 130.489 49.068 132.623 49.068C136.781 49.068 140.175 46.698 135.326 37.022C135.326 37.022 140.137 38 145.846 39.165C146.026 39.869 146.183 40.605 146.332 41.339C146.481 42.083 146.606 42.842 146.731 43.608V43.612C146.95 44.94 147.145 46.308 147.317 47.698L147.325 47.823L147.306 47.848C145.053 50.863 141.865 52.225 137.904 52.228H137.897" fill="#1C6475"/>
<path id="Vector_12" d="M129.009 22.837C128.909 26.761 128.746 30.339 125.596 32.478C124.057 33.734 123.046 34.381 121.217 34.29C119.96 34.226 118.686 32.45 117.793 30.239C117.12 28.618 116.638 26.761 116.51 25.169C116.483 24.995 116.474 24.812 116.465 24.641C116.282 21.091 119.423 18.386 123.255 17.384C126.833 17.421 128.872 19.105 129.009 22.837Z" fill="#FFBB7D"/>
<path id="Vector_13" d="M116.212 25.429C117.021 27.335 121.152 28.25 124.613 26.742L124.93 29.182L126.349 27.84L127.773 29.368L128.303 28.62C130.43 25.538 130.652 19.82 126.126 17.684C120.346 15.362 114.372 21.333 116.212 25.429" fill="black"/>
<path id="Vector_14" d="M126.849 29.177C127.197 28.89 127.524 28.564 127.715 28.163C127.908 27.762 127.95 27.273 127.734 26.883C127.517 26.494 127.008 26.251 126.579 26.403C126.282 26.507 126.069 26.774 125.962 27.063C125.854 27.35 125.834 27.66 125.815 27.966L125.764 28.799C125.752 28.99 125.748 29.205 125.882 29.347C126.005 29.477 126.213 29.504 126.388 29.453C126.562 29.403 126.71 29.291 126.849 29.177" fill="#FFBB7D"/>
<path id="Vector_15" d="M142.729 31.52C147.839 37.772 152.834 44.742 152.834 50.333C152.192 52.749 148.988 53.877 144.752 55.898C140.055 57.675 139.322 58.118 135.692 58.765C134.062 58.765 132.339 56.995 133.758 55.653C137.869 52.7 141.297 49.12 143.775 47.313C140.807 45.403 137.935 42.168 135.101 38.383C133.238 32.856 139.517 28.378 142.729 31.519" fill="#21758A"/>
<path id="Vector_16" d="M118.927 30.343C118.524 30.343 118.143 30.308 117.793 30.239C117.233 28.8904 116.836 27.4797 116.61 26.037C117.426 26.935 119.08 27.497 120.938 27.497C122.202 27.4983 123.452 27.2414 124.613 26.742L124.766 27.918C123.007 29.616 120.746 30.343 118.926 30.343" fill="#E5A870"/>
<path id="Vector_17" d="M124.766 27.918L124.613 26.742C123.413 27.264 122.134 27.496 120.938 27.496C119.079 27.496 117.426 26.935 116.61 26.037C116.566 25.7486 116.533 25.4587 116.51 25.168C116.483 24.995 116.474 24.812 116.465 24.641L124.667 26.588L124.986 27.699C124.913 27.774 124.84 27.847 124.766 27.919" fill="black"/>
<path id="Vector_18" d="M129.763 24.396C128.596 26.154 126.695 27.164 123.64 27L115.864 23.23C116.201 19.848 119.522 16.842 123.844 17.191C127.969 17.525 130.046 20.246 129.764 24.396" fill="#21758A"/>
<path id="Vector_19" d="M124.002 27.013C122.062 27.826 120.447 28.308 118.797 28.528C117.995 28.635 117.227 28.465 116.754 28.18C114.817 27.017 113.55 26.193 112.284 25.654C111.926 25.502 111.864 25.152 112.262 24.87C112.921 24.4 114.277 23.704 115.928 22.775C118.462 23.184 121.166 24.833 124.002 27.013" fill="#0E586B"/>
</g>
<g id="left-generator-door">
<path id="Vector_20" d="M78.05 17.11L83.6 30.347V107.315L78.05 94.078V17.11Z" fill="#B2B2B2"/>
</g>
<g id="generator-back">
<path id="Vector_21" d="M65.097 40.9L98.421 60.142V137.11L65.097 117.867V40.9Z" fill="#DADADA"/>
<g id="generator-back_2">
<path id="Vector_22" d="M98.421 60.142L117.147 49.355L117.146 126.325L98.42 137.11V60.142" fill="#878787"/>
<path id="Vector_23" d="M98.421 60.142L117.147 49.355L83.62 30.23L64.894 41.016L98.421 60.142" fill="#9D9D9C"/>
<path id="Vector_24" d="M111.049 120.441C111.36 120.261 111.612 120.408 111.612 120.767C111.612 121.127 111.36 121.563 111.049 121.743L104.719 125.397C104.407 125.577 104.155 125.431 104.155 125.073C104.155 124.713 104.407 124.276 104.719 124.096L111.049 120.441V120.441ZM111.049 118.298C111.36 118.118 111.612 118.265 111.612 118.624C111.612 118.984 111.36 119.421 111.049 119.601L104.719 123.255C104.407 123.435 104.155 123.289 104.155 122.93C104.155 122.57 104.407 122.132 104.719 121.953L111.049 118.298V118.298ZM111.049 116.157C111.359 115.977 111.612 116.123 111.612 116.482C111.612 116.842 111.36 117.278 111.049 117.458L104.719 121.112C104.407 121.292 104.155 121.146 104.155 120.787C104.155 120.427 104.407 119.991 104.719 119.811L111.049 116.157ZM111.049 114.014C111.359 113.834 111.612 113.98 111.612 114.339C111.612 114.699 111.359 115.137 111.049 115.315L104.719 118.969C104.407 119.149 104.155 119.004 104.155 118.645C104.155 118.285 104.407 117.848 104.719 117.668L111.049 114.014ZM111.049 111.872C111.359 111.691 111.612 111.837 111.612 112.196C111.612 112.556 111.359 112.993 111.049 113.173L104.719 116.828C104.407 117.008 104.155 116.861 104.155 116.502C104.155 116.142 104.407 115.705 104.719 115.526L111.049 111.872V111.872ZM111.049 109.729C111.359 109.549 111.612 109.695 111.612 110.054C111.612 110.414 111.359 110.85 111.049 111.03L104.719 114.684C104.407 114.864 104.155 114.718 104.155 114.359C104.155 113.999 104.407 113.563 104.719 113.383L111.049 109.729ZM111.049 107.586C111.359 107.406 111.612 107.552 111.612 107.911C111.612 108.271 111.359 108.709 111.049 108.888L104.719 112.543C104.407 112.723 104.155 112.575 104.155 112.217C104.155 111.857 104.407 111.42 104.719 111.24L111.049 107.586V107.586ZM111.049 73.925C111.36 73.745 111.612 73.891 111.612 74.25C111.612 74.61 111.36 75.046 111.049 75.226L104.719 78.88C104.407 79.06 104.155 78.915 104.155 78.555C104.155 78.196 104.407 77.759 104.719 77.579L111.049 73.925ZM111.049 71.781C111.36 71.601 111.612 71.748 111.612 72.107C111.612 72.467 111.36 72.904 111.049 73.084L104.719 76.737C104.407 76.918 104.155 76.772 104.155 76.413C104.155 76.053 104.407 75.616 104.719 75.436L111.049 71.781ZM111.049 69.64C111.359 69.46 111.612 69.605 111.612 69.965C111.612 70.324 111.36 70.761 111.049 70.941L104.719 74.595C104.407 74.775 104.155 74.629 104.155 74.27C104.155 73.91 104.407 73.474 104.719 73.294L111.049 69.64ZM111.049 67.497C111.359 67.317 111.612 67.463 111.612 67.822C111.612 68.182 111.359 68.618 111.049 68.798L104.719 72.452C104.407 72.632 104.155 72.488 104.155 72.127C104.155 71.768 104.407 71.331 104.719 71.151L111.049 67.497ZM111.049 65.355C111.359 65.175 111.612 65.32 111.612 65.679C111.612 66.039 111.359 66.477 111.049 66.656L104.719 70.311C104.407 70.491 104.155 70.344 104.155 69.985C104.155 69.625 104.407 69.188 104.719 69.008L111.049 65.355ZM111.049 63.212C111.359 63.032 111.612 63.178 111.612 63.537C111.612 63.897 111.359 64.333 111.049 64.513L104.719 68.168C104.407 68.348 104.155 68.201 104.155 67.842C104.155 67.482 104.407 67.046 104.719 66.866L111.049 63.212V63.212ZM111.049 61.069C111.359 60.889 111.612 61.035 111.612 61.394C111.612 61.754 111.359 62.19 111.049 62.37L104.719 66.024C104.407 66.204 104.155 66.06 104.155 65.7C104.155 65.34 104.407 64.903 104.719 64.723L111.049 61.069Z" fill="#3C3C3B"/>
</g>
</g>
<g id="right-generator-door">
<path id="Vector_25" d="M139.564 47.358L117.147 49.355L117.146 126.325L139.563 124.326L139.564 47.358" fill="#9D9D9C"/>
<path id="Vector_26" d="M123.524 78.655C123.083 78.6539 122.661 78.4782 122.35 78.1662C122.039 77.8543 121.864 77.4316 121.864 76.991V63.455C121.864 62.588 122.514 61.875 123.38 61.8L133.036 60.938L133.186 60.932C134.102 60.932 134.846 61.678 134.846 62.594V76.13C134.846 76.998 134.196 77.71 133.33 77.786L123.639 78.65L123.524 78.655" fill="white"/>
<path id="Vector_27" d="M123.449 62.583L133.106 61.721C133.227 61.7102 133.35 61.7247 133.465 61.7638C133.581 61.8029 133.687 61.8656 133.777 61.9479C133.866 62.0302 133.938 62.1304 133.987 62.242C134.036 62.3536 134.061 62.4741 134.061 62.596L134.06 76.13C134.06 76.349 133.978 76.56 133.83 76.7216C133.682 76.8831 133.479 76.9835 133.261 77.003L123.604 77.864C123.483 77.8748 123.361 77.8603 123.245 77.8214C123.13 77.7824 123.024 77.7199 122.934 77.6378C122.845 77.5557 122.773 77.4558 122.724 77.3444C122.675 77.2331 122.649 77.1127 122.649 76.991V63.455C122.649 63.002 122.995 62.623 123.449 62.583Z" fill="#F9B233"/>
<path id="Vector_28" d="M128.583 64.52L125.684 70.496L128.622 69.978L125.684 76.544L131.628 67.912L128.148 68.754L131.106 64.229L128.583 64.519" fill="#1D1D1B"/>
</g>
</g>
</svg>
