<svg width="210" height="297" viewBox="0 0 210 297" fill="none" xmlns="http://www.w3.org/2000/svg">
<g id="man-climbing-pole 1">
<g id="pole">
<path id="Vector" d="M31.69 108.907C31.7336 108.907 31.776 108.892 31.8105 108.865C31.845 108.838 31.8698 108.801 31.8811 108.759C31.8924 108.717 31.8897 108.672 31.8732 108.632C31.8568 108.591 31.8275 108.557 31.79 108.535L15 98.841V99.301L31.59 108.881L31.69 108.907V108.907ZM31.69 100.148C31.7341 100.148 31.777 100.134 31.8121 100.107C31.8472 100.081 31.8724 100.043 31.8838 100.001C31.8953 99.9581 31.8923 99.913 31.8753 99.8723C31.8583 99.8316 31.8283 99.7978 31.79 99.776L15 90.082V90.542L31.59 100.122L31.69 100.148V100.148ZM46.584 91.686C46.6281 91.6864 46.671 91.6721 46.7061 91.6454C46.7412 91.6188 46.7664 91.5812 46.7778 91.5387C46.7893 91.4961 46.7863 91.451 46.7693 91.4103C46.7523 91.3696 46.7223 91.3358 46.684 91.314L27.087 80H26.291L46.485 91.66C46.5155 91.6773 46.55 91.6862 46.585 91.686H46.584ZM45.288 111.72L44.926 110.816L44.777 109.703C44.936 109.237 45.375 108.665 45.73 108.321C45.782 108.27 45.8495 108.239 45.9217 108.231C45.9939 108.223 46.0666 108.24 46.128 108.279L46.158 108.299L46.47 109.331C46.377 110.313 45.944 111.301 45.288 111.72" fill="#3C3C3B"/>
<path id="Vector_2" d="M33.916 93.872L37.289 95.82L40.662 93.872L37.289 91.925L33.916 93.872Z" fill="#706F6F"/>
<path id="Vector_3" d="M40.662 93.872V178.052L37.289 179.999V95.819L40.662 93.872" fill="#878787"/>
<path id="Vector_4" d="M33.916 178.052V93.872L37.289 95.82V180L33.916 178.052" fill="#B2B2B2"/>
<path id="Vector_5" d="M33.917 98.089L37.121 99.939V100.864L33.916 99.014V98.089H33.917ZM33.917 106.894L37.121 108.744V109.669L33.916 107.819V106.894" fill="#575756"/>
<path id="Vector_6" d="M37.289 111.655V110.559L40.662 108.611V109.706L37.289 111.656" fill="#676767"/>
<path id="Vector_7" d="M49.058 103.764L31.616 113.834V111.812L49.058 101.742V103.764Z" fill="#878787"/>
<path id="Vector_8" d="M47.307 100.73L29.865 110.8L31.616 111.812L49.058 101.742L47.307 100.73" fill="#706F6F"/>
<path id="Vector_9" d="M29.865 101.995L31.616 103.006V105.029L29.865 104.017V101.995" fill="#B2B2B2"/>
<path id="Vector_10" d="M49.058 94.958L31.616 105.028V103.006L49.058 92.936V94.958" fill="#878787"/>
<path id="Vector_11" d="M47.307 91.924L29.865 101.996L31.616 103.007L49.058 92.937L47.307 91.926" fill="#706F6F"/>
<path id="Vector_12" d="M48.342 92.998L48.294 92.509C48.251 92.028 48.001 91.871 47.809 91.693L47.757 91.641C47.756 91.584 47.764 91.477 47.754 91.441C47.674 91.481 46.301 91.555 46.257 91.432L46.256 91.646L46.211 91.69C46.018 91.873 45.764 92.03 45.724 92.512L45.678 93.005C45.627 93.639 46.339 93.985 46.986 93.993C47.054 93.993 47.134 93.99 47.219 93.981C47.799 93.923 48.385 93.581 48.342 92.998" fill="#DADADA"/>
<path id="Vector_13" d="M47.004 91.287C46.8427 91.2839 46.6831 91.3203 46.539 91.393C46.449 91.443 46.394 91.505 46.393 91.556C46.393 91.604 46.44 91.661 46.521 91.71C46.758 91.852 47.217 91.857 47.464 91.718C47.554 91.668 47.61 91.606 47.611 91.555C47.611 91.508 47.564 91.45 47.482 91.401C47.3353 91.3221 47.1705 91.2828 47.004 91.287V91.287ZM46.999 92.223C46.742 92.223 46.499 92.162 46.316 92.052C46.109 91.927 45.992 91.744 45.995 91.55C45.998 91.352 46.125 91.168 46.345 91.045C46.717 90.838 47.33 90.845 47.688 91.06C47.895 91.185 48.012 91.368 48.009 91.562C48.006 91.76 47.879 91.944 47.659 92.066C47.4556 92.1728 47.2287 92.2268 46.999 92.223" fill="#3C3C3B"/>
<path id="Vector_14" d="M48.295 90.709C48.295 90.552 48.301 90.468 48.259 90.336C48.155 90.013 47.809 89.798 47.476 89.716C47.3372 89.6778 47.194 89.6583 47.05 89.658H46.998C46.932 89.658 46.871 89.661 46.814 89.666C46.287 89.719 45.842 89.984 45.736 90.374L45.731 90.397L45.724 90.431C45.702 90.554 45.69 90.899 45.743 91.069C45.759 91.119 45.781 91.169 45.813 91.219C46.28 91.923 47.751 91.939 48.197 91.21L48.22 91.167C48.2692 91.0732 48.295 90.9689 48.295 90.863V90.709" fill="#EDEDED"/>
<path id="Vector_15" d="M46.33 90.638C45.973 90.423 45.986 90.082 46.357 89.875C46.728 89.668 47.318 89.674 47.674 89.888C48.03 90.102 48.018 90.444 47.647 90.651C47.276 90.858 46.686 90.852 46.33 90.638Z" fill="#DADADA"/>
<path id="Vector_16" d="M46.686 90.439C46.519 90.339 46.525 90.178 46.699 90.081C46.7953 90.0329 46.9016 90.0084 47.0092 90.0095C47.1168 90.0105 47.2227 90.0371 47.318 90.087C47.485 90.187 47.479 90.347 47.305 90.445C47.2087 90.4929 47.1024 90.5173 46.9948 90.5163C46.8872 90.5152 46.7814 90.4887 46.686 90.439" fill="#3C3C3B"/>
<path id="Vector_17" d="M48.342 101.804L48.294 101.314C48.251 100.833 48.001 100.676 47.809 100.498L47.757 100.447C47.756 100.389 47.764 100.283 47.754 100.245C47.674 100.286 46.301 100.361 46.257 100.238L46.256 100.452L46.211 100.496C46.018 100.678 45.764 100.835 45.724 101.317L45.678 101.811C45.627 102.444 46.339 102.791 46.986 102.798C47.054 102.798 47.134 102.795 47.219 102.786C47.799 102.729 48.385 102.387 48.342 101.804" fill="#DADADA"/>
<path id="Vector_18" d="M47.004 100.092C46.8426 100.089 46.6829 100.126 46.539 100.199C46.449 100.249 46.394 100.311 46.393 100.362C46.393 100.409 46.44 100.467 46.521 100.516C46.758 100.658 47.217 100.662 47.464 100.524C47.554 100.474 47.61 100.412 47.611 100.361C47.611 100.313 47.564 100.256 47.482 100.207C47.3354 100.128 47.1706 100.088 47.004 100.092V100.092ZM46.999 101.028C46.742 101.028 46.499 100.968 46.316 100.857C46.109 100.732 45.992 100.549 45.995 100.355C45.998 100.157 46.125 99.973 46.345 99.851C46.717 99.644 47.33 99.651 47.688 99.865C47.895 99.99 48.012 100.173 48.009 100.367C48.006 100.565 47.879 100.749 47.659 100.872C47.477 100.973 47.243 101.028 46.999 101.028" fill="#3C3C3B"/>
<path id="Vector_19" d="M48.295 99.514C48.295 99.358 48.301 99.273 48.259 99.142C48.155 98.818 47.809 98.604 47.476 98.521C47.337 98.484 47.1939 98.4649 47.05 98.464H46.998C46.932 98.464 46.871 98.467 46.814 98.472C46.287 98.525 45.842 98.789 45.736 99.18L45.731 99.202L45.724 99.236C45.702 99.36 45.69 99.704 45.743 99.874C45.759 99.924 45.781 99.974 45.813 100.024C46.28 100.729 47.751 100.744 48.197 100.015L48.22 99.973C48.2693 99.8789 48.295 99.7742 48.295 99.668V99.515" fill="#EDEDED"/>
<path id="Vector_20" d="M46.33 99.444C45.973 99.229 45.986 98.887 46.357 98.68C46.728 98.473 47.318 98.479 47.674 98.694C48.03 98.908 48.018 99.25 47.647 99.456C47.276 99.663 46.686 99.657 46.33 99.443" fill="#DADADA"/>
<path id="Vector_21" d="M46.686 99.244C46.519 99.144 46.525 98.984 46.699 98.886C46.7953 98.838 46.9016 98.8134 47.0092 98.8145C47.1168 98.8155 47.2227 98.8421 47.318 98.892C47.485 98.993 47.479 99.154 47.305 99.251C47.2086 99.2988 47.1023 99.3231 46.9947 99.3219C46.8871 99.3207 46.7813 99.294 46.686 99.244" fill="#3C3C3B"/>
<path id="Vector_22" d="M33.455 101.429C33.4391 101.266 33.4231 101.102 33.407 100.939C33.364 100.459 33.114 100.301 32.922 100.124L32.87 100.072C32.869 100.015 32.877 99.908 32.867 99.871C32.787 99.911 31.415 99.986 31.37 99.863L31.369 100.077L31.324 100.121C31.131 100.304 30.877 100.46 30.837 100.943L30.791 101.436C30.74 102.07 31.452 102.416 32.1 102.424C32.168 102.424 32.247 102.421 32.332 102.412C32.912 102.354 33.498 102.012 33.455 101.429" fill="#DADADA"/>
<path id="Vector_23" d="M32.117 99.718C31.956 99.7151 31.7967 99.7515 31.653 99.824C31.563 99.874 31.507 99.936 31.506 99.987C31.506 100.035 31.553 100.092 31.635 100.141C31.871 100.283 32.33 100.288 32.578 100.149C32.667 100.099 32.723 100.037 32.724 99.986C32.724 99.939 32.677 99.881 32.596 99.832C32.4489 99.7531 32.2839 99.7138 32.117 99.718V99.718ZM32.112 100.654C31.856 100.654 31.612 100.593 31.429 100.483C31.222 100.358 31.105 100.175 31.108 99.981C31.111 99.782 31.239 99.599 31.458 99.476C31.83 99.269 32.443 99.276 32.801 99.491C33.008 99.616 33.126 99.799 33.122 99.993C33.119 100.191 32.992 100.375 32.772 100.497C32.59 100.598 32.356 100.654 32.112 100.654Z" fill="#3C3C3B"/>
<path id="Vector_24" d="M33.408 99.14C33.408 98.983 33.414 98.898 33.372 98.767C33.268 98.444 32.922 98.229 32.59 98.147C32.4509 98.1088 32.3073 98.0893 32.163 98.089H32.111C32.045 98.089 31.984 98.092 31.927 98.097C31.4 98.15 30.955 98.414 30.85 98.805L30.844 98.828L30.837 98.862C30.815 98.985 30.804 99.33 30.857 99.5C30.872 99.55 30.894 99.6 30.927 99.65C31.393 100.354 32.864 100.37 33.31 99.641L33.334 99.598C33.3831 99.5042 33.4089 99.3999 33.409 99.294V99.14" fill="#EDEDED"/>
<path id="Vector_25" d="M31.442 99.069C31.087 98.854 31.099 98.513 31.47 98.306C31.841 98.098 32.431 98.105 32.787 98.319C33.144 98.533 33.131 98.875 32.76 99.082C32.389 99.289 31.799 99.283 31.443 99.069" fill="#DADADA"/>
<path id="Vector_26" d="M31.799 98.87C31.632 98.769 31.638 98.609 31.812 98.512C31.9083 98.4639 32.0146 98.4394 32.1222 98.4405C32.2298 98.4415 32.3357 98.4681 32.431 98.518C32.598 98.618 32.592 98.778 32.418 98.876C32.3217 98.9239 32.2154 98.9483 32.1078 98.9473C32.0002 98.9462 31.8944 98.9197 31.799 98.87" fill="#3C3C3B"/>
<path id="Vector_27" d="M33.455 110.234L33.407 109.745C33.364 109.264 33.114 109.107 32.922 108.929L32.87 108.877C32.869 108.82 32.877 108.713 32.867 108.677C32.787 108.717 31.415 108.792 31.37 108.668L31.369 108.883L31.324 108.927C31.131 109.109 30.877 109.266 30.837 109.748L30.791 110.242C30.74 110.875 31.452 111.222 32.1 111.229C32.168 111.229 32.247 111.226 32.332 111.217C32.912 111.159 33.498 110.818 33.455 110.235" fill="#DADADA"/>
<path id="Vector_28" d="M32.118 108.524C31.9567 108.52 31.7971 108.557 31.653 108.629C31.563 108.679 31.507 108.742 31.506 108.793C31.506 108.84 31.553 108.898 31.635 108.946C31.871 109.089 32.33 109.093 32.578 108.955C32.667 108.905 32.723 108.843 32.724 108.792C32.724 108.744 32.677 108.686 32.596 108.638C32.4494 108.559 32.2846 108.519 32.118 108.523V108.524ZM32.112 109.459C31.856 109.459 31.612 109.399 31.429 109.288C31.222 109.163 31.105 108.98 31.108 108.786C31.111 108.588 31.239 108.404 31.458 108.281C31.83 108.074 32.443 108.081 32.801 108.296C33.008 108.421 33.126 108.604 33.122 108.799C33.119 108.996 32.992 109.18 32.772 109.303C32.59 109.403 32.356 109.459 32.112 109.459" fill="#3C3C3B"/>
<path id="Vector_29" d="M33.408 107.945C33.408 107.789 33.414 107.704 33.372 107.572C33.268 107.249 32.922 107.034 32.59 106.952C32.4507 106.915 32.3072 106.896 32.163 106.895H32.111C32.045 106.895 31.984 106.897 31.927 106.903C31.4 106.956 30.955 107.22 30.85 107.611L30.844 107.633L30.837 107.667C30.815 107.791 30.804 108.135 30.857 108.305C30.872 108.355 30.894 108.405 30.927 108.455C31.393 109.16 32.864 109.175 33.31 108.446L33.334 108.404C33.3832 108.31 33.4089 108.205 33.409 108.099V107.945" fill="#EDEDED"/>
<path id="Vector_30" d="M31.442 107.874C31.087 107.66 31.099 107.318 31.47 107.111C31.841 106.904 32.431 106.91 32.787 107.124C33.144 107.339 33.131 107.681 32.76 107.887C32.389 108.094 31.799 108.088 31.443 107.874" fill="#DADADA"/>
<path id="Vector_31" d="M31.799 107.675C31.632 107.575 31.638 107.415 31.812 107.317C31.9083 107.269 32.0146 107.245 32.1222 107.246C32.2298 107.247 32.3356 107.273 32.431 107.323C32.598 107.423 32.592 107.584 32.418 107.682C32.3216 107.73 32.2153 107.754 32.1077 107.753C32.0001 107.752 31.8943 107.725 31.799 107.675V107.675ZM43.508 120.838L43.267 120.521C44.029 119.941 44.082 118.835 44.069 118.387C44.058 117.969 43.993 117.542 43.932 117.128C43.8603 116.704 43.8133 116.277 43.791 115.848C43.741 114.321 44.347 112.905 44.989 111.405C45.6 109.979 46.232 108.505 46.268 106.903C46.282 106.278 46.191 105.64 46.103 105.023C46.045 104.62 45.986 104.204 45.955 103.79C45.853 102.443 46.117 101.391 46.739 100.665L47.042 100.925C46.49 101.568 46.258 102.521 46.352 103.76C46.382 104.161 46.44 104.57 46.497 104.966C46.587 105.6 46.681 106.254 46.666 106.912C46.628 108.59 45.981 110.101 45.356 111.562C44.731 113.019 44.142 114.396 44.189 115.834C44.202 116.244 44.265 116.664 44.325 117.069C44.389 117.494 44.455 117.934 44.467 118.376C44.497 119.453 44.148 120.351 43.508 120.838" fill="#3C3C3B"/>
<path id="Vector_32" d="M71.2345 124C71.1993 124 71.1648 123.991 71.1345 123.973L49.0035 111.195C48.9782 111.183 48.9556 111.166 48.9372 111.146C48.9187 111.125 48.9048 111.1 48.8964 111.074C48.8879 111.047 48.8851 111.019 48.8881 110.992C48.8911 110.964 48.8998 110.937 48.9137 110.913C48.9276 110.889 48.9464 110.868 48.9688 110.852C48.9913 110.835 49.0169 110.824 49.0441 110.818C49.0713 110.812 49.0994 110.811 49.1267 110.817C49.154 110.823 49.1798 110.834 49.2025 110.85L71.3335 123.628C71.371 123.65 71.4003 123.684 71.4167 123.724C71.4332 123.765 71.4359 123.81 71.4246 123.852C71.4133 123.894 71.3885 123.931 71.354 123.958C71.3194 123.985 71.2771 123.999 71.2335 124H71.2345ZM71.2345 115.241C71.1994 115.241 71.1649 115.231 71.1345 115.214L49.0035 102.436C48.9782 102.424 48.9556 102.407 48.9372 102.387C48.9187 102.366 48.9048 102.341 48.8964 102.315C48.8879 102.288 48.8851 102.26 48.8881 102.233C48.8911 102.205 48.8998 102.178 48.9137 102.154C48.9276 102.13 48.9464 102.109 48.9688 102.093C48.9913 102.076 49.0169 102.065 49.0441 102.059C49.0713 102.053 49.0994 102.052 49.1267 102.058C49.154 102.064 49.1798 102.075 49.2025 102.091L71.3335 114.869C71.371 114.891 71.4003 114.925 71.4167 114.965C71.4332 115.006 71.4359 115.051 71.4246 115.093C71.4133 115.135 71.3885 115.172 71.354 115.199C71.3194 115.226 71.2771 115.24 71.2335 115.241H71.2345ZM56.3395 132.461C56.3048 132.461 56.2706 132.452 56.2405 132.435L34.1085 119.656C34.067 119.627 34.0379 119.584 34.0269 119.535C34.0158 119.486 34.0237 119.434 34.049 119.391C34.0742 119.347 34.115 119.315 34.1631 119.3C34.2112 119.285 34.2631 119.289 34.3085 119.311L56.4395 132.089C56.4773 132.111 56.5068 132.145 56.5234 132.185C56.5401 132.226 56.5429 132.27 56.5316 132.313C56.5202 132.355 56.4952 132.392 56.4605 132.419C56.4258 132.445 56.3832 132.46 56.3395 132.46V132.461ZM56.3395 123.703C56.3047 123.703 56.2706 123.693 56.2405 123.676L34.1085 110.898C34.067 110.869 34.0379 110.826 34.0269 110.777C34.0158 110.728 34.0237 110.676 34.049 110.633C34.0742 110.589 34.115 110.557 34.1631 110.542C34.2112 110.527 34.2631 110.531 34.3085 110.553L56.4395 123.331C56.4778 123.353 56.5078 123.386 56.5248 123.427C56.5418 123.468 56.5448 123.513 56.5333 123.555C56.5219 123.598 56.4967 123.636 56.4616 123.662C56.4265 123.689 56.3836 123.703 56.3395 123.703" fill="#3C3C3B"/>
</g>
<g id="man">
<g id="man_2">
<path id="Vector_33" d="M45.9193 145.256C45.7823 145.256 45.6272 145.24 45.4492 145.201C45.4189 145.194 45.3902 145.181 45.3647 145.164C45.3392 145.146 45.3175 145.123 45.3007 145.097C45.2839 145.071 45.2725 145.042 45.267 145.011C45.2615 144.981 45.2621 144.949 45.2687 144.919C45.2754 144.889 45.2879 144.86 45.3057 144.835C45.3234 144.809 45.346 144.787 45.3721 144.771C45.3983 144.754 45.4274 144.742 45.458 144.737C45.4886 144.731 45.5199 144.732 45.5503 144.739C45.9863 144.834 46.3053 144.771 46.4053 144.571C46.5243 144.331 46.3653 143.826 45.7353 143.278L42.1793 141.578L38.6863 139.782C38.6304 139.753 38.5883 139.703 38.569 139.644C38.5498 139.584 38.5551 139.519 38.5838 139.463C38.6124 139.407 38.662 139.365 38.7218 139.346C38.7815 139.327 38.8464 139.332 38.9023 139.361L42.3893 141.154L45.9972 142.879L46.0213 142.899C46.7743 143.546 47.0843 144.268 46.8283 144.782C46.7483 144.94 46.5163 145.256 45.9183 145.256" fill="#3C3C3B"/>
<g id="man_3">
<path id="Vector_34" d="M48.7833 126.47C47.8128 126.44 46.852 126.267 45.9323 125.956L38.7473 123.208V124.233L45.9323 127.03C46.9393 127.426 47.9023 127.684 48.7823 127.816V126.47" fill="#1D1D1B"/>
<path id="Vector_35" d="M40.8562 144.666C40.8385 144.64 40.8158 144.618 40.7896 144.601C40.7633 144.585 40.734 144.573 40.7033 144.568C40.6726 144.562 40.6412 144.563 40.6108 144.57C40.5804 144.577 40.5517 144.59 40.5262 144.608C40.1152 144.896 39.7442 144.985 39.3612 144.888C38.892 144.707 38.4148 144.548 37.9312 144.411C36.9762 144.125 36.0732 143.854 35.6872 143.313L35.6552 143.269L33.7682 142.226C33.6799 142.178 33.6059 142.107 33.5539 142.021C33.5018 141.935 33.4737 141.836 33.4722 141.736C33.4699 141.635 33.4942 141.536 33.5427 141.448C33.5912 141.36 33.6621 141.287 33.7482 141.236L34.3482 140.864V140.322C34.3052 140.355 34.2622 140.372 34.2252 140.394L33.5022 140.832C33.1802 141.027 32.9922 141.37 33.0002 141.747C33.0072 142.124 33.2092 142.458 33.5402 142.64L35.3352 143.632C35.8252 144.274 36.7832 144.561 37.7952 144.864C38.2612 145.004 38.7432 145.148 39.1982 145.331L39.2262 145.341C39.3712 145.379 39.5152 145.398 39.6582 145.398C40.0362 145.398 40.4122 145.265 40.7982 144.995C40.8238 144.977 40.8456 144.954 40.8624 144.928C40.8792 144.902 40.8906 144.872 40.896 144.842C40.9014 144.811 40.9006 144.78 40.8938 144.749C40.887 144.719 40.8742 144.69 40.8562 144.665" fill="#3C3C3B"/>
<path id="Vector_36" d="M44.6852 141.522C44.0352 141.119 43.3212 140.717 42.7382 140.714C41.7682 140.714 41.5282 141.332 41.5322 141.778C41.8282 142.853 42.8972 143.447 44.0942 143.846C44.5192 144.45 44.9202 144.825 45.5712 144.989C46.5672 145.039 46.7632 144.522 46.7582 143.787L46.8712 142.566L46.4772 141.522L44.9212 141.029L44.6852 141.522V141.522ZM37.9672 142.192C37.9672 142.192 37.1492 141.857 36.4502 141.916C35.6152 141.986 35.2582 142.494 35.3272 143.058C35.5242 143.827 36.2972 144.213 37.1982 144.516C38.2182 144.662 37.8862 144.568 38.5782 144.89C39.4482 145.273 40.2912 145.12 40.7402 144.74C40.8332 144.152 40.7322 143.265 40.3702 142.783L39.9172 141.679L37.9472 141.522L37.9672 142.192" fill="black"/>
<path id="Vector_37" d="M51.2152 120.63C51.6021 119.742 51.722 118.762 51.5602 117.808C50.8902 116.204 50.0332 114.78 48.9552 113.567L47.0112 107.952C46.6952 108.193 46.1422 108.645 45.8162 108.551C45.8082 110.577 46.2912 112.343 46.7432 114.446L51.2152 120.63Z" fill="#21758A"/>
<path id="Vector_38" d="M44.4383 131.622C44.6923 133.494 44.6013 135.528 45.0393 136.376C44.8933 138.466 44.8293 140.275 44.4393 141.837C44.2913 142.834 46.3793 143.964 46.8913 142.871C47.6403 140.379 48.5553 138.099 47.8663 135.818L47.9363 134.705C48.5503 132.97 48.9623 131.145 49.0843 129.624L44.4383 131.622Z" fill="#0E586B"/>
<path id="Vector_39" d="M51.2053 120.757C50.9357 122.646 50.2368 124.449 49.1623 126.027C48.9623 126.327 48.7943 126.762 48.9153 127.13C47.9363 128.853 46.2493 129.025 44.4113 128.904C43.8813 128.869 43.3413 128.81 42.7993 128.756C42.9743 126.517 42.8623 124.777 43.1773 123.055C43.2596 122.596 43.3749 122.144 43.5223 121.703C44.1675 121.097 44.877 120.563 45.6383 120.112C46.6753 119.499 47.7863 119.059 49.0473 118.693C49.4113 118.588 49.7893 118.489 50.1813 118.393C51.0293 118.913 51.3003 119.738 51.2053 120.757" fill="#21758A"/>
<path id="Vector_40" d="M47.1873 131.317C46.3253 132.133 45.1233 132.662 43.5613 132.893L39.3562 134.459C40.3912 136.091 40.4492 140.517 40.3702 142.783C39.6512 143.531 37.9472 143.482 37.7602 142.438C37.3762 141.049 36.9332 138.596 36.4702 134.823C36.2722 134.08 36.3383 133.443 36.6383 132.899C36.7403 132.716 36.8683 132.543 37.0213 132.381C39.0203 130.255 40.6883 129.134 42.7993 128.756L44.3022 128.356L48.9153 127.13L49.1173 128.936C49.1643 130.271 48.6533 131.17 47.1873 131.317" fill="#21758A"/>
<path id="Vector_41" d="M42.7993 128.756H45.2563V123.055H42.7993V128.756Z" fill="#12556A"/>
<path id="Vector_42" d="M36.6393 132.898C36.7393 132.716 36.8673 132.543 37.0213 132.381C39.0203 130.255 40.6883 129.134 42.7993 128.756L44.3022 128.356C44.3332 128.537 44.3703 128.719 44.4123 128.904L44.4323 128.997C41.6543 129.615 39.0823 131.007 36.6393 132.897V132.898ZM47.4613 121.154C46.5103 121.154 45.8973 120.474 45.6383 120.112C46.6753 119.499 47.7863 119.059 49.0473 118.693C49.4353 119.167 49.9493 120.107 48.7033 120.797C48.2403 121.054 47.8263 121.154 47.4613 121.154Z" fill="#12556A"/>
<path id="Vector_43" d="M46.1232 115.133C45.7532 115.701 45.5962 116.553 45.5762 117.586C45.6822 117.906 45.8152 118.159 45.9762 118.338C46.0579 118.431 46.1156 118.543 46.1443 118.664C46.1731 118.784 46.172 118.91 46.1412 119.031L46.0342 119.905C46.3682 120.492 47.3542 120.626 47.9702 120.334C48.3572 120.15 49.1202 119.733 48.9672 118.908L49.1202 117.01L46.1232 115.133Z" fill="#FFBB7D"/>
<path id="Vector_44" d="M48.3092 114.557L47.1422 113.981C46.4372 114.051 45.8862 114.433 45.4142 114.971C45.4142 117.527 47.3542 119.608 49.1202 119.226C50.3482 118.96 50.7892 118.192 50.5402 117.246L48.3102 114.556" fill="#FF8521"/>
<path id="Vector_45" d="M47.4232 114.261C46.1872 114.714 45.7012 115.337 45.8722 116.108C46.2842 117.838 47.5192 118.946 48.7382 119.004C49.9152 119.06 50.6632 118.092 50.4662 116.714C50.2712 115.352 49.3442 114.143 47.4232 114.261" fill="#E05A00"/>
<path id="Vector_46" d="M47.2602 118.516L47.5202 118.206L48.0732 118.516L47.8962 118.908L47.2602 118.516V118.516ZM47.1792 115.34C48.2642 116.038 48.8242 117.012 48.9492 118.265C48.9492 118.265 49.0472 117.157 48.4792 116.351C47.8812 115.501 47.1792 115.34 47.1792 115.34V115.34ZM48.4202 114.446C49.5052 115.144 50.0652 116.118 50.1902 117.371C50.1902 117.371 50.2882 116.263 49.7202 115.457C49.1222 114.607 48.4202 114.446 48.4202 114.446V114.446ZM47.1432 114.63C47.1432 114.63 48.1072 114.769 48.9972 115.938C49.6542 116.802 49.7432 118.088 49.7432 118.088C49.7432 118.088 49.9202 116.862 49.0782 115.798C47.9612 114.388 47.1422 114.631 47.1422 114.631" fill="#FF8521"/>
<path id="Vector_47" d="M44.4313 121.62C43.2583 121.103 41.8393 120.746 40.5873 120.758C39.2513 119.758 37.8843 118.944 36.4703 118.393C36.0433 118.498 35.8513 118.835 35.7603 119.271C36.5503 120.304 37.6113 121.209 38.8733 122.018C40.5973 123.287 42.2483 124.349 43.6603 124.737C45.5763 125.427 46.5003 122.487 44.4303 121.62" fill="#21758A"/>
<path id="Vector_48" d="M34.3472 124.382L41.5322 127.13C44.2722 128.04 47.6672 127.816 48.9552 126.436V127.692C48.1682 129.268 45.1382 129.624 41.5322 128.204L34.3472 125.407V124.382Z" fill="#3C3C3B"/>
<path id="Vector_49" d="M45.8942 110.033C46.1662 109.585 47.1992 109.323 47.5552 109.525L47.0112 107.952L47.1752 106.654C47.2542 106.307 47.0312 105.808 47.0452 105.167C47.0132 104.887 46.7622 104.99 46.7512 105.254L46.7732 106.575C46.1482 106.887 46.0052 108.125 45.7192 108.625L45.8942 110.033" fill="#575756"/>
<path id="Vector_50" d="M45.2083 106.61L45.5363 106.792L45.7603 107.165L45.9673 107.148L46.6143 106.262L46.8302 105.54L46.5903 105.204L46.5623 105.187C46.5005 105.148 46.4274 105.131 46.3548 105.138C46.2822 105.146 46.2143 105.178 46.1623 105.23C45.8053 105.58 45.3583 106.147 45.2083 106.61" fill="#575756"/>
</g>
</g>
<path id="Vector_51" d="M33.7453 115.438L34.6903 116.229C34.8083 116.221 34.8482 116.156 34.8282 116.049C34.7942 115.712 34.7692 115.386 34.8282 115.159C34.9052 114.875 35.2013 114.889 35.2313 115.236C35.1883 115.52 35.2863 115.85 35.3843 116.187L35.6903 116.951L35.8703 117.625L36.7213 118.112C36.1923 118.114 35.8083 119.285 36.1383 119.67C35.7463 119.321 35.3863 118.94 35.0443 118.542C34.5368 118.198 34.0966 117.764 33.7453 117.262L33.5362 116.882L33.4532 115.687L33.7453 115.104V115.437" fill="#575756"/>
</g>
</g>
</svg>
