<svg width="210" height="297" viewBox="0 0 210 297" fill="none" xmlns="http://www.w3.org/2000/svg">
<g id="man-holding-switch 1">
<path id="Vector" d="M57.35 72.303L70.25 64.855C70.663 64.616 71.037 64.595 71.308 64.753L72.446 65.414C72.176 65.257 71.802 65.279 71.389 65.517L58.488 72.965C57.664 73.441 56.998 74.597 57.001 75.541L57.073 100.849C57.074 101.319 57.24 101.651 57.508 101.806L56.37 101.144C56.102 100.988 55.936 100.658 55.934 100.186L55.864 74.879C55.86 73.935 56.524 72.779 57.35 72.303" fill="#EDEDED"/>
<path id="Vector_2" d="M58.488 72.965C57.662 73.441 56.998 74.597 57.001 75.541L57.073 100.849C57.075 101.796 57.744 102.177 58.57 101.702L71.47 94.253C72.292 93.778 72.957 92.627 72.954 91.679L72.882 66.372C72.88 65.428 72.212 65.042 71.389 65.517L58.488 72.965" fill="#C6C6C6"/>
<path id="Vector_3" d="M57.976 75.863C57.976 76.37 58.332 76.576 58.772 76.323C59.212 76.068 59.568 75.452 59.568 74.944C59.568 74.436 59.212 74.231 58.772 74.484C58.332 74.739 57.976 75.355 57.976 75.863ZM70.62 68.385C70.62 68.892 70.978 69.098 71.416 68.845C71.856 68.59 72.212 67.973 72.212 67.465C72.212 66.958 71.856 66.753 71.416 67.005C70.978 67.26 70.621 67.877 70.621 68.385H70.62ZM70.62 92.673C70.62 93.181 70.978 93.386 71.416 93.133C71.856 92.879 72.212 92.262 72.212 91.754C72.212 91.247 71.856 91.041 71.416 91.294C70.978 91.549 70.621 92.165 70.621 92.673" fill="#484848"/>
<path id="Vector_4" d="M62.533 76.46L61.029 75.585L61.075 93.419L62.578 94.293L62.533 76.459" fill="#686868"/>
<path id="Vector_5" d="M69.798 72.265L68.294 71.391L61.029 75.585L62.533 76.459L69.798 72.265" fill="#747474"/>
<path id="Vector_6" d="M62.533 76.46L62.578 94.293L69.844 90.098L69.798 72.265L62.533 76.459" fill="#484848"/>
<path id="Vector_7" d="M64.842 85.359L66.815 84.219V75.354L64.842 76.494V85.359Z" fill="#1D1D1B"/>
<path id="Vector_8" d="M65.021 82.826C65.878 83.321 66.561 82.928 66.561 81.956C66.561 80.982 65.878 79.8 65.038 79.318L65.021 82.826" fill="#C6C6C6"/>
<path id="Vector_9" d="M65.648 88.639L63.639 89.799V92.119L64.409 92.133L65.939 91.127L66.045 89.299L65.648 88.639" fill="#D44342"/>
<path id="Vector_10" d="M66.045 89.299L64.409 90.243V92.133L66.045 91.188V89.298" fill="#EA4A49"/>
<path id="Vector_11" d="M63.64 90.243H66.045V88.64H63.64V90.243Z" fill="#AF3B3A"/>
<path id="Vector_12" d="M68.816 86.908L66.806 88.068V90.389L67.575 90.403L69.105 89.396L69.212 87.568L68.816 86.908" fill="#E2951C"/>
<path id="Vector_13" d="M69.212 87.568L67.575 88.513V90.402L69.212 89.458V87.568" fill="#FBA620"/>
<path id="Vector_14" d="M67.575 88.513L66.807 88.069L68.816 86.909L69.212 87.569L67.575 88.513Z" fill="#BB7D1C"/>
<path id="Vector_15" d="M73.436 70.982C73.296 70.868 73.156 70.752 73.014 70.633L73.365 70.411C73.409 70.593 73.48 70.765 73.573 70.921C73.5262 70.9384 73.4805 70.9584 73.436 70.981" fill="#E8AB73"/>
<path id="Vector_16" d="M74.912 72.022C74.391 71.732 73.915 71.372 73.436 70.982C73.481 70.959 73.526 70.938 73.573 70.92C73.765 71.2409 74.0526 71.4937 74.3954 71.6431C74.7383 71.7925 75.1192 71.8309 75.485 71.753C75.311 71.873 75.117 71.959 74.912 72.023" fill="#E8AB73"/>
<path id="Vector_17" d="M113.969 103.318L113.779 105.598L113.333 106.941L112.153 108.533C111.857 109.033 110.665 109.621 110.665 109.621C109.057 110.548 107.869 108.366 108.074 107.555L109.164 104.343C109.164 104.343 109.32 103.66 109.053 103.125C108.838 102.699 107.194 103.582 107.194 103.582C106.616 103.914 106.097 104.211 105.69 104.446C105.14 104.529 104.904 104.389 104.98 104.025L106.115 102.839L107.391 101.721L107.951 101.231C108.881 100.638 109.749 100.169 110.435 100.073L110.504 99.838L110.642 99.372L111.879 99.562L113.723 99.844L113.633 101.252L113.74 101.909L113.969 103.318" fill="#FFBB7D"/>
<path id="Vector_18" d="M111.558 108.673C111.6 107.588 111.647 106.287 110.932 106.033L109.688 105.855L110.708 105.169L110.552 104.157L109.618 104.009C109.585 103.597 109.543 103.185 109.491 102.775L111.379 102.339L112.719 104.598L111.558 108.673ZM109.294 101.496C109.238 101.18 109.176 100.866 109.107 100.556C109.417 100.39 109.743 100.254 110.08 100.15C110.203 100.116 110.32 100.09 110.432 100.075V100.073H110.435L110.471 99.95L110.505 99.84C110.668 100.401 111.175 100.837 111.855 101.2L109.295 101.496" fill="#FEA968"/>
<path id="Vector_19" d="M108.338 72.893L109.081 81.806L109.689 89.213C110.232 93.511 110.849 96.965 110.459 99.215C110.432 99.44 110.451 99.649 110.505 99.84C110.668 100.401 111.175 100.837 111.855 101.2C112.399 101.5 113.052 101.735 113.741 101.907C114.811 97.491 115.645 93.239 115.283 89.803L114.567 81.053C114.367 76.048 113.179 72.259 108.337 72.893" fill="#21758A"/>
<path id="Vector_20" d="M111.856 101.2C111.176 100.837 110.668 100.401 110.505 99.84C110.447 99.6371 110.431 99.4243 110.459 99.215C110.547 98.6708 110.588 98.1202 110.582 97.569C110.582 96.574 110.482 95.431 110.333 94.159C111.17 90.745 112.074 86.237 112.555 81.806C114.16 85.802 112.135 92.144 111.882 99.559C111.864 100.103 111.846 100.646 111.856 101.199" fill="#12556A"/>
<path id="Vector_21" d="M87.41 153.927C87.41 152.326 88.645 151.711 90.475 151.515C92.075 151.515 94.228 152.231 97.054 152.881L100.276 154.642C100.888 156.296 100.868 157.77 100.511 159.124C99.605 159.906 98.456 160.389 97.393 160.104L93.773 158.572L93.511 158.049C90.626 157.735 87.408 156.425 87.409 153.927H87.41ZM99.17 147.51C99.17 146.204 100.341 145.978 102.088 145.844C105.243 145.844 105.378 147.424 108.281 147.354L111.134 149.088C111.718 150.762 111.599 152.546 111.258 153.888C110.393 154.641 109.076 154.808 108.084 154.66L105.151 152.936L104.902 152.404C102.148 151.995 99.17 149.949 99.17 147.511" fill="#1D1D1B"/>
<path id="Vector_22" d="M109.507 102.917L98.993 107.314C98.974 109.179 99.025 110.932 99.203 112.233C99.866 117.078 101.82 124.398 101.82 124.398C103.23 130.624 103.795 138.349 104.124 146.493C104.178 149.424 108.541 151.996 111.334 149.223C112.137 139.285 112.134 129.63 109.794 123.236C110.914 118.189 109.878 112.462 109.564 106.646C109.629 105.893 109.213 103.041 109.507 102.917" fill="#0E586B"/>
<path id="Vector_23" d="M90.323 117.913C90.715 122.751 92.261 130.061 92.261 130.061L93.332 152.125C93.127 153.588 93.724 154.775 94.707 155.498C96.233 156.611 98.678 156.59 100.389 154.714C101.749 144.792 102.286 135.283 100.299 128.9C101.702 123.857 101.633 119.17 101.64 113.357C104.876 112.038 109.885 110.156 109.68 105.05C109.607 103.134 109.319 101.233 108.82 99.382C108.73 99.032 108.628 98.68 108.518 98.337C108.428 98.069 108.346 97.808 108.25 97.547C106.463 101.127 100.712 103.36 94.46 102.57C94.1864 102.536 93.9136 102.495 93.642 102.447C92.9668 102.335 92.2973 102.19 91.636 102.013C91.636 102.013 91.58 102.37 91.491 102.982C91.423 103.484 91.326 104.151 91.223 104.934C90.749 108.554 90.062 114.649 90.323 117.913" fill="#21758A"/>
<path id="Vector_24" d="M94.72 155.5C94.0205 154.998 93.5357 154.25 93.362 153.407C93.2798 152.984 93.2697 152.551 93.332 152.125L93.325 151.959L92.982 144.925L92.262 130.059C92.262 130.059 91.97 128.685 91.609 126.734C91.136 124.184 90.545 120.652 90.323 117.913C90.153 115.789 90.385 112.466 90.698 109.407C90.971 106.747 91.307 104.285 91.494 102.983C92.372 103.389 93.224 103.738 94.047 104.04L94.091 104.056C93.893 105.564 94.062 107.32 94.085 109.223C91.7 115.126 92.643 123.133 94.719 130.776C93.332 137.512 93.759 146.216 94.719 155.501" fill="#12556A"/>
<path id="Vector_25" d="M89.58 82.025C89.987 85.269 90.213 87.831 90.344 89.934C90.378 90.504 90.405 91.04 90.433 91.549C90.687 96.921 90.35 99.011 91.347 102.92L91.491 102.982C92.371 103.388 93.223 103.738 94.047 104.04C101.207 106.672 106.484 105.593 108.82 99.382C109.72 97.08 112.042 88.223 112.716 80.129C112.702 76.419 111.493 73.773 108.339 72.894C102.718 74.247 97.524 77.82 91.587 81.311C91.387 81.427 90.873 81.551 90.405 81.688L90.309 81.723C89.987 81.819 89.697 81.923 89.581 82.025" fill="#21758A"/>
<path id="Vector_26" d="M96.311 73.593L96.841 78.638C100.108 78.615 105.215 76.352 104.572 74.617L102.855 71.322L96.311 73.593Z" fill="#FCAF75"/>
<path id="Vector_27" d="M94.753 74.23C96.049 75.705 98.003 75.507 99.993 74.98C102.899 73.636 104.993 71.647 104.707 67.863C104.938 65.116 103.693 62.238 99.009 62.388C96.029 62.483 93.489 63.566 93.311 66.75C93.311 66.75 93.153 72.762 94.753 74.23" fill="#FCAF75"/>
<path id="Vector_28" d="M104.732 69.637C104.616 70.577 104.439 71.417 104.246 72.054C104.095 72.534 103.936 72.894 103.776 73.094C102.769 74.548 99.453 75.773 97.229 74.169L96.565 72.298C96.565 72.298 95.272 71.181 95.138 71.14C95.004 71.097 95.231 68.62 95.231 68.62C94.266 67.908 93.56 67.068 93.325 65.968C93.015 63.475 95.315 61.318 99.008 61.478C102.743 61.638 104.49 63.996 104.842 66.422C104.901 67.521 104.85 68.638 104.732 69.637" fill="black"/>
<path id="Vector_29" d="M95.54 71.5C95.182 71.1 95.731 70.175 96.132 70.045C96.692 69.863 96.997 70.672 97.055 71.113C97.132 71.705 97.058 72.167 96.726 72.656C96.346 73.219 95.75 72.666 95.563 72.212C95.428 71.888 95.766 71.753 95.54 71.5" fill="#FCAF75"/>
<path id="Vector_30" d="M102.082 70.977L102.277 71.671C103.127 71.445 103.835 71.112 104.362 70.643L104.509 69.771C103.789 70.417 103.114 70.799 102.082 70.977" fill="white"/>
<path id="Vector_31" d="M94.42 67.982C92.02 66.028 89.954 64.633 89.897 63.302C89.905 61.468 91.95 60.082 93.66 60.193C95.01 60.305 96.56 60.983 98.196 61.914L94.42 67.982" fill="#0E586B"/>
<path id="Vector_32" d="M93.671 65.522C93.421 69.103 97.058 71.434 101.221 71.74C101.753 71.743 101.943 71.728 102.277 71.67C102.098 70.864 102.415 69.954 103.414 69.52C104.177 69.188 104.473 69.67 104.362 70.643C105.262 69.72 105.245 68.341 105.025 66.604C104.108 63.441 102.442 61.247 98.585 60.942C96.297 61.142 94.227 62.302 93.671 65.522" fill="#21758A"/>
<path id="Vector_33" d="M94.047 104.04C93.181 103.722 92.3283 103.369 91.491 102.982L91.347 102.92C90.35 99.011 90.687 96.921 90.433 91.549C91.127 91.363 91.813 91.164 92.501 90.944L92.591 90.917C92.563 94.984 92.817 98.887 93.641 102.447C93.758 102.989 93.896 103.518 94.047 104.04Z" fill="#12556A"/>
<g id="switch">
<path id="Vector_34" d="M67.256 84.57L68.861 83.638C69.444 83.298 69.806 82.578 69.809 81.553C69.814 79.52 68.404 77.05 66.643 75.988L65.038 76.92C66.798 77.982 68.208 80.452 68.203 82.486C68.2 83.511 67.839 84.231 67.256 84.57" fill="#C6C6C6"/>
<path id="Vector_35" d="M65.017 84.384C65.913 84.879 66.724 84.904 67.299 84.546L67.44 84.443C68.005 84.005 68.204 83.208 68.204 82.485C68.209 80.452 66.8 77.981 65.038 76.919L65.03 79.313L65.021 82.826L65.017 84.384" fill="#878787"/>
<path id="Vector_36" d="M68.868 78.953L76.026 70.346C76.1512 70.1924 76.2107 69.9957 76.1916 69.7985C76.1725 69.6013 76.0764 69.4196 75.9241 69.2929C75.7718 69.1662 75.5757 69.1046 75.3783 69.1217C75.181 69.1388 74.9983 69.233 74.87 69.384L67.712 77.991C67.214 78.491 68.289 79.675 68.868 78.953Z" fill="#878787"/>
<path id="Vector_37" d="M75.699 78.094L76.896 76.686L77.392 76.103L77.101 75.579L76.455 74.416L75.215 72.181L75.109 72.127L74.912 72.022C74.239 71.647 73.642 71.159 73.014 70.633L73.904 70.071C73.904 70.071 74.39 70.15 74.842 70.116C75.0213 70.1093 75.1977 70.0689 75.362 69.997C75.506 69.927 75.599 69.818 75.602 69.658C75.61 69.148 74.427 68.974 73.817 68.918C73.5943 68.8967 73.3705 68.9457 73.177 69.058L72.918 69.243C72.576 69.49 72.17 69.773 71.654 70.02C71.154 70.41 71.431 70.804 71.53 71.168C71.552 71.298 71.485 71.408 71.416 71.55C71.358 71.67 71.299 71.812 71.293 71.989C71.288 72.148 71.383 72.329 71.457 72.496L71.535 72.753L71.493 72.925C71.4464 73.0336 71.4301 73.1529 71.446 73.27L71.486 73.397C71.564 73.574 71.723 73.822 71.71 73.939L71.701 74.059C71.689 74.394 71.783 74.647 72.007 74.879C72.935 76.038 74.373 77.005 75.699 78.094" fill="#FFBB7D"/>
<path id="Vector_38" d="M76.347 76.947L76.753 76.398L77.105 75.922C77.0775 74.8847 77.1613 73.8474 77.355 72.828C77.381 72.686 77.437 72.327 77.345 71.998C77.149 71.3 77.275 70.758 77.432 70.186C77.533 69.952 77.448 69.482 77.025 69.394L76.918 69.384C76.562 69.392 76.344 69.847 76.201 70.409C76.151 70.605 76.109 70.813 76.075 71.018C75.836 71.585 75.404 71.87 74.912 72.022C74.772 72.066 74.625 72.099 74.478 72.124C74.3132 72.152 74.1475 72.1737 73.981 72.189L75.512 75.267L76.347 76.947" fill="#FFBB7D"/>
<path id="Vector_39" d="M74.478 72.124C73.9237 71.5283 73.2909 71.0109 72.597 70.586C72.86 70.531 73.089 70.413 73.337 70.259C73.344 70.31 73.354 70.361 73.365 70.411L73.015 70.633C73.156 70.752 73.296 70.868 73.436 70.982C73.916 71.372 74.391 71.732 74.912 72.022C74.772 72.066 74.625 72.099 74.478 72.124" fill="#E8AB73"/>
<path id="Vector_40" d="M74.747 72.428C74.6591 72.3249 74.5691 72.2235 74.477 72.124C74.625 72.099 74.772 72.066 74.912 72.022C75.117 71.959 75.311 71.873 75.485 71.753C75.665 71.716 75.835 71.651 75.989 71.563L75.959 71.729C75.646 71.814 75.363 71.949 75.109 72.127C74.981 72.217 74.86 72.318 74.747 72.428V72.428ZM72.154 72.066C72.0128 71.9132 71.8472 71.7847 71.664 71.686C71.517 71.604 71.458 71.57 71.416 71.55C71.486 71.409 71.552 71.298 71.534 71.19C71.724 71.495 71.931 71.786 72.154 72.066V72.066ZM72.057 73.3C71.9129 73.1191 71.7156 72.9879 71.493 72.925L71.535 72.753L71.457 72.497C71.678 72.704 71.991 73.031 72.057 73.299V73.3ZM72.191 74.395C72.0412 74.2642 71.8767 74.1512 71.701 74.058L71.71 73.939V73.926C71.71 73.803 71.56 73.566 71.486 73.396C71.767 73.678 71.95 74.081 72.191 74.396" fill="#E8AB73"/>
<path id="Vector_41" d="M73.317 69.997C73.317 70.4731 73.5061 70.9296 73.8428 71.2663C74.1794 71.6029 74.636 71.792 75.112 71.792C75.5881 71.792 76.0446 71.6029 76.3813 71.2663C76.7179 70.9296 76.907 70.4731 76.907 69.997C76.907 69.5209 76.7179 69.0644 76.3813 68.7277C76.0446 68.3911 75.5881 68.202 75.112 68.202C74.636 68.202 74.1794 68.3911 73.8428 68.7277C73.5061 69.0644 73.317 69.5209 73.317 69.997Z" fill="#EA4A49"/>
<path id="Vector_42" d="M76.47 70.168C76.304 70.168 76.123 70.013 76.032 69.781C75.926 69.506 75.99 69.225 76.176 69.154C76.2046 69.1426 76.2352 69.1368 76.266 69.137C76.431 69.137 76.613 69.292 76.702 69.523C76.808 69.798 76.745 70.079 76.56 70.151C76.5313 70.1623 76.5008 70.1681 76.47 70.168V70.168ZM75.969 69.012C75.9326 69.0097 75.8973 68.999 75.8657 68.9808C75.8342 68.9626 75.8072 68.9373 75.787 68.907C75.717 68.809 75.719 68.687 75.793 68.635C75.8161 68.6177 75.8442 68.6086 75.873 68.609C75.935 68.609 76.005 68.647 76.053 68.714C76.123 68.812 76.121 68.934 76.048 68.986C76.0248 69.003 75.9968 69.0121 75.968 69.012" fill="#F5A5A4"/>
<path id="Vector_43" d="M73.709 76.776C74.087 79.621 74.327 82.094 75.089 84.561L75.337 85.358C76.196 88.099 77.11 90.566 78.732 92.545C82.682 92.937 86.579 92.552 90.432 91.549C91.127 91.363 91.814 91.164 92.502 90.944L92.59 90.917C92.975 90.792 93.353 90.662 93.738 90.531C98.115 89.762 99.99 79.599 92.13 81.201C91.965 81.221 91.78 81.263 91.587 81.311C91.23 81.4 90.825 81.531 90.405 81.688L90.309 81.723C90.069 81.819 89.829 81.923 89.581 82.025C88.283 82.589 86.942 83.331 86.173 83.908C84.256 84.011 83.287 84.224 81.838 84.987C81.83 84.987 79.198 78.507 77.199 74.631C75.481 74.426 73.984 75.353 73.709 76.776" fill="#21758A"/>
<path id="Vector_44" d="M81.79 92.696C80.775 92.696 79.755 92.646 78.732 92.545C77.11 90.566 76.196 88.099 75.337 85.358L79.315 91.184C80.557 91.3569 81.8091 91.4464 83.063 91.452C85.721 91.452 88.17 90.997 90.343 89.934C91.1541 89.5422 91.9214 89.0656 92.632 88.512C92.612 89.322 92.59 90.119 92.59 90.917L92.501 90.944C91.814 91.164 91.127 91.364 90.433 91.549C87.577 92.291 84.698 92.696 81.791 92.696" fill="#12556A"/>
</g>
</g>
</svg>
