<svg xmlns="http://www.w3.org/2000/svg" viewBox="0 0 210 297" height="297mm" width="210mm">
  <defs>
    <clipPath clipPathUnits="userSpaceOnUse" id="a">
      <path d="M0 0h4265.88v4302.44H0z"/>
    </clipPath>
  </defs>
  <g clip-path="url(#a)" transform="matrix(.0618 0 0 -.0618 -31.831 307.963)">
    <path d="M2877.93 2353.6l-7.15.24c.33 2.03 1.06 4.6 2.65 6.67.35.45.88.64 1.55.64.17 0 .36-.02.55-.04l2.4-7.51M2886.45 2373.91l-.62.8c-5.72 5.43-11.23 10.06-16.16 12.58 4.92-2.5 10.44-7.14 16.2-12.55l.59-.77c0-.02 0-.04-.01-.06m-19.69 14.63c-.01.01-.02.01-.02.01l-.1 1.1.12-1.11" fill="#9c8e83"/>
    <path d="M2886.48 2373.94l-.02.03c1.09 6.75 2.54 12.42 3.5 16.3l-.26-1.3c-.95-3.78-2.23-8.96-3.22-15.03" fill="#587278"/>
    <path d="M2885.12 2361.73c.17 3.18.49 6.25.88 9.15l.02-.01c-.4-2.89-.72-5.96-.9-9.14" fill="#8e7f5a"/>
    <path d="M2886.47 2373.89l-.02.02c.01.02.01.04.01.06l.02-.03c0-.02-.01-.04-.01-.05" fill="#586765"/>
    <path d="M2886.02 2370.87l-.02.01c.14 1.03.29 2.04.45 3.03l.02-.02c-.16-.99-.31-1.99-.45-3.02" fill="#8d734b"/>
    <path d="M2953.33 2221.48c1.76 4.57 4.23 7.8 7.33 8.86l56 17.23c.04-.01.06-.02.06-.02l-56.02-17.26c-3.09-1.03-5.56-4.25-7.35-8.81h-.02" fill="#063443"/>
    <path d="M3195.08 2442.64l.84.98 1.67 1.85c.04.02.08.04.12.07l-1.79-1.92-.84-.98" fill="#5f7a81"/>
    <path d="M3197.59 2445.47l.09.1h.07l-.04-.03c-.04-.03-.08-.05-.12-.07" fill="#8d734b"/>
    <path d="M3361.91 2822.23V2266.8l-135.11-77.82v555.43l135.11 77.82" fill="#878787"/>
    <path d="M2984.88 2882.41l240.45-138.85v-555.39l-240.46 138.86.01 555.38" fill="#dadada"/>
    <path d="M3361.91 2822.23l-135.11-77.82-105.34 60.07-135.11 77.08-1.47.85 1.47.85 133.64 76.98 1.47-.85 240.45-137.16" fill="#c6c6c6"/>
    <path d="M3317.92 2309.27c2.25 1.3 4.07.25 4.07-2.34 0-2.6-1.82-5.75-4.07-7.05l-45.67-26.37c-2.25-1.3-4.07-.24-4.07 2.35s1.82 5.75 4.07 7.05l45.67 26.36M3317.92 2324.73c2.25 1.3 4.07.25 4.07-2.34 0-2.6-1.82-5.75-4.07-7.05l-45.67-26.37c-2.25-1.3-4.07-.24-4.07 2.35s1.82 5.75 4.07 7.05l45.67 26.36M3317.92 2340.19c2.25 1.3 4.07.25 4.07-2.34 0-2.6-1.82-5.75-4.07-7.05l-45.67-26.37c-2.25-1.29-4.07-.24-4.07 2.35s1.82 5.75 4.07 7.05l45.67 26.36M3317.92 2355.66c2.25 1.29 4.07.24 4.07-2.35 0-2.6-1.82-5.75-4.07-7.05l-45.67-26.37c-2.25-1.29-4.07-.24-4.07 2.35 0 2.6 1.82 5.75 4.07 7.05l45.67 26.37M3317.92 2371.12c2.25 1.29 4.07.24 4.07-2.35 0-2.6-1.82-5.75-4.07-7.05l-45.67-26.37c-2.25-1.29-4.07-.24-4.07 2.35 0 2.6 1.82 5.75 4.07 7.05l45.67 26.37M3317.92 2386.58c2.25 1.29 4.07.24 4.07-2.35 0-2.6-1.82-5.75-4.07-7.05l-45.67-26.37c-2.25-1.29-4.07-.24-4.07 2.35 0 2.6 1.82 5.75 4.07 7.05l45.67 26.37M3317.92 2402.04c2.25 1.29 4.07.24 4.07-2.35 0-2.6-1.82-5.75-4.07-7.05l-45.67-26.37c-2.25-1.29-4.07-.24-4.07 2.35 0 2.6 1.82 5.75 4.07 7.05l45.67 26.37" fill="#3c3c3b"/>
    <path d="M3119.99 2805.33v-398.42l-135.12-77.83v553.33l135.12-77.08" fill="#878787"/>
    <path d="M2984.88 2882.41l-270.6-23.14v-555.39l270.59 23.15.01 555.38" fill="#9d9d9c"/>
    <path d="M2814.72 2650.92c-6.61 0-11.99 5.38-11.99 12v97.67c0 6.26 4.71 11.4 10.94 11.95l69.69 6.21 1.08.05c6.6 0 11.98-5.38 11.98-12v-97.67c0-6.26-4.71-11.4-10.94-11.95l-69.94-6.23-.82-.03" fill="#fff"/>
    <path d="M2814.17 2766.89l69.69 6.21c3.7.33 6.89-2.58 6.89-6.3l-.01-97.67c0-3.27-2.5-6.01-5.76-6.3l-69.69-6.21c-3.7-.33-6.89 2.58-6.89 6.3v97.67c0 3.28 2.51 6.01 5.77 6.3" fill="#f9b233"/>
    <path d="M2849.05 2756.48l-20.92-43.12 21.2 3.73-21.2-47.38 42.89 62.29-25.11-6.07 21.34 32.64-18.2-2.09" fill="#1d1d1b"/>
    <path d="M3226.8 2345.81V2190.9l-240.45 137.16 135.11 77.82 105.34-60.07" fill="#c6c6c6"/>
    <path d="M3219.87 2319.78c1.45 0 2.9.37 4.23 1.13 2.7 1.54 4.31 4.31 4.31 7.41v134.72h-4.48v-134.72c0-1.47-.76-2.79-2.05-3.52-1.28-.73-2.81-.73-4.08.03l-92.63 54.88c-4.27 2.53-6.93 7.19-6.93 12.15l.01 41.13h-4.47l-.01-41.13c0-6.53 3.49-12.67 9.12-16l92.63-54.88a8.52 8.52 0 014.35-1.2" fill="#e30613"/>
    <path d="M3209.08 2338.99c1.37 0 2.74.36 3.99 1.08 2.51 1.44 4 4.03 4 6.92v135.8h-4.47v-135.8c0-1.27-.66-2.41-1.76-3.05-1.1-.64-2.42-.64-3.52 0l-47.72 27.54a10.213 10.213 0 00-5.09 8.91l.52 56.63-4.47.05-.52-56.64a14.671 14.671 0 017.33-12.82l47.71-27.54a8.04 8.04 0 014-1.08" fill="#e30613"/>
    <path d="M3197.16 2359.31c1.46 0 2.91.38 4.25 1.14 2.71 1.54 4.32 4.33 4.32 7.45v134.65h-4.47V2367.9c0-1.49-.77-2.83-2.07-3.56a4.03 4.03 0 00-4.12.03l-101.35 59.99-2.28-3.85 101.35-59.99a8.504 8.504 0 014.37-1.21M3210.87 2570.03h4.48v184.31h-4.48v-184.31M3188 2581.25h4.47v184.3H3188v-184.3M3169.36 2587.06h4.47v184.3h-4.47v-184.3M3152.58 2595.92h4.47v184.31h-4.47v-184.31" fill="#e30613"/>
    <path d="M3119.86 2506.42l-47.25 27.46.32-114.77 47.26-27.46-.33 114.77" fill="#dadada"/>
    <path d="M3110.93 2501.26l-29.33 17.05.26-94.05 29.34-17.04-.27 94.04M3139.35 2517.67l-47.25 27.47-19.49-11.26 47.25-27.46 19.49 11.25" fill="#bcbcbc"/>
    <path d="M3119.86 2506.42l.33-114.77 19.49 11.25-.33 114.77-19.49-11.25" fill="#757575"/>
    <path d="M3110.63 2493.4l-34.22 19.88.02-4.94 34.21-19.88-.01 4.94" fill="#ededed"/>
    <path d="M3112.92 2494.72l-34.21 19.88-2.3-1.32 34.22-19.88 2.29 1.32" fill="#fff"/>
    <path d="M3110.63 2493.4l.01-4.94 2.29 1.32-.01 4.94-2.29-1.32" fill="#757575"/>
    <path d="M3121.38 2742.52l-36.99 21.49.25-89.83 36.99-21.5-.25 89.84" fill="#dadada"/>
    <path d="M3114.39 2738.48l-22.96 13.34.2-73.61 22.97-13.34-.21 73.61M3136.63 2751.33l-36.98 21.49-15.26-8.81 36.99-21.49 15.25 8.81" fill="#bcbcbc"/>
    <path d="M3121.38 2742.52l.25-89.84 15.26 8.81-.26 89.84-15.25-8.81" fill="#757575"/>
    <path d="M3115.72 2664.33l2.51 1.45c1.2.69 1.94 2.18 1.94 4.29 0 4.23-2.97 9.37-6.63 11.49-1.83 1.06-3.49 1.16-4.69.46l-2.51-1.44 9.38-16.25" fill="#3c3c3b"/>
    <path d="M3104.4 2676.28c0 4.23 2.97 5.95 6.63 3.83 3.66-2.11 6.63-7.26 6.63-11.49s-2.97-5.94-6.63-3.83c-3.66 2.12-6.63 7.26-6.63 11.49" fill="#575756"/>
    <path d="M3116.7 2670.95l-.01-2.92-6.44-1.68v2.92l6.45 1.68" fill="#575756"/>
    <path d="M3110.25 2669.27v-2.92l-7.24 4.17.01 2.92 7.23-4.17" fill="#606060"/>
    <path d="M3103.02 2673.44l2.88 3.74 10.8-6.23-6.45-1.68-7.23 4.17M3089.18 2689.86l2.51 1.45c1.2.7 2.85.6 4.69-.46 3.66-2.12 6.63-7.26 6.63-11.49 0-2.12-.74-3.6-1.94-4.29l-2.51-1.45-9.38 16.24" fill="#3c3c3b"/>
    <path d="M3093.87 2674.08c3.66-2.11 6.63-.4 6.63 3.83s-2.97 9.38-6.63 11.49c-3.67 2.12-6.64.4-6.64-3.83s2.97-9.37 6.64-11.49" fill="#575756"/>
    <path d="M3095.4 2687.4l-2.53 1.45-4.68-4.74 2.53-1.45 4.68 4.74" fill="#575756"/>
    <path d="M3090.72 2682.66l-2.53 1.46v-8.36l2.53-1.45v8.35" fill="#606060"/>
    <path d="M3090.72 2674.31l4.68.63v12.46l-4.68-4.74v-8.35M3115.72 2685.21l2.51 1.44c1.2.7 1.94 2.18 1.94 4.3 0 4.23-2.97 9.37-6.63 11.49-1.83 1.05-3.49 1.16-4.69.46l-2.51-1.45 9.38-16.24" fill="#3c3c3b"/>
    <path d="M3104.4 2697.16c0 4.23 2.97 5.94 6.63 3.83 3.66-2.12 6.63-7.26 6.63-11.49s-2.97-5.94-6.63-3.83c-3.66 2.12-6.63 7.26-6.63 11.49" fill="#575756"/>
    <path d="M3116.7 2691.83l-.01-2.92-6.44-1.68v2.91l6.45 1.69" fill="#575756"/>
    <path d="M3110.25 2690.14v-2.91l-7.24 4.17.01 2.92 7.23-4.18" fill="#606060"/>
    <path d="M3103.02 2694.32l2.88 3.74 10.8-6.23-6.45-1.69-7.23 4.18M3089.18 2710.74l2.51 1.45c1.2.69 2.85.59 4.69-.46 3.66-2.12 6.63-7.26 6.63-11.49 0-2.12-.74-3.6-1.94-4.3l-2.51-1.44-9.38 16.24" fill="#3c3c3b"/>
    <path d="M3093.87 2694.96c3.66-2.12 6.63-.4 6.63 3.83s-2.97 9.37-6.63 11.49c-3.67 2.11-6.64.4-6.64-3.83s2.97-9.38 6.64-11.49" fill="#575756"/>
    <path d="M3095.4 2708.28l-2.53 1.45-4.68-4.74 2.53-1.45 4.68 4.74" fill="#575756"/>
    <path d="M3090.72 2703.54l-2.53 1.45v-8.35l2.53-1.45v8.35" fill="#606060"/>
    <path d="M3090.72 2695.19l4.68.63v12.46l-4.68-4.74v-8.35M3115.03 2706.6l2.51 1.45c1.2.69 1.95 2.18 1.95 4.29 0 4.23-2.97 9.38-6.64 11.49-1.83 1.06-3.49 1.16-4.69.47l-2.51-1.45 9.38-16.25" fill="#3c3c3b"/>
    <path d="M3103.71 2718.55c0 4.23 2.97 5.95 6.63 3.83 3.67-2.11 6.64-7.26 6.64-11.49s-2.97-5.94-6.64-3.83c-3.66 2.12-6.63 7.26-6.63 11.49" fill="#575756"/>
    <path d="M3116.01 2713.22l-.01-2.92-6.44-1.68.01 2.92 6.44 1.68" fill="#575756"/>
    <path d="M3109.57 2711.54l-.01-2.92-7.24 4.18.01 2.92 7.24-4.18" fill="#606060"/>
    <path d="M3102.33 2715.72l2.89 3.73 10.79-6.23-6.44-1.68-7.24 4.18M3088.49 2732.14l2.51 1.45c1.2.69 2.86.59 4.69-.47 3.67-2.11 6.63-7.26 6.63-11.49 0-2.11-.74-3.6-1.94-4.29l-2.51-1.45-9.38 16.25" fill="#3c3c3b"/>
    <path d="M3093.18 2716.35c3.67-2.11 6.64-.4 6.64 3.83s-2.97 9.38-6.64 11.49c-3.66 2.12-6.63.4-6.63-3.83s2.97-9.37 6.63-11.49" fill="#575756"/>
    <path d="M3094.71 2729.67l-2.53 1.45-4.68-4.73 2.54-1.45 4.67 4.73" fill="#575756"/>
    <path d="M3090.04 2724.94l-2.54 1.45v-8.36l2.54-1.45v8.36" fill="#606060"/>
    <path d="M3090.04 2716.58l4.67.63v12.46l-4.67-4.73v-8.36M3115.03 2727.48l2.51 1.45c1.2.69 1.95 2.18 1.95 4.29 0 4.23-2.97 9.37-6.64 11.49-1.83 1.06-3.49 1.16-4.69.46l-2.51-1.44 9.38-16.25" fill="#3c3c3b"/>
    <path d="M3103.71 2739.43c0 4.23 2.97 5.95 6.63 3.83 3.67-2.11 6.64-7.26 6.64-11.49s-2.97-5.94-6.64-3.83c-3.66 2.12-6.63 7.26-6.63 11.49" fill="#575756"/>
    <path d="M3116.01 2734.1l-.01-2.92-6.44-1.68.01 2.92 6.44 1.68" fill="#575756"/>
    <path d="M3109.57 2732.42l-.01-2.92-7.24 4.18.01 2.91 7.24-4.17" fill="#606060"/>
    <path d="M3102.33 2736.59l2.89 3.74 10.79-6.23-6.44-1.68-7.24 4.17M3088.49 2753.02l2.51 1.44c1.2.7 2.86.6 4.69-.46 3.67-2.12 6.63-7.26 6.63-11.49 0-2.11-.74-3.6-1.94-4.29l-2.51-1.45-9.38 16.25" fill="#3c3c3b"/>
    <path d="M3093.18 2737.23c3.67-2.11 6.64-.4 6.64 3.83s-2.97 9.38-6.64 11.49c-3.66 2.12-6.63.4-6.63-3.83s2.97-9.37 6.63-11.49" fill="#575756"/>
    <path d="M3094.71 2750.55l-2.53 1.45-4.68-4.73 2.54-1.46 4.67 4.74" fill="#575756"/>
    <path d="M3090.04 2745.81l-2.54 1.46v-8.36l2.54-1.45v8.35" fill="#606060"/>
    <path d="M3090.04 2737.46l4.67.63v12.46l-4.67-4.74v-8.35" fill="#3c3c3b"/>
    <path d="M3090.24 2630.99v10.78l-9.33 5.38 9.33-5.38 4.39 2.53v-13.23l-4.39-.08" fill="#727271"/>
    <path d="M3080.91 2647.15l9.33-5.38v-10.78l-9.33 5.39v10.77" fill="#fff"/>
    <path d="M3090.24 2641.77l-9.33 5.38 2.26 3.76 11.46-6.61-4.39-2.53" fill="#616160"/>
    <path d="M3104.94 2622.5v10.77l-9.33 5.39 9.33-5.39 4.38 2.53v-13.23l-4.38-.07" fill="#727271"/>
    <path d="M3095.61 2638.66l9.33-5.39v-10.77l-9.33 5.38v10.78" fill="#fff"/>
    <path d="M3104.94 2633.27l-9.33 5.39 2.25 3.76 11.46-6.62-4.38-2.53" fill="#616160"/>
    <path d="M3119.99 2613.95v10.74l4.22 2.44v-13.1l-4.22-.08" fill="#b4b4b4"/>
    <path d="M3110.63 2629.96l9.24-5.34v-10.67l-9.24 5.34v10.67" fill="#fff"/>
    <path d="M3119.99 2624.69v4.88l4.22-2.44-4.22-2.44" fill="#969695"/>
    <path d="M3119.87 2624.62l-9.24 5.34 2.24 3.72 7.12-4.11v-4.88l-.12-.07" fill="#616160"/>
    <path d="M3090.24 2650.76v10.77l-9.33 5.39 9.33-5.38 4.39 2.53v-13.23l-4.39-.08" fill="#727271"/>
    <path d="M3080.91 2666.92l9.33-5.39v-10.77l-9.33 5.39v10.77" fill="#fff"/>
    <path d="M3090.24 2661.54l-9.33 5.38 2.26 3.76 11.46-6.61-4.39-2.53" fill="#616160"/>
    <path d="M3104.94 2642.27v10.77l-9.33 5.39 9.33-5.39 4.38 2.53v-13.23l-4.38-.07" fill="#727271"/>
    <path d="M3095.61 2658.43l9.33-5.39v-10.77l-9.33 5.38v10.78" fill="#fff"/>
    <path d="M3104.94 2653.04l-9.33 5.39 2.25 3.76 11.46-6.62-4.38-2.53" fill="#616160"/>
    <path d="M3119.99 2633.72v10.74l4.22 2.44v-13.1l-4.22-.08" fill="#b4b4b4"/>
    <path d="M3110.63 2649.72l9.24-5.33v-10.67l-9.24 5.34v10.66" fill="#fff"/>
    <path d="M3119.99 2644.46v4.88l4.22-2.44-4.22-2.44" fill="#969695"/>
    <path d="M3119.87 2644.39l-9.24 5.33 2.24 3.73 7.12-4.11v-4.88l-.12-.07" fill="#616160"/>
    <path d="M3146.7 2491.81l-15.64 9.09.2-71.41 15.65-9.09-.21 71.41" fill="#a8a8a8"/>
    <path d="M3142.27 2472.16l-6.75 3.92.18-24.78 6.75-3.93-.18 24.79" fill="#3c3c3b"/>
    <path d="M3160.35 2499.69l-15.64 9.09-13.65-7.88 15.64-9.09 13.65 7.88" fill="#bcbcbc"/>
    <path d="M3146.7 2491.81l.21-71.41 13.64 7.88-.2 71.41-13.65-7.88" fill="#757575"/>
    <path d="M3135.84 2489.92c0-2.01 1.41-4.45 3.14-5.45 1.74-1 3.15-.19 3.15 1.82 0 2-1.41 4.44-3.15 5.44-1.73 1-3.14.19-3.14-1.81" fill="#fff"/>
    <path d="M3130.39 2451.68l4.08 7.84c-.56 1.04-.42 2.8.48 4.55.66 1.25 1.56 2.22 2.47 2.8l4.98-2.9c-.91-.58-1.81-1.55-2.47-2.79-.9-1.75-1.05-3.51-.49-4.55l-4.07-7.84c-.49-.92-.44-1.85.07-2.14l-4.98 2.89c-.5.29-.55 1.22-.07 2.14" fill="#878787"/>
    <path d="M3142.4 2463.97c-.91-.58-1.82-1.55-2.47-2.79-.9-1.75-1.05-3.51-.49-4.55l-4.07-7.84c-.51-.97-.43-1.94.14-2.18l.94.13 1.06 1.18 4.07 7.83.84.35-.02 7.87" fill="#fff"/>
    <path d="M3166.49 2480.53l-15.65 9.09.21-71.41 15.64-9.09-.2 71.41" fill="#a8a8a8"/>
    <path d="M3162.05 2460.87l-6.75 3.93.18-24.79 6.75-3.92-.18 24.78" fill="#3c3c3b"/>
    <path d="M3180.13 2488.41l-15.64 9.09-13.65-7.88 15.65-9.09 13.64 7.88" fill="#bcbcbc"/>
    <path d="M3166.49 2480.53l.2-71.41 13.64 7.87-.2 71.42-13.64-7.88" fill="#757575"/>
    <path d="M3155.62 2478.63c0-2 1.41-4.44 3.15-5.44 1.73-1 3.14-.19 3.14 1.81 0 2.01-1.41 4.45-3.14 5.45-1.74 1-3.15.19-3.15-1.82" fill="#fff"/>
    <path d="M3186.27 2469.25l-15.64 9.09.2-71.42 15.64-9.09-.2 71.42" fill="#a8a8a8"/>
    <path d="M3181.83 2449.59l-6.74 3.92.17-24.78 6.75-3.92-.18 24.78" fill="#3c3c3b"/>
    <path d="M3199.91 2477.13l-15.64 9.09-13.64-7.88 15.64-9.09 13.64 7.88" fill="#bcbcbc"/>
    <path d="M3186.27 2469.25l.2-71.42 13.65 7.88-.21 71.42-13.64-7.88" fill="#757575"/>
    <path d="M3175.41 2412.23c0-2 1.4-4.44 3.14-5.44 1.73-1 3.14-.19 3.14 1.82 0 2-1.41 4.44-3.14 5.44-1.74 1-3.14.19-3.14-1.82" fill="#fff"/>
    <path d="M3205.01 2680.39l5.31-3.06-11.01-6.4-5.31 3.07 11.01 6.39" fill="#878787"/>
    <path d="M3202.73 2686.11l11 6.4c2.12 1.23 5.04 1.05 8.27-.81 6.66-3.85 11.87-12.84 11.85-20.25l-.02-7.69 5.28-3.06-.07-23.53-11-6.39.06 23.53-5.28 3.05.02 7.7c.02 7.4-5.19 16.4-11.61 20.1-3.46 2.01-6.39 2.18-8.5.95" fill="#878787"/>
    <path d="M3210.99 2685.3c-6.42 3.71-11.64.73-11.66-6.67l-.02-7.7-5.31 3.07-.06-23.54 34.1-19.68.06 23.53-5.28 3.05.02 7.7c.02 7.4-5.19 16.4-11.61 20.1l-.24.14" fill="#fff"/>
    <path d="M3204.7 2674.18c0-3.59 2.51-7.94 5.62-9.73 3.1-1.79 5.61-.34 5.61 3.24s-2.51 7.94-5.61 9.73c-3.11 1.79-5.62.34-5.62-3.24M3151.08 2715.35l11.01 6.4c2.11 1.22 5.04 1.05 8.27-.81 6.66-3.85 11.86-12.85 11.84-20.25l-.02-7.7 5.28-3.05-.06-23.53-11.01-6.4.07 23.54-5.29 3.05.03 7.7c.02 7.4-5.19 16.39-11.61 20.1-3.47 2-6.4 2.18-8.51.95" fill="#878787"/>
    <path d="M3159.35 2714.54c-6.42 3.71-11.64.73-11.67-6.67l-.02-7.7-5.3 3.06-.07-23.53 34.1-19.69.07 23.54-5.29 3.05.03 7.7c.02 7.4-5.19 16.39-11.61 20.1l-.24.14" fill="#fff"/>
    <path d="M3153.05 2703.41c0-3.58 2.52-7.93 5.62-9.73 3.1-1.79 5.62-.33 5.62 3.25s-2.52 7.93-5.62 9.73c-3.1 1.79-5.62.33-5.62-3.25" fill="#878787"/>
    <path d="M3206.19 2457.3l-15.65 9.09.21-71.42 15.64-9.09-.2 71.42" fill="#a8a8a8"/>
    <path d="M3201.75 2437.64l-6.75 3.93.18-24.79 6.75-3.92-.18 24.78" fill="#3c3c3b"/>
    <path d="M3206.19 2457.3l.2-71.42 13.64 7.88-.2 71.42-13.64-7.88" fill="#757575"/>
    <path d="M3195.32 2400.29c0-2.01 1.41-4.44 3.15-5.45 1.73-1 3.14-.19 3.14 1.82 0 2-1.41 4.44-3.14 5.44-1.74 1-3.15.19-3.15-1.81" fill="#fff"/>
    <path d="M3190.89 2435.44l.75.68 1.01.1 4.98-2.89-1.01-.1-.75-.69-.43-2.49 3.43-4.09c-.72-1.7-.76-3.4 0-4.31l.44-.39-4.97 2.9-.45.38c-.76.91-.72 2.61 0 4.31l-3.43 4.09.43 2.5" fill="#e05a00"/>
    <path d="M3196.62 2433.23l-.75-.69-.43-2.49 3.43-4.09c-.72-1.7-.76-3.4 0-4.31.66-.8 1.76-.79 2.9-.13l.11 7.94-4.07 3.72-1.19.05" fill="#ff8521"/>
    <path d="M3226.17 2445.81l-15.64 9.09.2-71.42 15.64-9.09-.2 71.42" fill="#a8a8a8"/>
    <path d="M3221.74 2426.15l-6.75 3.93.17-24.79 6.75-3.92-.17 24.78" fill="#3c3c3b"/>
    <path d="M3239.82 2453.69l-15.65 9.09-13.64-7.88 15.64-9.09 13.65 7.88" fill="#bcbcbc"/>
    <path d="M3226.17 2445.81l.2-71.42 13.65 7.88-.2 71.42-13.65-7.88" fill="#757575"/>
    <path d="M3215.31 2443.91c0-2 1.4-4.44 3.14-5.44 1.74-1 3.14-.19 3.14 1.81 0 2.01-1.4 4.44-3.14 5.45-1.74 1-3.14.19-3.14-1.82M3215.31 2388.8c0-2.01 1.4-4.44 3.14-5.45 1.74-1 3.14-.19 3.14 1.82 0 2-1.4 4.44-3.14 5.44-1.74 1-3.14.19-3.14-1.81" fill="#fff"/>
    <path d="M3210.88 2423.95l.75.68 1.01.1 4.97-2.89-1.01-.1-.75-.69-.43-2.49 3.43-4.1c-.72-1.69-.76-3.39 0-4.3l.45-.38-4.98 2.89-.45.38c-.75.91-.71 2.61.01 4.31l-3.43 4.09.43 2.5" fill="#e05a00"/>
    <path d="M3216.6 2421.74l-.75-.69-.43-2.49 3.43-4.1c-.72-1.69-.76-3.39 0-4.3.67-.8 1.76-.79 2.9-.13l.12 7.94-4.08 3.72-1.19.05" fill="#ff8521"/>
    <path d="M3087.36 2603.01l-15.64 9.09.2-71.41 15.64-9.09-.2 71.41" fill="#a8a8a8"/>
    <path d="M3082.93 2583.36l-6.75 3.92.17-24.78 6.75-3.93-.17 24.79" fill="#3c3c3b"/>
    <path d="M3101 2610.89l-15.64 9.09-13.64-7.88 15.64-9.09 13.64 7.88" fill="#bcbcbc"/>
    <path d="M3087.36 2603.01l.2-71.41 13.65 7.88-.21 71.41-13.64-7.88" fill="#757575"/>
    <path d="M3076.5 2601.12c0-2.01 1.4-4.44 3.14-5.45 1.73-1 3.14-.19 3.14 1.82 0 2-1.41 4.44-3.14 5.44-1.74 1-3.14.19-3.14-1.81M3076.5 2546c0-2 1.4-4.44 3.14-5.44 1.73-1 3.14-.19 3.14 1.81 0 2.01-1.41 4.44-3.14 5.45-1.74 1-3.14.19-3.14-1.82" fill="#fff"/>
    <path d="M3071.05 2562.88l4.07 7.84c-.56 1.04-.41 2.8.48 4.55.66 1.25 1.56 2.22 2.48 2.8l4.98-2.9c-.92-.58-1.82-1.55-2.48-2.79-.9-1.75-1.04-3.51-.48-4.55l-4.08-7.84c-.48-.92-.43-1.85.07-2.14l-4.98 2.89c-.5.29-.55 1.22-.06 2.14" fill="#e05a00"/>
    <path d="M3083.06 2575.17c-.92-.58-1.82-1.55-2.48-2.79-.9-1.75-1.04-3.51-.48-4.55l-4.08-7.84c-.5-.97-.43-1.94.15-2.18l.93.13 1.06 1.18 4.08 7.83.84.35-.02 7.87" fill="#ff8521"/>
    <path d="M3107.14 2591.73l-15.64 9.09.2-71.41 15.64-9.09-.2 71.41" fill="#a8a8a8"/>
    <path d="M3102.71 2572.07l-6.75 3.93.17-24.79 6.75-3.92-.17 24.78" fill="#3c3c3b"/>
    <path d="M3120.79 2599.61l-15.65 9.09-13.64-7.88 15.64-9.09 13.65 7.88" fill="#bcbcbc"/>
    <path d="M3107.14 2591.73l.2-71.41 13.65 7.87-.2 71.42-13.65-7.88" fill="#757575"/>
    <path d="M3096.28 2589.83c0-2 1.4-4.44 3.14-5.44 1.74-1 3.14-.19 3.14 1.81 0 2.01-1.4 4.45-3.14 5.45-1.74 1-3.14.19-3.14-1.82M3096.28 2534.72c0-2.01 1.4-4.44 3.14-5.44 1.74-1.01 3.14-.19 3.14 1.81s-1.4 4.44-3.14 5.44c-1.74 1-3.14.19-3.14-1.81" fill="#fff"/>
    <path d="M3090.83 2551.6l4.07 7.84c-.56 1.04-.41 2.8.49 4.55.65 1.24 1.55 2.21 2.47 2.79l4.98-2.89c-.92-.58-1.82-1.55-2.48-2.79-.9-1.75-1.04-3.51-.48-4.56l-4.07-7.83c-.49-.92-.44-1.85.06-2.15l-4.97 2.9c-.51.29-.56 1.22-.07 2.14" fill="#e05a00"/>
    <path d="M3102.84 2563.89c-.92-.58-1.82-1.55-2.48-2.79-.9-1.75-1.04-3.51-.48-4.56l-4.07-7.83c-.51-.97-.43-1.94.14-2.18l.93.13 1.07 1.17 4.07 7.84.84.35-.02 7.87" fill="#ff8521"/>
    <path d="M3126.92 2580.45l-15.64 9.09.2-71.42 15.64-9.09-.2 71.42" fill="#a8a8a8"/>
    <path d="M3122.49 2560.79l-6.75 3.92.18-24.78 6.74-3.92-.17 24.78" fill="#3c3c3b"/>
    <path d="M3140.57 2588.33l-15.64 9.09-13.65-7.88 15.64-9.09 13.65 7.88" fill="#bcbcbc"/>
    <path d="M3126.92 2580.45l.2-71.42 13.65 7.88-.2 71.42-13.65-7.88" fill="#757575"/>
    <path d="M3116.06 2578.55c0-2 1.41-4.44 3.14-5.44 1.74-1.01 3.14-.19 3.14 1.81 0 2.01-1.4 4.44-3.14 5.44-1.73 1.01-3.14.19-3.14-1.81M3116.06 2523.44c0-2.01 1.41-4.45 3.14-5.45 1.74-1 3.14-.19 3.14 1.82 0 2-1.4 4.44-3.14 5.44-1.73 1-3.14.19-3.14-1.81" fill="#fff"/>
    <path d="M3110.61 2540.32l4.07 7.83c-.56 1.05-.41 2.81.49 4.55.66 1.25 1.56 2.22 2.47 2.8l4.98-2.89c-.92-.58-1.82-1.55-2.48-2.8-.89-1.74-1.04-3.51-.48-4.55l-4.07-7.83c-.49-.93-.44-1.86.06-2.15l-4.97 2.89c-.51.29-.55 1.22-.07 2.15" fill="#878787"/>
    <path d="M3146.7 2569.16l-15.64 9.09.2-71.41 15.65-9.09-.21 71.41" fill="#a8a8a8"/>
    <path d="M3142.27 2549.51l-6.75 3.92.18-24.78 6.75-3.93-.18 24.79" fill="#3c3c3b"/>
    <path d="M3160.35 2577.04l-15.64 9.09-13.65-7.88 15.64-9.09 13.65 7.88" fill="#bcbcbc"/>
    <path d="M3146.7 2569.16l.21-71.41 13.64 7.88-.2 71.41-13.65-7.88" fill="#757575"/>
    <path d="M3135.84 2567.27c0-2.01 1.41-4.44 3.14-5.45 1.74-1 3.15-.19 3.15 1.82 0 2-1.41 4.44-3.15 5.44-1.73 1-3.14.19-3.14-1.81M3135.84 2512.15c0-2 1.41-4.44 3.14-5.44 1.74-1 3.15-.19 3.15 1.81 0 2.01-1.41 4.44-3.15 5.45-1.73 1-3.14.19-3.14-1.82" fill="#fff"/>
    <path d="M3130.39 2529.04l4.08 7.83c-.56 1.04-.42 2.81.48 4.55.66 1.25 1.56 2.22 2.47 2.8l4.98-2.89c-.91-.59-1.81-1.56-2.47-2.8-.9-1.75-1.05-3.51-.49-4.55l-4.07-7.84c-.49-.92-.44-1.85.07-2.14l-4.98 2.89c-.5.29-.55 1.22-.07 2.15" fill="#878787"/>
    <path d="M3142.4 2541.33c-.91-.59-1.82-1.56-2.47-2.8-.9-1.75-1.05-3.51-.49-4.55l-4.07-7.84c-.51-.96-.43-1.94.14-2.18l.94.13 1.06 1.18 4.07 7.83.84.35-.02 7.88" fill="#fff"/>
    <path d="M3166.49 2557.88l-15.65 9.09.21-71.41 15.64-9.09-.2 71.41" fill="#a8a8a8"/>
    <path d="M3162.05 2538.23l-6.75 3.92.18-24.79 6.75-3.92-.18 24.79" fill="#3c3c3b"/>
    <path d="M3180.13 2565.76l-15.64 9.09-13.65-7.88 15.65-9.09 13.64 7.88" fill="#bcbcbc"/>
    <path d="M3166.49 2557.88l.2-71.41 13.64 7.87-.2 71.42-13.64-7.88" fill="#757575"/>
    <path d="M3155.62 2555.98c0-2 1.41-4.44 3.15-5.44 1.73-1 3.14-.19 3.14 1.82 0 2-1.41 4.44-3.14 5.44-1.74 1-3.15.19-3.15-1.82M3155.62 2500.87c0-2.01 1.41-4.44 3.15-5.44 1.73-1.01 3.14-.19 3.14 1.81s-1.41 4.44-3.14 5.44c-1.74 1.01-3.15.19-3.15-1.81" fill="#fff"/>
    <path d="M3150.17 2517.75l4.08 7.84c-.56 1.04-.42 2.8.48 4.55.66 1.24 1.56 2.21 2.48 2.79l4.97-2.89c-.91-.58-1.81-1.55-2.47-2.79-.9-1.75-1.05-3.51-.49-4.56l-4.07-7.83c-.48-.92-.44-1.85.07-2.15l-4.98 2.9c-.5.29-.55 1.22-.07 2.14" fill="#878787"/>
    <path d="M3162.18 2530.04c-.91-.58-1.81-1.55-2.47-2.79-.9-1.75-1.05-3.51-.49-4.56l-4.07-7.83c-.51-.97-.43-1.94.14-2.18l.94.13 1.06 1.18 4.07 7.83.85.35-.03 7.87" fill="#fff"/>
    <path d="M3186.27 2546.6l-15.64 9.09.2-71.42 15.64-9.09-.2 71.42" fill="#a8a8a8"/>
    <path d="M3181.83 2526.94l-6.74 3.92.17-24.78 6.75-3.92-.18 24.78" fill="#3c3c3b"/>
    <path d="M3199.91 2554.48l-15.64 9.09-13.64-7.88 15.64-9.09 13.64 7.88" fill="#bcbcbc"/>
    <path d="M3186.27 2546.6l.2-71.42 13.65 7.88-.21 71.42-13.64-7.88" fill="#757575"/>
    <path d="M3175.41 2544.7c0-2 1.4-4.44 3.14-5.44 1.73-1 3.14-.19 3.14 1.81 0 2.01-1.41 4.44-3.14 5.45-1.74 1-3.14.19-3.14-1.82M3175.41 2489.59c0-2.01 1.4-4.45 3.14-5.45 1.73-1 3.14-.19 3.14 1.82 0 2-1.41 4.44-3.14 5.44-1.74 1-3.14.19-3.14-1.81" fill="#fff"/>
    <path d="M3169.96 2506.47l4.07 7.83c-.56 1.05-.42 2.81.48 4.56.66 1.24 1.56 2.21 2.48 2.79l4.98-2.89c-.92-.58-1.82-1.55-2.48-2.8-.9-1.74-1.04-3.5-.48-4.55l-4.08-7.83c-.48-.93-.43-1.86.07-2.15l-4.98 2.89c-.5.3-.55 1.23-.06 2.15" fill="#e05a00"/>
    <path d="M3181.97 2518.76c-.92-.58-1.82-1.55-2.48-2.8-.9-1.74-1.04-3.51-.48-4.55l-4.08-7.83c-.51-.97-.43-1.95.15-2.19l.93.13 1.06 1.18 4.08 7.84.84.34-.02 7.88" fill="#ff8521"/>
    <path d="M3206.19 2534.65l-15.65 9.09.21-71.41 15.64-9.09-.2 71.41" fill="#a8a8a8"/>
    <path d="M3201.75 2514.99l-6.75 3.93.18-24.79 6.75-3.92-.18 24.78" fill="#3c3c3b"/>
    <path d="M3219.83 2542.53l-15.64 9.09-13.65-7.88 15.65-9.09 13.64 7.88" fill="#bcbcbc"/>
    <path d="M3206.19 2534.65l.2-71.41 13.64 7.87-.2 71.42-13.64-7.88" fill="#757575"/>
    <path d="M3195.32 2532.75c0-2 1.41-4.44 3.15-5.44 1.73-1 3.14-.19 3.14 1.81 0 2.01-1.41 4.45-3.14 5.45-1.74 1-3.15.19-3.15-1.82" fill="#fff"/>
    <path d="M3190.89 2512.79l.75.69 1.01.09 4.98-2.89-1.01-.1-.75-.69-.43-2.49 3.43-4.09c-.72-1.7-.76-3.4 0-4.31l.44-.38-4.97 2.89-.45.38c-.76.91-.72 2.61 0 4.31l-3.43 4.09.43 2.5" fill="#878787"/>
    <path d="M3196.62 2510.58l-.75-.69-.43-2.49 3.43-4.09c-.72-1.7-.76-3.4 0-4.31.66-.8 1.76-.79 2.9-.13l.11 7.94-4.07 3.72-1.19.05" fill="#fff"/>
    <path d="M3226.17 2523.16l-15.64 9.09.2-71.41 15.64-9.09-.2 71.41" fill="#a8a8a8"/>
    <path d="M3221.74 2503.5l-6.75 3.93.17-24.79 6.75-3.92-.17 24.78" fill="#3c3c3b"/>
    <path d="M3239.82 2531.04l-15.65 9.09-13.64-7.88 15.64-9.09 13.65 7.88" fill="#bcbcbc"/>
    <path d="M3226.17 2523.16l.2-71.41 13.65 7.87-.2 71.42-13.65-7.88" fill="#757575"/>
    <path d="M3215.31 2521.26c0-2 1.4-4.44 3.14-5.44 1.74-1 3.14-.19 3.14 1.81 0 2.01-1.4 4.45-3.14 5.45-1.74 1-3.14.19-3.14-1.82" fill="#fff"/>
    <path d="M3146.7 2646.52l-15.64 9.09.2-71.42 15.65-9.09-.21 71.42" fill="#a8a8a8"/>
    <path d="M3142.27 2626.86l-6.75 3.92.18-24.78 6.75-3.92-.18 24.78" fill="#3c3c3b"/>
    <path d="M3160.35 2654.39l-15.64 9.09-13.65-7.87 15.64-9.09 13.65 7.87" fill="#bcbcbc"/>
    <path d="M3146.7 2646.52l.21-71.42 13.64 7.88-.2 71.41-13.65-7.87" fill="#757575"/>
    <path d="M3135.84 2644.62c0-2.01 1.41-4.44 3.14-5.45 1.74-1 3.15-.18 3.15 1.82s-1.41 4.44-3.15 5.44c-1.73 1-3.14.19-3.14-1.81M3135.84 2589.5c0-2 1.41-4.44 3.14-5.44 1.74-1 3.15-.19 3.15 1.81 0 2.01-1.41 4.45-3.15 5.45-1.73 1-3.14.19-3.14-1.82" fill="#fff"/>
    <path d="M3130.39 2606.39l4.08 7.83c-.56 1.04-.42 2.81.48 4.55.66 1.25 1.56 2.22 2.47 2.8l4.98-2.89c-.91-.58-1.81-1.55-2.47-2.8-.9-1.75-1.05-3.51-.49-4.55l-4.07-7.84c-.49-.92-.44-1.85.07-2.14l-4.98 2.89c-.5.29-.55 1.22-.07 2.15" fill="#e05a00"/>
    <path d="M3142.4 2618.68c-.91-.58-1.82-1.55-2.47-2.8-.9-1.75-1.05-3.51-.49-4.55l-4.07-7.84c-.51-.96-.43-1.94.14-2.18l.94.13 1.06 1.18 4.07 7.83.84.35-.02 7.88" fill="#ff8521"/>
    <path d="M3166.49 2635.23l-15.65 9.09.21-71.41 15.64-9.09-.2 71.41" fill="#a8a8a8"/>
    <path d="M3162.05 2615.58l-6.75 3.92.18-24.78 6.75-3.93-.18 24.79" fill="#3c3c3b"/>
    <path d="M3180.13 2643.11l-15.64 9.09-13.65-7.88 15.65-9.09 13.64 7.88" fill="#bcbcbc"/>
    <path d="M3166.49 2635.23l.2-71.41 13.64 7.88-.2 71.41-13.64-7.88" fill="#757575"/>
    <path d="M3155.62 2633.33c0-2 1.41-4.44 3.15-5.44 1.73-1 3.14-.19 3.14 1.82 0 2-1.41 4.44-3.14 5.44-1.74 1-3.15.19-3.15-1.82M3155.62 2578.22c0-2 1.41-4.44 3.15-5.44 1.73-1.01 3.14-.19 3.14 1.81 0 2.01-1.41 4.44-3.14 5.44-1.74 1.01-3.15.19-3.15-1.81" fill="#fff"/>
    <path d="M3150.17 2595.1l4.08 7.84c-.56 1.04-.42 2.8.48 4.55.66 1.25 1.56 2.21 2.48 2.8l4.97-2.9c-.91-.58-1.81-1.55-2.47-2.79-.9-1.75-1.05-3.51-.49-4.55l-4.07-7.84c-.48-.92-.44-1.85.07-2.14l-4.98 2.89c-.5.29-.55 1.22-.07 2.14" fill="#e05a00"/>
    <path d="M3162.18 2607.39c-.91-.58-1.81-1.55-2.47-2.79-.9-1.75-1.05-3.51-.49-4.55l-4.07-7.84c-.51-.97-.43-1.94.14-2.18l.94.13 1.06 1.18 4.07 7.83.85.35-.03 7.87" fill="#ff8521"/>
    <path d="M3186.27 2623.95l-15.64 9.09.2-71.42 15.64-9.09-.2 71.42" fill="#a8a8a8"/>
    <path d="M3181.83 2604.29l-6.74 3.93.17-24.79 6.75-3.92-.18 24.78" fill="#3c3c3b"/>
    <path d="M3199.91 2631.83l-15.64 9.09-13.64-7.88 15.64-9.09 13.64 7.88" fill="#bcbcbc"/>
    <path d="M3186.27 2623.95l.2-71.42 13.65 7.88-.21 71.42-13.64-7.88" fill="#757575"/>
    <path d="M3175.41 2622.05c0-2 1.4-4.44 3.14-5.44 1.73-1 3.14-.19 3.14 1.81 0 2.01-1.41 4.44-3.14 5.45-1.74 1-3.14.19-3.14-1.82M3175.41 2566.94c0-2.01 1.4-4.44 3.14-5.45 1.73-1 3.14-.19 3.14 1.82 0 2-1.41 4.44-3.14 5.44-1.74 1-3.14.19-3.14-1.81" fill="#fff"/>
    <path d="M3169.96 2583.82l4.07 7.84c-.56 1.04-.42 2.8.48 4.55.66 1.24 1.56 2.21 2.48 2.79l4.98-2.89c-.92-.58-1.82-1.55-2.48-2.8-.9-1.74-1.04-3.5-.48-4.55l-4.08-7.83c-.48-.93-.43-1.86.07-2.15l-4.98 2.89c-.5.3-.55 1.23-.06 2.15" fill="#e05a00"/>
    <path d="M3181.97 2596.11c-.92-.58-1.82-1.55-2.48-2.8-.9-1.74-1.04-3.5-.48-4.55l-4.08-7.83c-.51-.97-.43-1.95.15-2.19l.93.13 1.06 1.18 4.08 7.84.84.35-.02 7.87" fill="#ff8521"/>
    <path d="M3206.19 2612l-15.65 9.09.21-71.41 15.64-9.09-.2 71.41" fill="#a8a8a8"/>
    <path d="M3201.75 2592.34l-6.75 3.93.18-24.79 6.75-3.92-.18 24.78" fill="#3c3c3b"/>
    <path d="M3219.83 2619.88l-15.64 9.09-13.65-7.88 15.65-9.09 13.64 7.88" fill="#bcbcbc"/>
    <path d="M3206.19 2612l.2-71.41 13.64 7.87-.2 71.42-13.64-7.88" fill="#757575"/>
    <path d="M3195.32 2610.1c0-2 1.41-4.44 3.15-5.44 1.73-1 3.14-.19 3.14 1.81 0 2.01-1.41 4.45-3.14 5.45-1.74 1-3.15.19-3.15-1.82M3195.32 2554.99c0-2.01 1.41-4.44 3.15-5.44 1.73-1.01 3.14-.19 3.14 1.81s-1.41 4.44-3.14 5.44c-1.74 1-3.15.19-3.15-1.81" fill="#fff"/>
    <path d="M3190.89 2590.14l.75.69 1.01.1 4.98-2.9-1.01-.1-.75-.69-.43-2.49 3.43-4.09c-.72-1.7-.76-3.4 0-4.31l.44-.38-4.97 2.89-.45.38c-.76.91-.72 2.61 0 4.31l-3.43 4.09.43 2.5" fill="#e05a00"/>
    <path d="M3196.62 2587.93l-.75-.69-.43-2.49 3.43-4.09c-.72-1.7-.76-3.4 0-4.31.66-.8 1.76-.78 2.9-.13l.11 7.94-4.07 3.72-1.19.05" fill="#ff8521"/>
    <path d="M3226.17 2600.51l-15.64 9.09.2-71.41 15.64-9.09-.2 71.41" fill="#a8a8a8"/>
    <path d="M3221.74 2580.85l-6.75 3.93.17-24.79 6.75-3.92-.17 24.78" fill="#3c3c3b"/>
    <path d="M3239.82 2608.39l-15.65 9.09-13.64-7.88 15.64-9.09 13.65 7.88" fill="#bcbcbc"/>
    <path d="M3226.17 2600.51l.2-71.41 13.65 7.87-.2 71.42-13.65-7.88" fill="#757575"/>
    <path d="M3215.31 2598.61c0-2 1.4-4.44 3.14-5.44 1.74-1 3.14-.19 3.14 1.82 0 2-1.4 4.44-3.14 5.44-1.74 1-3.14.19-3.14-1.82M3215.31 2543.5c0-2.01 1.4-4.44 3.14-5.44 1.74-1.01 3.14-.19 3.14 1.81s-1.4 4.44-3.14 5.44c-1.74 1.01-3.14.19-3.14-1.81" fill="#fff"/>
    <path d="M3210.88 2578.65l.75.69 1.01.1 4.97-2.9-1.01-.1-.75-.68-.43-2.5 3.43-4.09c-.72-1.7-.76-3.4 0-4.31l.45-.38-4.98 2.89-.45.38c-.75.91-.71 2.61.01 4.31l-3.43 4.09.43 2.5" fill="#e05a00"/>
    <path d="M3216.6 2576.44l-.75-.68-.43-2.5 3.43-4.09c-.72-1.7-.76-3.4 0-4.31.67-.8 1.76-.78 2.9-.13l.12 7.94-4.08 3.72-1.19.05" fill="#ff8521"/>
    <path d="M3172.19 2776.8l-38.95 22.64.16-56.53 38.95-22.64-.16 56.53" fill="#565656"/>
    <path d="M3172.19 2776.8l.16-56.53 7.52 4.34-.16 56.53-7.52-4.34" fill="#3c3c3c"/>
    <path d="M3112.79 2817.31l25.02 14.55c4.99 2.9 11.91 2.49 19.54-1.92 15.18-8.76 27.44-29.99 27.39-47.42-.03-8.66-3.08-14.76-8.02-17.63l-25.06-14.56.89.62c-5.05-3.52-12.33-3.39-20.45 1.3-15.17 8.76-27.42 29.98-27.37 47.42.03 8.69 3.1 14.79 8.06 17.64" fill="#3c3c3b"/>
    <path d="M3132.28 2815.38c-15.17 8.75-27.5 1.73-27.55-15.71-.05-17.44 12.2-38.66 27.37-47.42 15.19-8.77 27.52-1.74 27.57 15.71.05 17.43-12.2 38.65-27.39 47.42" fill="#706f6f"/>
    <path d="M3109.48 2799.67c-.02-9.53 4.22-20.63 10.65-29.64l27.93-16.15c4.34 1.73 6.85 6.74 6.87 14.09.03 7.82-2.84 16.69-7.42 24.58l-33.81 19.54c-2.7-2.42-4.19-6.71-4.22-12.42" fill="#fff"/>
    <path d="M3116.51 2793.89l28.19-16.28c1.44-.83 2.61-.15 2.61 1.51v3.04c0 1.66-1.17 3.69-2.61 4.52l-28.19 16.28c-1.45.83-2.61.16-2.61-1.51v-3.04c0-1.66 1.16-3.69 2.61-4.52M3119.42 2785.73l20.79-12v2.81l-20.79 12.01v-2.82M3122.26 2779.28l15.11-8.73v2.05l-15.11 8.72v-2.04" fill="#3c3c3b"/>
    <path d="M3234.31 2744.16l-38.95 22.64.16-56.52 38.95-22.64-.16 56.52" fill="#565656"/>
    <path d="M3174.91 2784.68l25.01 14.54c5 2.91 11.91 2.5 19.55-1.91 15.18-8.77 27.43-29.99 27.38-47.42-.02-8.67-3.08-14.76-8.01-17.63l-25.07-14.57.9.63c-5.05-3.53-12.33-3.39-20.45 1.29-15.17 8.76-27.42 29.98-27.37 47.43.02 8.69 3.1 14.79 8.06 17.64" fill="#3c3c3b"/>
    <path d="M3194.4 2782.74c-15.17 8.76-27.5 1.73-27.55-15.7-.05-17.45 12.2-38.67 27.37-47.43 15.18-8.76 27.52-1.73 27.57 15.71.05 17.43-12.21 38.66-27.39 47.42" fill="#706f6f"/>
    <path d="M3171.6 2767.03c-.03-9.53 4.22-20.62 10.64-29.63l27.94-16.15c4.33 1.73 6.85 6.73 6.87 14.08.03 7.83-2.84 16.7-7.42 24.59l-33.81 19.54c-2.7-2.42-4.2-6.71-4.22-12.43" fill="#fff"/>
    <path d="M3178.62 2761.26l28.2-16.28c1.44-.83 2.61-.16 2.61 1.51v3.04c0 1.66-1.17 3.69-2.61 4.52l-28.2 16.28c-1.44.83-2.61.15-2.61-1.51v-3.04c0-1.66 1.17-3.69 2.61-4.52M3181.53 2753.1l20.8-12.01v2.82l-20.8 12v-2.81M3184.37 2746.64l15.12-8.72v2.04l-15.12 8.73v-2.05" fill="#3c3c3b"/>
    <path d="M2831.58 2366.91l-2.13-19.57 1.58-12.08 5.43-16.77c1.69-4.71 6.07-4.72 6.74-.78l2.69-7.97c2.59-6.36 8.83-2.61 7.12 3.79l-3.23 16.19 6.61-20.73c2.99-6.27 8.98-3.8 8.09 4.08l-4.18 22.45 5.89-18.12c2.03-4.24 8.67-3.12 8.28 4.07l-3.96 28.92s-.22 6.03 2.92 10.12c2.51 3.24 14.96-6.9 14.96-6.9 4.34-3.76 8.24-7.11 11.29-9.77 4.52-1.59 6.74-.8 6.7 2.4l-7.66 11.88-8.95 11.54-3.94 5.05c-6.88 6.53-13.45 11.9-19.09 13.84l-.19 2.1-.42 4.16-10.76.42-16.04.62-1.54-12.04-1.98-5.38-4.23-11.52" fill="#fcaf75"/>
    <path d="M2843.2 2317.72l-3.15 36.33 15.01 16.9 20.19-8.98.28-.86c-.19.02-.38.04-.55.04-.67 0-1.2-.19-1.55-.64-1.59-2.07-2.32-4.64-2.65-6.67l-11.71.4-2.97-8.3 7.51-7.46-10.81.52c-6.46-.98-8.19-12.04-9.6-21.28M2886 2370.88l-33.11 10.47c6.34 1.95 11.35 4.8 13.64 9.29l.11-.99.1-1.1s.01 0 .02-.01v-.01c.94-.32 1.91-.74 2.91-1.24 4.93-2.52 10.44-7.15 16.16-12.58l.62-.8c-.16-.99-.31-2-.45-3.03" fill="#fb9e62"/>
    <path d="M2928.88 2614.78l-20.85-74.09-17.24-61.6c-11.62-35.43-22.47-63.61-22.85-83.24-.14-1.96-.64-3.69-1.41-5.21-2.29-4.49-7.3-7.34-13.64-9.29-5.08-1.64-10.98-2.56-17.09-2.89-1.82 39.05-1.92 76.35 6.76 104.79l20.35 72.76c9.86 41.96 26.09 72.04 65.97 58.77" fill="#21758a"/>
    <path d="M3080.73 2257.23c-54.77-28.32-115.44-38.47-177.99-44.95-33.45 0-35.74 71.6-18.55 77.44l55.32 17.05 151.57-39.48c-2.71-3.65-6.14-7.01-10.35-10.06" fill="#0b4757"/>
    <path d="M2898.45 2274.98l-37.57-2.03-23.9 1.52c-20.45-2.53-22.59-52.51-17.73-97.98l37.57-23.6c12.8.68 16.01 1.6 25.64 8.88 4.06 7.11 3.6 15-9.39 25.89l2.54 26.15 25.69 4.82c17.46 6.6 16.44 47.21-2.85 56.35"/>
    <path d="M3157.16 2197.85c-54.71-28.34-115.36-38.5-178.02-44.95-22.67 0-31.01 33.03-28.67 56.09 1.24 10.81 4.76 19.47 10.23 21.3l56.02 17.26s-90.41 37.58-113.34 60.64c-26.84 27.17-17.52 65.47-13.68 80.78l.39 1.95c.33 1.17 2.48 5.47 4.5 9.58 1.88 3.78 3.64 7.29 3.64 7.68 0 1.83 13.81-2.54 32.51-9.31 4.82-1.76 9.96-3.58 15.24-5.6 22.21-8.28 47.36-18.18 64.36-24.95 2.73-1.11 5.21-2.15 7.49-3.06 7.82-3.13 12.64-5.08 12.64-5.08l.65-.4c2.21-1.3 4.43-2.67 6.58-4.03 9.77-5.93 19.34-11.92 28.59-17.98 16.94-11.01 32.96-22.21 47.88-33.61 19.22-14.73 36.48-29.84 51.2-45.47 14.98-27.36 10.81-47.1-8.21-60.84" fill="#21758a"/>
    <path d="M2975.96 2222.71l-37.56-2.04-23.9 1.52c-20.46-2.53-22.59-52.51-17.73-97.97l37.57-23.61c12.79.69 16 1.6 25.63 8.89 4.06 7.1 3.6 15-9.39 25.89l2.54 26.14 25.69 4.82c17.46 6.6 16.45 47.22-2.85 56.36"/>
    <path d="M2991.54 2199.72l-1.05.23c-1.73 9.88-6.57 18.99-14.53 22.76l-22.61-1.23c1.79 4.56 4.26 7.78 7.35 8.81l56.02 17.26s-.02.01-.06.02l.02.01s-90.34 37.54-113.26 60.65c-16.08 16.28-19.2 36.55-18.3 53.5.18 3.18.5 6.25.9 9.14.14 1.03.29 2.03.45 3.02 0 .01.01.03.01.05.99 6.07 2.27 11.25 3.22 15.03l.26 1.3c.06.24.12.47.17.7.58-33.37 28.93-69.36 63.13-69.36 12.23 0 25.21 4.6 37.93 15.57-12.15-50.09 34.33-77.75 111.58-91.38-50.09-4.69-96.27-15.85-111.23-46.08" fill="#12556a"/>
    <path d="M2990.49 2199.95l-39.95 9c.49 4.72 1.43 9.02 2.79 12.53h.02l22.61 1.23c7.96-3.77 12.8-12.88 14.53-22.76"/>
    <path d="M3183.86 2467.35l8.89-22.14.58-1.45 2.77.9c2.03 1.04 33.76 18.94 34.38 19.62 6.85 7.28 10.57 17.43 14.6 27.92l1.29 10.76-.43 1.81-4.18 17.35-8.76 3.04c-5.66-.25-5.26-3.41-2.77-5.35l3.45-3.84-14.98-10.95-10.7-2.95 6.86 10.05c3.93 1.75 6.21 3.48 8.64 5.11 3.19 2.18 4.79 6.82.8 7.13l-19.44-8-13.59-19.55-7.41-29.46" fill="#fcaf75"/>
    <path d="M3197.71 2445.54l.04.03h-.07c2.77 5.45 2.78 11.11-.92 17.06 1-.13 2-.19 3.01-.19 9.18 0 18.86 5.21 28.92 14.69l17.25 27.64.43-1.81-15.89-38.68c-.13-.14-1.52-.98-3.67-2.24a7.92 7.92 0 01-.47-.27c-2.3-1.34-5.37-3.09-8.66-4.97-1.72-.98-3.5-1.99-5.27-2.99-.63-.36-1.25-.72-1.88-1.07-1.48-.84-2.94-1.66-4.32-2.44-3.59-2.02-6.68-3.76-8.5-4.76" fill="#fb9e62"/>
    <path d="M2852.89 2381.35c.98 4.66 1.72 9.29 2.46 13.91 10.73 67.76 2.14 128.41 28.28 157.62-1.1-31.8.07-62.79 2.17-88.8-9.57-28.44-17.54-51.45-17.86-68.23-.14-1.96-.64-3.69-1.41-5.21-2.29-4.49-7.3-7.34-13.64-9.29" fill="#12556a"/>
    <path d="M3073.78 2529.02c-6.83-24.56-10.74-49.57-13.87-72.57-.39-3.06-.85-6.19-1.24-9.18-.91-6.26-1.69-12.44-2.6-18.5-.46-3.32-.92-6.65-1.44-9.9-2.99-17.79-10.87-47.16-16.93-63.12-8.14-3.39-22.48-.65-30.36-3-48.27-14.66-85.07-.13-112.75 47.75-5.28 19.8-13.62 86.37-10.82 156.07 4.11 31.92 2.93 53.68 31.01 61.23 60.19-9.44 114.71-45.14 158.94-88.72l.06-.06" fill="#21758a"/>
    <path d="M3023.29 2617.85l-4.59-43.57c-28.19.2-72.29 19.74-66.75 34.73l14.83 28.44 56.51-19.6" fill="#fcaf75"/>
    <path d="M3036.74 2612.34c-11.19-12.73-28.06-11.02-45.24-6.47-25.1 11.6-43.18 28.78-40.71 61.45-2 23.72 8.76 48.57 49.2 47.28 25.73-.82 47.66-10.18 49.2-37.67 0 0 1.36-51.92-12.45-64.59" fill="#fcaf75"/>
    <path d="M3049.04 2683.71c-1.99-9.49-8.08-16.74-16.4-22.94 0 0 1.94-21.35.79-21.73-1.16-.39-12.3-10-12.3-10l-5.77-16.14c-19.22-13.87-47.81-3.31-56.5 9.23-5.15 6.48-10.83 27.57-9.42 52.6 3.05 20.95 18.31 46.35 50.55 47.72 31.88 1.35 51.74-17.22 49.05-38.74" fill="#1d1d1b"/>
    <path d="M3029.95 2635.92c3.08 3.44-1.66 11.43-5.12 12.56-4.82 1.57-7.46-5.42-7.96-9.23-.67-5.1-.03-9.08 2.83-13.31 3.29-4.86 8.43-.09 10.05 3.83 1.16 2.8-1.76 3.96.2 6.15" fill="#fcaf75"/>
    <path d="M3197.68 2445.57l-1.76-1.95-.84-.98c-26.26-30.03-37.07-39.28-69.12-51.85-2.73.52-5.34 1.17-7.88 1.96-5.15 1.43-10.1 3.12-14.98 5.14-9.77 3.91-18.89 8.86-27.49 14.79-2.15 1.43-4.24 2.99-6.32 4.56-4.63 3.58-8.99 7.36-13.22 11.53-4.56 4.36-8.99 9.18-13.16 14.26-1.83 5.93-3.32 11.66-4.37 17.14-6.71 34.19 1.7 59.08 28.34 72.5 2.28-.92 4.56-2.09 6.84-3.59 18.82-12.31 37.39-43.64 55.82-73.8 18.96 8.99 28.67 7.82 56.87 17.98 13.16-9.97 15.63-19.09 11.27-27.69" fill="#21758a"/>
    <path d="M3066.29 2337.77c-17.19 6.38-46.18 11.07-58.95 14.98 7.88 2.35 22.22-.39 30.36 3 9.77-5.93 19.34-11.92 28.59-17.98" fill="#12556a"/>
    <path d="M3007.34 2352.75c4.04 2.35 7.49 6.71 10.49 12.51 11.79 22.6 16.68 66.9 20.71 94.91 1.05-5.48 2.54-11.21 4.37-17.14 4.17-5.08 8.6-9.9 13.16-14.26-.46-3.32-.92-6.65-1.44-9.9-2.99-17.79-10.87-47.16-16.93-63.12-8.14-3.39-22.48-.65-30.36-3" fill="#12556a"/>
    <path d="M3125.96 2390.79c-2.67.59-5.27 1.24-7.88 1.96-5.15 1.49-10.16 3.19-14.98 5.14-9.77 3.91-18.89 8.86-27.49 14.79-2.15 1.5-4.24 2.99-6.32 4.62-4.48 3.41-8.72 7.06-12.83 11.08l-.39.39c-4.56 4.36-8.99 9.18-13.16 14.26-1.83 5.93-3.32 11.66-4.37 17.14 1.11 7.62 2.22 15.63 3.26 24.1 6.06-11.27 11.92-20.26 18.11-27.82 3.19-3.91 6.45-7.49 9.9-10.75 14.92-14.2 32.96-23.58 60.19-37.71.81-.42 1.7-.61 2.67-.61 11.62 0 34.34 28.03 65.01 38.19l-.09-.1-1.67-1.85-.84-.98c-23.78-25.53-35.12-38.04-69.12-51.85" fill="#12556a"/>
    <path d="M3361.91 2822.23l-135.11-77.82v-334.12l135.11 74.13v337.81" fill="#878787"/>
    <path d="M2975.78 2641.64l-1.75-6.22c-7.61 2.03-13.96 5.01-18.68 9.21l-1.31 7.81c6.44-5.79 12.49-9.2 21.74-10.8" fill="#fff"/>
    <path d="M3044.42 2668.48c21.51 17.51 40.03 30 40.54 41.93-.07 16.43-18.4 28.85-33.71 27.86-12.11-1.01-25.99-7.09-40.65-15.42l33.82-54.37" fill="#0e586b"/>
    <path d="M3051.14 2690.51c2.24-32.08-30.34-52.97-67.65-55.71-4.76-.02-6.47.11-9.46.62 1.61 7.23-1.24 15.38-10.19 19.28-6.83 2.97-9.49-1.35-8.49-10.07-8.06 8.28-7.91 20.63-5.94 36.18 8.21 28.36 23.13 48.01 57.71 50.74 20.49-1.8 39.04-12.18 44.02-41.04" fill="#21758a"/>
    <path d="M1671.46 3704.47c0-4.79 3.36-6.73 7.51-4.34 4.15 2.4 7.51 8.22 7.51 13.01 0 4.79-3.36 6.73-7.51 4.34-4.15-2.4-7.51-8.22-7.51-13.01" fill="#484848"/>
  </g>
</svg>
