<svg xmlns="http://www.w3.org/2000/svg" viewBox="0 0 210 297" height="297mm" width="210mm">
  <path d="M112.955 48.045s1.642-.31 4.111 1.465c2.47 1.773 5.25 11.077 5.658 18.094-.138 3.26-1.31 6.258-2.792 9.176l-4.826-.7-2.384-19.052.233-8.983" fill="#21758a"/>
  <path d="M117.7 72.294a59.745 59.745 0 00-.336-4.638c-.356-3.22-.96-6.248-1.743-8.942l.001-1.183c.839 2.776 1.488 5.93 1.856 9.27.197 1.775.235 3.765.221 5.493m.667-.535c.002-1.615-.048-3.408-.228-5.031-.396-3.585-1.1-6.931-2.016-9.844 1.598 2.193 2.792 5.685 3.63 10.321-.155 1.752-.614 3.271-1.386 4.554m-1.416-1.236l-.288-1.558-.097-.888-.044-.394a56.14 56.14 0 00-.857-5.385l-.014-.814a54.444 54.444 0 011.054 6.244c.105.949.187 1.885.246 2.795" fill="#1c6475"/>
  <path d="M110.74 88.499c-2.987 0-6.164-4.208-8.292-10.982l.632-.199c2.007 6.389 5.014 10.517 7.66 10.517 3.032 0 5.212-5.261 5.429-13.092l.663.017c-.23 8.347-2.622 13.739-6.091 13.739" fill="#3c3c3b"/>
  <path d="M112.194 87.55c-2.892 0-5.99-4.176-8.129-10.987l.633-.2c2.057 6.551 5.069 10.684 7.64 10.519 4.261-.265 5.225-5.001 5.448-13.094l.663.018c-.194 7.054-.805 13.411-6.07 13.738l-.185.006" fill="#3c3c3b"/>
  <path d="M111.584 88.473c-2.989 0-6.166-4.209-8.293-10.982l.633-.2c2.007 6.39 5.013 10.519 7.66 10.519 3.03 0 5.212-5.263 5.428-13.094l.663.018c-.23 8.346-2.62 13.739-6.09 13.739" fill="#3c3c3b"/>
  <path d="M114.978 78.833c-1.406 3.044-7.773 5.041-12.832 5.023-1.814-.01-3.367-.43-4.26-1.407-.126-.155-.243-.487-.364-.977-.697-2.74-1.596-10.335-2.137-16.352-.342-3.844-.543-7.047-.45-7.926 2.016-2.276 5.864-4.62 8.562-6.34 3.657-1.646 3.946-1.543 5.78-2.207 2.674-.972 7.177-1.246 6.643 2.931-.942 7.388.798 23.487-.942 27.255" fill="#21758a"/>
  <path d="M99.199 116.314l-2.4 3.519.88 3.892c1.706 1.468 2.48 2.56 2.029 3.537-1.03 1.053-2.51 1.168-4.135.881-2.934-.187-4.948-5.774-5.925-8.78.584-1.32 1.288-2.14 2.226-2.708l2.445-3.78 4.88 3.439M117.244 125.477l.923 4.684c.78 1.231 1.958 2.206 3.538 2.826 1.922.369 3.264.826 3.806 1.85.331.624.203 1.384-.222 1.95-.603.8-1.401 1.349-3.198 1.349-3.5-.279-8.247-.96-9.482-2.123-.319-1.35-.569-2.728-.212-4.207l-1.19-4.968 6.037-1.361"/>
  <path d="M114.118 89.803c-.706 4.013-3.324 12.09-3.324 12.09l-10.647 15.255c-1.74 2.355-8.771-.75-7.201-4.812l9.608-17.592 3.627-12.501 8.709-5.024s.474 5.491-.772 12.584" fill="#0e586b"/>
  <path d="M99.737 93.294l6.245 14.537 4.379 21.254.098.156c1.424 1.975 8.558.877 8.558-2.092l-3.922-22.697-4.883-14.413c2.744-1.392 4.432-5.604 4.678-9.51l.602-3.31-17.597 5.119c-1.09 3.919-.067 8.608 1.842 10.956" fill="#21758a"/>
  <path d="M97.895 82.338v-.001a15.83 15.83 0 01-.373-.865c-.697-2.74-1.596-10.335-2.137-16.352l4.605-1.665c-1.35 5.89-1.103 13.72 1.058 17.965l-3.153.918M110.459 129.24l-.097-.155-4.378-21.252-6.246-14.542c-.461-.564-.87-1.267-1.211-2.062a13.524 13.524 0 01-.88-3.075c-.306-1.856-.274-3.873.225-5.724l.023-.092 3.153-.918c.46.903 1.005 1.643 1.64 2.17a3.943 3.943 0 00-.542.266c-3.7 2.057-1.45 6.939-.108 7.837-.037 5.937 2.923 10.076 6.195 14.289-.995 3.806 1.024 13.531 2.226 23.257" fill="#1c6475"/>
  <path d="M118.06 72.34c-1.069 1.198-2.486 2.707-4.197 3.568-.298.28-.24.73.153.92l1.004.358c.126.845 1.061 1.426 1.985 1.647 1.045-.187 1.946-.523 2.468-1.257l.46-.796c.53-.921.666-2.018.375-3.041l-.18-.632c-.576-.591-1.234-.937-2.069-.767" fill="#ffbb7d"/>
  <path d="M117.377 75.169a.334.334 0 01-.332-.34c.057-2.105-.06-4.56-.34-7.1-1.23-11.112-5.553-20.153-9.64-20.153a.332.332 0 110-.664c4.49 0 9.013 9.112 10.299 20.744.284 2.57.403 5.056.344 7.19a.33.33 0 01-.331.323" fill="#3c3c3b"/>
  <path d="M116.719 75.397a.334.334 0 01-.332-.341c.056-2.054-.217-4.52-.482-6.907l-.044-.394c-1.228-11.113-5.553-20.153-9.64-20.153a.332.332 0 010-.664c4.49 0 9.015 9.112 10.3 20.745l.044.394c.267 2.408.544 4.898.485 6.998a.332.332 0 01-.331.322" fill="#3c3c3b"/>
  <path d="M117.993 74.671a.335.335 0 01-.332-.34c.057-2.019.098-4.994-.183-7.53-1.228-11.112-5.552-20.153-9.639-20.153a.332.332 0 110-.664c4.49 0 9.013 9.112 10.3 20.744.284 2.576.242 5.583.186 7.62a.332.332 0 01-.332.323" fill="#3c3c3b"/>
  <path d="M101.797 52.206c.601-1.785.946-3.615 1.22-5.455l7.105 3.045-1.028 4.634c-1.212 4.559-8.31 1.318-7.297-2.224" fill="#ffbb7d"/>
  <path d="M109.375 60.177c-1.44 0-2.996-1.654-4.211-3.646.359.091.722.141 1.075.141 1.274 0 2.429-.64 2.855-2.242l.025-.112c.13.009.262.014.393.014a4.58 4.58 0 001.53-.247c.07-.024.136-.053.2-.087.3 2.43.511 5.265-1.12 6.019-.243.109-.494.16-.747.16" fill="#1e697c"/>
  <path d="M106.24 56.672c-.354 0-.717-.05-1.076-.14-1.393-2.283-2.338-5.006-2.15-6.185a8.759 8.759 0 002.396 2.504c.946.8 2.343 1.372 3.709 1.467l-.025.112c-.426 1.603-1.58 2.242-2.855 2.242" fill="#e5a870"/>
  <path d="M106.56 38.653c-3.28.033-5.156 1.63-5.282 5.17.094 3.72 1.235 7.003 4.132 9.028 1.408 1.19 3.814 1.879 5.632 1.234 1.885-.668 1.818-4.56 2.102-8.14.485-3.614-2.888-6.304-6.583-7.292" fill="#ffbb7d"/>
  <path d="M112.905 43.98c-.742 1.808-4.215 3.806-7.394 2.375l-.37 2.953-1.42-.74c-.353.892-.709 1.765-1.307 1.448l-.488-.708c-1.954-2.924-2.157-8.348 2-10.375 4.886-1.932 9.563 2.468 8.98 5.048"/>
  <path d="M103.262 49.835c-.32-.272-.62-.58-.797-.96-.177-.381-.214-.846-.016-1.214.199-.37.666-.601 1.06-.457.273.1.467.352.567.625.1.273.117.568.134.858l.047.79c.012.182.015.385-.108.52-.112.123-.304.148-.464.101-.16-.047-.296-.154-.423-.263" fill="#ffbb7d"/>
  <path d="M110.39 50.035c-1.56 0-3.493-.66-5.058-2.248l.156-1.247.295-.07c.672.26 1.352.373 2.015.373 1.845 0 3.543-.882 4.484-1.916l.88-.208.006.063-.15 2.98-.016.277-.003.022c-.022.345-.046.688-.072 1.024-.457.599-1.397.95-2.537.95" fill="#e5a870"/>
  <path d="M100.585 44.642c1.05 1.58 2.76 2.49 5.507 2.34l6.995-3.389c-.303-3.042-3.291-5.745-7.178-5.432-3.71.3-5.364 2.912-5.324 6.481" fill="#21758a"/>
  <path d="M105.766 46.996c1.745.73 3.199 1.164 4.682 1.361.721.096 1.412-.056 1.838-.313 1.743-1.045 2.881-1.786 4.02-2.271.322-.137.378-.45.02-.706-.593-.423-1.812-1.049-3.297-1.884-2.279.369-4.711 1.852-7.263 3.813" fill="#0e586b"/>
  <path d="M115.812 75.252c1.223-.173 2.281-.56 2.572-1.66l.633 1.059-2.517 1.804-.688-1.203" fill="#ffbb7d"/>
  <path d="M89.454 89.224l.654.378-.261.453c.066 1.911.982 2.876 2.612 3.165l.668.387-.486.843-.308-.178-.73 6.07-5.379 3.878-.67-.386-.856-6.133c1.629-2.171 2.545-4.194 2.612-6.181 0-.81.569-1.793 1.268-2.197.331-.191.631-.217.858-.108l.018.009" fill="#b54825"/>
  <path d="M89.248 89.709c.7-.404 1.267-.076 1.267.732.068 1.91.984 2.876 2.612 3.166l-.856 7.122-6.047 3.49-.856-6.133c1.628-2.17 2.545-4.192 2.61-6.18 0-.81.569-1.793 1.27-2.197" fill="#f66232"/>
  <path d="M85.368 98.086l.187 5.748 10.096 5.829-1.525-6.52-8.758-5.057" fill="#b54825"/>
  <path d="M93.127 93.607c-3.13-1.308-5.553 1.034-7.76 4.48l8.759 5.056c2.608-3.162 5.203-5.24 7.76-4.48l-8.759-5.056" fill="#e0592e"/>
  <path d="M89.732 90.251l-.97 1.681 9.427 5.443.971-1.68-9.428-5.444" fill="#b54825"/>
  <path d="M98.881 94.667l.654.377-.262.453c.068 1.911.984 2.877 2.612 3.166l.67.387-.487.842-.309-.178-.73 6.071-5.378 3.878-.669-.387-.856-6.133c1.628-2.17 2.545-4.193 2.611-6.181 0-.808.568-1.792 1.269-2.197.33-.19.63-.217.856-.108l.02.01" fill="#b54825"/>
  <path d="M98.674 95.152c.7-.405 1.269-.077 1.269.731.067 1.912.982 2.876 2.612 3.167l-.856 7.122-6.048 3.49-.857-6.132c1.63-2.171 2.545-4.194 2.613-6.181 0-.809.568-1.794 1.267-2.197" fill="#f66232"/>
  <path d="M89.595 101.748l.557.322-.528-1.302-.557-.321.528 1.301" fill="#b2b2b2"/>
  <path d="M91.055 99.943l-1.191 1.075v-.538z" fill="#9d9d9c"/>
  <path d="M88.913 100.456l.95.562v-.538l-.95-.562v.538" fill="#c6c6c6"/>
  <path d="M89.864 100.48l1.19-.537-.95-.562-1.19.537.95.562" fill="#ededed"/>
  <path d="M91.565 90.568l3.348-.317s2.014 2.341 2.187 2.935c.078.267.092.959.077 1.364l-1.24-.721c-.496.114-.89.385-1.062.989-.166.647.234.79.686 1.04l.952.55c.136.444-2.11 1.06-2.471 1.237-1.27-.576-1.909-.984-3.2-1.797-.358-1.152-.39-1.718-.525-2.866.311-1.153.642-1.695 1.248-2.414" fill="#ffbb7d"/>
  <path d="M94.936 57.194c-2.904 5.07-4.536 10.785-5.05 17.07-.808 4.605-.407 11.877 1.679 16.304 1.153.999 2.803.524 3.599-.02.342-6.158.526-11.757-.228-14.95l4.645-10.16c3.193-6.968-2.03-11.56-4.645-8.244" fill="#21758a"/>
</svg>
