<svg xmlns="http://www.w3.org/2000/svg" viewBox="0 0 210 297" height="297mm" width="210mm">
  <path d="M126.197 74.985l11.596 6.695 36.11 20.847.133-47.19.02-6.353-47.707-27.54-.152 53.541" fill="#c6c6c6"/>
  <path d="M166.083 81.477l-.582-.013.003-.155c.035-1.708.072-3.478.072-5.212 0-2.776-.094-5.054-.295-7.166l.579-.056c.203 2.133.3 4.426.3 7.222 0 1.74-.038 3.51-.073 5.225l-.004.155" fill="#362929"/>
  <path d="M167.762 76.681c-2.236 0-3.397-2.48-3.454-7.369l-.002-.184.579-.01.004.189c.062 5.614 1.598 6.793 2.873 6.793 1.375 0 2.217-2.639 2.217-4.532l-.007-.348.58-.032.008.38c0 2.146-.971 5.113-2.798 5.113" fill="#ce2020"/>
  <path d="M168.075 82.255l-.58-.063c.134-1.235.295-2.462.46-3.69.32-2.378.646-4.838.734-7.264l.579.02c-.088 2.456-.415 4.929-.735 7.321-.163 1.222-.327 2.446-.458 3.676M163.965 83.648c-.661-3.454-3.11-8.795-5.807-9.417l.13-.567c2.973.685 5.539 6.174 6.249 9.873l-.572.111" fill="#362929"/>
  <path d="M164.736 83.7c-.465-4.352-1.519-6.46-2.448-8.322-.885-1.773-1.648-3.307-1.648-6.235 0-.367.006-.736.013-1.105.006-.364.011-.733.011-1.096 0-.712-.022-1.255-.077-1.762l.579-.063c.055.522.082 1.102.082 1.825 0 .368-.005.737-.014 1.108-.006.364-.013.73-.013 1.093 0 2.792.735 4.266 1.587 5.975.953 1.906 2.03 4.064 2.506 8.52l-.578.062M129.294 66.129l.95.547.003-1.26-.95-.55-.003 1.263" fill="#362929"/>
  <path d="M128.962 56.517l.127.243.148.23 1.506-.856-.13-.244-.147-.232-1.504.859" fill="#a0a0a0"/>
  <path d="M128.457 63.115l2.752 1.59-.006 1.262-.956-.551-.002 1.26-.951-.547.004-1.263-.846-.488zm.638-8.104c.21-.122.485-.085.756.074.215.123.433.32.615.573l.148.232.129.244.007.02.146.459.01.158.012.175.009.104v.003l-.094.354-.09.094-.133.137-.356.07-.402-.142-.317-.238-.298-.337-.148-.23-.127-.244c-.14-.326-.203-.65-.184-.92.022-.267.127-.48.317-.586zm3.094 17.46l.048-17.147-4.779-2.759-.048 17.147 4.78 2.76" fill="#fff"/>
  <path d="M130.247 65.416l.956.55.006-1.262-2.752-1.589-.005 1.263.846.488.949.55M136.878 70.506l.95.552.001-1.265-.947-.547-.004 1.26" fill="#362929"/>
  <path d="M130.918 56.946l-.011-.177-.011-.156-.153-.48-1.506.858.298.337.317.238.402.142.356-.07.134-.137.089-.094.094-.354v-.003l-.01-.104" fill="#c6c6c6"/>
  <path d="M136.882 69.246l.947.547.96.555.004-1.263-2.753-1.59-.004 1.262.846.489" fill="#362929"/>
  <path d="M132.237 55.324l1.018.587 1.638-.951-1.017-.588-1.639.952" fill="#676767"/>
  <path d="M133.255 55.91l-1.018-.586-.048 17.147 1.018.588.048-17.148" fill="#a0a0a0"/>
  <path d="M145.35 74.134l-.952-.55-.001 1.265.95.547.003-1.262" fill="#362929"/>
  <path d="M144.398 73.584l.952.55.956.553.004-1.261-2.752-1.59-.006 1.262.846.486" fill="#362929"/>
  <path d="M141.532 77.866l.583.336.013.007.422.245.048-17.149-1.016-.586-.05 17.147" fill="#a0a0a0"/>
  <path d="M142.598 61.305l1.64-.952-1.02-.588-1.636.954 1.016.586" fill="#676767"/>
  <path d="M144.69 66.076l.313.235.41.144.36-.062.218-.24c.153-.302.123-.787-.089-1.266l-1.504.857.292.332M145.622 64.402a2.073 2.073 0 00-.61-.571c-.276-.16-.553-.198-.761-.078-.374.221-.422.86-.13 1.504l1.501-.855" fill="#c6c6c6"/>
  <path d="M143.558 71.835l2.752 1.591-.004 1.26-.956-.552-.002 1.262-.951-.547.001-1.265-.846-.486zm.693-8.082c.208-.12.485-.083.761.078.212.123.426.318.61.57l.155.235.125.25c.212.48.242.965.089 1.267l-.218.24-.36.062-.41-.144-.313-.235-.292-.332-.154-.234-.124-.253c-.291-.643-.243-1.283.131-1.504zm-1.701 14.701l.579.336 4.202 2.423.048-17.15-4.781-2.758-.048 17.15" fill="#fff"/>
  <path d="M144.12 65.257l.124.253.154.234 1.504-.857-.125-.251-.155-.234-1.502.855" fill="#a0a0a0"/>
  <path d="M147.379 64.063l1.017.59 1.639-.953-1.02-.588-1.636.95" fill="#676767"/>
  <path d="M152.136 79.317l.951.549.004-1.264-.951-.548-.004 1.263" fill="#362929"/>
  <path d="M153.09 78.602l.957.554.004-1.262-2.754-1.59-.003 1.262.846.488.95.548" fill="#362929"/>
  <path d="M152.612 70.648l.317.238.409.144.354-.066.217-.238.094-.356c.024-.267-.039-.59-.18-.91l-1.505.857.294.331M153.54 68.973l-.003-.006-.286-.326-.313-.236-.408-.142-.355.065-.22.236c-.158.302-.127.787.089 1.27l1.496-.861" fill="#c6c6c6"/>
  <path d="M151.297 76.303l2.754 1.59-.004 1.263-.956-.554-.004 1.264-.951-.55.004-1.262-.846-.488zm.658-7.74l.22-.235.355-.065.408.142.313.236.286.326.003.006.157.234.125.253c.142.32.205.643.181.91-.02.27-.123.485-.311.594l-.354.066-.41-.144-.316-.238-.294-.331-.147-.23-.127-.253c-.216-.483-.247-.968-.089-1.27zm-3.559-3.91l-.05 17.146.58.336 8.763 5.061.048-17.15-9.34-5.393" fill="#fff"/>
  <path d="M153.54 68.973l-1.496.86.127.253.147.23 1.504-.856-.125-.253-.157-.234" fill="#a0a0a0"/>
  <path d="M148.396 64.653l9.341 5.393 1.639-.953-9.341-5.393-1.639.953" fill="#e0e0e0"/>
  <path d="M157.737 70.046l-.048 17.15 1.639-.953.048-17.15-1.639.953" fill="#a0a0a0"/>
  <path d="M176.858 47.362L126.833 18.48l-1.638.953 50.025 28.884 1.638-.955" fill="#676767"/>
  <path d="M174.036 55.337l-.132 47.19-36.111-20.847-11.596-6.695.152-53.541 47.708 27.54zm-48.841-35.904l-.162 56.221 12.18 7.032 37.848 21.852.138-49.195.02-7.026-50.024-28.884" fill="#a0a0a0"/>
  <path d="M165.388 62.868l-1.209-.698-.02 7.607 1.209.698.02-7.607" fill="#362929"/>
  <path d="M166.266 62.367l-.023 9.62 1.635-.952.03-9.619-1.642.951" fill="#676767"/>
  <path d="M163.307 60.659l2.959 1.708 1.642-.951-2.962-1.709-1.639.952" fill="#e0e0e0"/>
  <path d="M164.159 69.777l.02-7.607 1.21.698-.021 7.607zm2.107-7.41l-2.959-1.708-.027 9.619 2.963 1.708.023-9.619" fill="#a0a0a0"/>
  <path d="M165.423 50.956l-1.209-.698-.022 7.597 1.207.699.024-7.598" fill="#362929"/>
  <path d="M166.304 50.446l-.031 9.628 1.642-.953.024-9.626-1.635.95" fill="#676767"/>
  <path d="M166.304 50.446l1.635-.951-2.962-1.71-1.637.952 2.964 1.709" fill="#e0e0e0"/>
  <path d="M164.192 57.855l.022-7.597 1.21.698-.025 7.598zm2.112-7.41l-2.964-1.708-.027 9.627 2.96 1.71.031-9.628" fill="#a0a0a0"/>
  <path d="M170.256 65.53l-1.207-.697-.024 7.607 1.21.697.02-7.607" fill="#362929"/>
  <path d="M171.133 65.029l-.024 9.62 1.637-.952.028-9.62-1.64.952" fill="#676767"/>
  <path d="M168.175 63.32l2.958 1.709 1.64-.951-2.96-1.71-1.638.952" fill="#e0e0e0"/>
  <path d="M169.025 72.44l.024-7.607 1.207.697-.02 7.607zm2.108-7.411l-2.958-1.709-.028 9.62 2.962 1.71.024-9.621" fill="#a0a0a0"/>
  <path d="M170.291 53.618l-1.21-.699-.021 7.598 1.207.698.024-7.597" fill="#362929"/>
  <path d="M171.17 53.109l-.03 9.627 1.641-.951.026-9.629-1.637.953" fill="#676767"/>
  <path d="M171.17 53.109l1.637-.953-2.96-1.71-1.639.953 2.962 1.71" fill="#e0e0e0"/>
  <path d="M169.06 60.517l.022-7.598 1.209.699-.024 7.597zm2.11-7.408l-2.962-1.71-.027 9.626 2.96 1.71.03-9.626M130.614 56.36l7.374-4.285.017-5.295-7.375 4.285-.016 5.295" fill="#a0a0a0"/>
  <path d="M121.086 45.556l-.013 5.295 9.54 5.51.017-5.296-9.544-5.51" fill="#c6c6c6"/>
  <path d="M122.518 44.109l.026-8.45.004-2.202.005-2.208 6.695 3.865-.008 2.21-.005 2.2-.022 8.45zm8.164-10.066l-9.546-5.509-.05 17.022 9.544 5.509.052-17.022" fill="#a0a0a0"/>
  <path d="M124.84 40.65l-.003 1.262-.95-.548.003-1.262-.474-.277.002-1.26 4.938 2.847-.004 1.263-.477-.273-.004 1.26-.95-.547.004-1.262zm4.395-1.127l-6.69-3.865-.027 8.45 6.695 3.866.022-8.45" fill="#e0e0e0"/>
  <path d="M129.24 37.324l.008-2.21-6.695-3.865-.005 2.208 6.692 3.867" fill="#362929"/>
  <path d="M130.682 34.043l7.372-4.283-9.547-5.511-7.37 4.285 9.545 5.51" fill="#e0e0e0"/>
  <path d="M130.682 34.043l-.052 17.022 7.375-4.285.05-17.02-7.373 4.283M129.235 39.523l.005-2.199-6.692-3.867-.004 2.201 6.69 3.865" fill="#676767"/>
  <path d="M161.153 92.788l-.128-.422-.304-.32-.166-.06c-.158-.014-.27.096-.27.3l.033.215.234.398.168.136c.237.137.43.026.433-.247M162.749 93.71a.947.947 0 00-.43-.743c-.245-.142-.438-.033-.44.241l.127.424.31.325.306.03.127-.277M164.133 94.924l.085-.018.062-.07.028-.031.033-.174-.123-.422-.302-.32c-.187-.107-.341-.07-.41.068l-.031.173.123.424.314.323.168.058.053-.01" fill="#0080ff"/>
  <path d="M160.72 93.035l-.168-.136-.234-.398-.033-.214c0-.205.112-.315.27-.3l.166.058.304.321.128.422c-.002.273-.196.384-.433.247zm.868-4.495l-1.597-.922-.018 5.985 1.598.923.017-5.986" fill="#a0a0a0"/>
  <path d="M165.558 95.828a.944.944 0 01-.43-.743l.037-.172.229-.132.167.059c.238.136.43.47.43.742l-.035.172-.035.04-.06.065v.002zm.807-4.529l-1.592-.922-.019 5.987 1.596.921.015-5.986" fill="#c6c6c6"/>
  <path d="M165.925 95.79l.03-.034.036-.174a.947.947 0 00-.43-.742l-.167-.06-.229.133-.037.172c0 .274.192.606.43.743l.304.033v-.002l.063-.068" fill="#0080ff"/>
  <path d="M160.738 87.049l-.31-.323-.127-.426c0-.27.201-.377.44-.24a.951.951 0 01.428.742c-.002.274-.195.383-.431.247zm.868-4.498l-1.596-.92-.019 5.987 1.597.922.018-5.989" fill="#c6c6c6"/>
  <path d="M161.17 86.802a.951.951 0 00-.428-.741c-.24-.138-.44-.032-.44.24l.126.425.31.323c.236.136.43.027.431-.247" fill="#0080ff"/>
  <path d="M162.316 93.957l-.31-.325-.127-.424c.002-.274.195-.383.44-.241.238.136.43.47.43.743l-.127.276zm.866-4.497l-1.594-.92-.017 5.986 1.596.92.015-5.986" fill="#c6c6c6"/>
  <path d="M162.75 87.963l.032-.037.033-.171-.123-.422-.304-.321c-.238-.14-.432-.028-.432.245-.002.203.107.442.262.606l.166.135.367-.035" fill="#0080ff"/>
  <path d="M164.13 94.924l-.05.011-.168-.058-.314-.323-.123-.424.031-.173c.069-.138.223-.175.41-.068l.302.32.123.422-.009.048-.024.124-.033.04-.057.063zm.643-4.547l-1.591-.917-.015 5.986 1.587.918.019-5.987" fill="#a0a0a0"/>
  <path d="M164.411 88.676a.945.945 0 00-.427-.744l-.17-.058-.23.131-.032.174c0 .27.188.604.428.742.238.137.431.026.431-.245" fill="#0080ff"/>
  <path d="M166.52 79.696l-1.594-.921-4.916 2.857 1.596.92 4.914-2.856" fill="#fff"/>
  <path d="M165.578 88.853l.304.32.125.423-.01.05-.025.121-.035.045-.057.06-.086.017-.048.011-.172-.057-.167-.137-.135-.186-.125-.42c.002-.273.193-.385.431-.247zm-.789-4.462l-.016 5.986 1.592.922.018-5.987-1.594-.921" fill="#a0a0a0"/>
  <path d="M165.147 89.1l.125.42.135.186.167.137.172.057.051-.011.083-.017.06-.068.032-.037.035-.171-.125-.422-.304-.32c-.238-.14-.43-.027-.431.246" fill="#0080ff"/>
  <path d="M162.384 87.998l-.166-.135c-.155-.164-.264-.403-.262-.606 0-.273.194-.385.432-.245l.304.32.123.423-.033.171-.031.037zm.816-4.525l-1.594-.922-.018 5.989 1.594.92.018-5.987" fill="#a0a0a0"/>
  <path d="M163.2 83.473l1.59.918 4.915-2.857-1.589-.918-4.916 2.857" fill="#fff"/>
  <path d="M163.98 88.921a.945.945 0 01-.428-.742l.032-.174.23-.13.17.057c.237.136.427.47.427.744 0 .271-.193.382-.431.245zm.81-4.53l-1.59-.918-.018 5.987 1.59.917.017-5.986" fill="#c6c6c6"/>
  <path d="M164.79 84.39l1.593.922 4.916-2.856-1.594-.922-4.916 2.857" fill="#c6c6c6"/>
  <path d="M166.365 91.299l-.015 5.986 4.918-2.856.015-5.987-4.918 2.857" fill="#a0a0a0"/>
  <path d="M157.853 65.478l-.274-.158v.317l-.004 1.644 1.64-.951v-.066l-1.362-.786" fill="#676767"/>
  <path d="M139.415 56.799l18.16 10.482.004-1.644L139.42 55.15l-.005 1.648" fill="#a0a0a0"/>
  <path d="M157.59 62.046l-7.845-4.53-.003 1.23c-.002.425-.306.6-.679.386-.377-.219-.67-.74-.669-1.166l.002-1.228-8.965-5.175-2.991-1.727-.01 3.273 2.99 1.727-.005 1.963.005-1.648 18.159 10.486v-.317l.274.158 1.362.786 1.823 1.054.01-3.275-3.458-1.997" fill="#e0e0e0"/>
  <path d="M139.431 51.563l8.965 5.175-.002 1.228c-.001.425.292.947.67 1.166.372.214.676.04.678-.387l.003-1.23 7.845 4.531 3.458 1.997.003-1.639-24.606-14.207-.005 1.639 2.991 1.727" fill="#a0a0a0"/>
  <path d="M143.45 48.007l-.04.052-.178.077-.247-.083-.244-.2-.17-.279-.104-.323-.035-.363.037-.318.107-.205.167-.081.247.08.247.202.175.284.104.322.03.358-.032.324-.083.166zm-1.142.238l-.003 1.004 1.358.786.002-1.007.01-2.857.003-.997-1.359-.785-.003.997-.008 2.859" fill="#0080ff"/>
  <path d="M143.224 47.815l-.24.017-.237-.29a1.36 1.36 0 01-.085-.52c0-.206.032-.351.089-.42l.237-.014.238.29c.054.132.081.31.081.515 0 .214-.03.35-.083.422zm.321-.285l-.03-.358-.103-.322-.175-.284-.247-.201-.247-.081-.167.08-.107.206-.037.318.035.363.105.323.17.278.243.201.247.083.199-.116.083-.166.031-.324M146.819 48.95l.24-.014.235.29c.052.132.081.311.081.516-.002.213-.031.35-.085.422l-.237.016-.238-.291a1.278 1.278 0 01-.085-.52c0-.204.028-.35.089-.418zm-.01 1.25l.244.201.243.083.186-.108.092-.177.035-.32-.026-.359-.103-.322-.179-.284-.243-.2-.245-.082-.171.081-.105.205-.036.317.024.36.106.324.178.282" fill="#fff"/>
  <path d="M142.308 48.245l.008-2.859.003-.997-.674-.389-.004.997-.002.91-.002.827-.001 1.12-.004 1.007.673.388.003-1.004M144.35 46.56l.002-.997-.674-.389-.002.997-.011 2.857-.002 1.007.676.389.002-1.007.01-2.857M146.384 47.734l.001-.997-.68-.394-.003.997-.01 2.857-.002 1.006-1.212-.7 1.893 1.095.003-1.007.01-2.857M148.417 48.908l.003-.997-.682-.394-.002.997-.009 2.857-.004 1.006-.665-.383 1.347.778.004-1.005.008-2.859M150.431 53.942l.002-1.008.01-2.857.001-.995-.673-.391-.003.999v.918l-.002.674-.002.144-.004 1.12-.004 1.005 1.07.618-.395-.227" fill="#362929"/>
  <path d="M140.399 45.714l.039-.32.103-.203.179-.078.237.078.247.2.175.283.104.324.033.361-.035.321-.105.205-.177.075-.247-.08-.245-.202-.17-.276-.101-.326zm1.233 3.147l.004-1.007.001-1.12.002-.826.002-.91.004-.998-1.359-.785-.003.997v.002l-.006 2.385-.002.47-.003 1.006 1.36.786M149.327 50.4l-.236-.292-.24.017c-.057.068-.09.214-.09.416 0 .214.03.386.089.522l.237.291.238-.016c.052-.074.081-.21.083-.42 0-.207-.03-.386-.081-.518" fill="#0080ff"/>
  <path d="M149.078 51.572l-.238-.197-.175-.282-.105-.325-.03-.357.034-.325.11-.199.172-.083.245.083.247.201.175.282.103.323.03.359-.039.32-.092.178-.013.025-.17.083zm.686-.146l.002-.144.002-.674v-.918l.003-.999-1.35-.78-.004.997-.008 2.86.865.499-.865-.5-.004 1.005 1.351.78.004-1.005.004-1.12" fill="#0080ff"/>
  <path d="M151.679 52.228l-.037.319-.085.166-.022.038-.179.076-.243-.081-.24-.195-.177-.284-.1-.325-.03-.357.03-.325.104-.204.179-.076.243.081.25.201.167.278.105.323zm-1.237-2.151l-.01 2.857v1.008l1.36.783.003-1.004.007-2.859.004-.999-1.362-.781-.002.995" fill="#ce2020"/>
  <path d="M153.876 55.929l4.547 2.626.017-4.86-4.551-2.625-.013 4.859M140.72 45.43l.237-.018.236.291c.06.138.081.312.081.516 0 .214-.024.354-.084.422l-.236.017-.238-.291a1.307 1.307 0 01-.087-.52c0-.206.032-.35.09-.417zm-.013 1.248l.245.201.247.081.177-.075.105-.205.035-.32-.033-.362-.104-.324-.175-.282-.247-.201-.237-.078-.18.078-.102.203-.04.32.038.362.101.326.17.276M144.784 47.777l.24-.017.239.291c.05.133.081.312.08.518 0 .212-.032.349-.084.42l-.24.017-.237-.291a1.351 1.351 0 01-.089-.52c.004-.204.032-.35.09-.418zm-.28-.035l-.04.32.028.358.104.324.177.282.101.083.146.118.247.083.167-.083.113-.199.031-.322-.028-.36-.105-.324-.177-.282-.243-.201-.247-.081-.17.081-.104.203" fill="#fff"/>
  <path d="M145.692 50.197l.01-2.857-.924.118.247.081.243.2.177.283.105.324.028.36-.031.322-.113.2-.167.082-.247-.083-.146-.118-.101-.083-.177-.282-.104-.324-.027-.358.039-.32.105-.203.715-.417-.476-.272.476.272.018.01.36.208.003-.997-1.353-.78-.001.997-.01 2.857-.002 1.007.139.079 1.212.7.002-1.006" fill="#0080ff"/>
  <path d="M161.096 47.66l-.008 2.994-.01 3.308-.023 7.496-.004.946-.003 1.639-.01 3.275 1.639-.953.011-3.274.004-1.638.002-.946.02-7.496.009-3.308.01-2.993-1.637.95" fill="#676767"/>
  <path d="M161.088 50.654l-24.611-14.207-.01 3.307 24.61 14.208.011-3.308M162.732 46.71L138.124 32.5l-1.636.954 24.608 14.207 1.636-.951" fill="#e0e0e0"/>
  <path d="M161.096 47.66l-24.608-14.206-.011 2.993 24.611 14.207.008-2.993" fill="#a0a0a0"/>
  <path d="M116.425 86.745l6.034-19.908 13.23 7.645-6.032 19.906-13.232-7.643" fill="#fff"/>
  <path d="M129.799 94.746l.846-.487 6.178-20.376-.848.487-6.176 20.376" fill="#362929"/>
  <path d="M122.316 66.48l.848-.486 13.66 7.89-.849.486-13.66-7.89" fill="#676767"/>
  <path d="M126.286 84.424l-.173.037c-.852 0-1.58-.822-1.58-1.829l.006-.4c0-.56.457-1.105.457-1.343l-.013-.135-.183-.453.006-.052c.136-.538 1.548-1.85 2.656-1.85.997 0 2.064 1.957 2.064 2.965 0 1.095-.977 2.03-1.968 2.527-.413.207-.863.347-1.272.533" fill="#deaa87"/>
  <path d="M128.588 78.79l-4.56 3.428-.859.156 7.297-5.898.33.032.092.295-.147.27-2.153 1.717" fill="#362929"/>
  <path d="M108.8 76.7s-1.26-.624-2.225 0c-.967.62-2.534 1.798-3.096 4.386-.328 1.513-.173 4.696 1.189 6.376 1.36 1.68 6.746-7.215 6.746-7.215L108.8 76.7" fill="#ffe000"/>
  <path d="M136.67 162.135l-.07.637c-.162.634-.455 1.09-1.032 1.394l-5.139 3.633c-2.112.895-4.525.934-6.6-.04-1.522-.714-2.628-1.86-1.502-3.65 1.826-2.894 6.576-5.156 9.094-6.199a3.271 3.271 0 013.037.295l.904.592c.696.57 1.116 1.607 1.308 3.338" fill="#483737"/>
  <path d="M121.33 154.87l.009.563a2.297 2.297 0 01-1.287 1.36l-5.44 3.169c-2.185.704-4.585.53-6.568-.625-1.454-.844-2.457-2.083-1.174-3.766 1.945-2.554 6.409-4.327 9.103-5.21a4.177 4.177 0 013.884.7l.464.369c.644.628.974 1.7 1.009 3.44" fill="#362929"/>
  <path d="M110.1 114.484l7.608 8.668-3.3 16.122a6.969 6.969 0 00-.156 2.704l1.723 13.894a3.186 3.186 0 01-3.183 3.25h-3.749a3.188 3.188 0 01-3.187-3.295l-.355-17.156.03-23.341 4.568-.846" fill="#2267b9"/>
  <path d="M130.757 156.012c-.016-2.813-.409-4.451-1.152-7.166-.311-1.134-.862-3.294-1.73-6.914l-.559-6.458c-.125-1.5-.302-3.001-.59-4.485a36.547 36.547 0 01-.663-7.076c.01-3.138-.116-6.211-.116-6.211l.031-2.813-20.466-.95.026 1.942c-.286 3.05-.572 6.523.466 8.266.6 1.01 2.999 3.14 7.557 3.556.29.024 1.297-.232 1.425.004 1.395 2.504 4.336 17.117 4.336 17.117.104.313.17.64.192.968l1.312 17.132a4.17 4.17 0 004.155 3.91l1.637.006a4.183 4.183 0 004.187-4.206l-.048-6.622" fill="#0080ff"/>
  <path d="M125.978 114.89l.026-.224c.002-1.122-.99-2.243-2.98-3.104-3.993-1.717-10.486-1.72-14.504-.001-2.153.92-3.145 2.145-3.006 3.347l.024.2.005.014a1.81 1.81 0 00-.03.562l.025.197.071.221.069.2.121.219.109.191.179.216.145.186.235.218.186.173.295.214.22.158.39.23.213.128c.218.114.454.223.699.33 3.994 1.717 10.486 1.717 14.507-.002.25-.105.49-.22.71-.334l.205-.12.405-.237.216-.157.306-.22.184-.169.24-.223.15-.18.185-.225.109-.192.127-.223.07-.194.074-.223.02-.203.026-.223-.04-.392.014-.159" fill="#483737"/>
  <path d="M125.239 86.29l-2.168-1.182-14.044-7.126-1.086-.317c-.21.096-.417.201-.614.317-1.581.902-2.61 3.613-3.115 5.358-.048.17-.083.317-.097.437l-.081.859a21.93 21.93 0 00-.111 2.459l.004.578c.007.692.062 1.385.171 2.069.098.626.229 1.245.418 1.87a44.205 44.205 0 011.346 5.753c.621 3.835.728 8.46.77 9.77.08 2.654-.999 4.028-1.16 7.036 0 1.483 3.252 1.128 4.581 1.795l5.922 1.4c1.996 1 1.587-.514 3.784-.925l2.52-.99c1.344-.252 3.905-.186 3.725-1.538l-.54-7.368 1.015-8.297v-4.044l-2.167 2.567.03-8.78c.001-.679.338-1.315.897-1.702" fill="#0080ff"/>
  <path d="M111.343 72.055l2.808-1.617 5.605 3.237-.869 9.603a1.236 1.236 0 01-.617.967l-2.82 1.63a2.601 2.601 0 01-2.6 0l-2.21-1.385.703-7.577v-4.858" fill="#deaa87"/>
  <path d="M112.742 70.868l2.802-1.388 5.137 1.585.424 8.582a1.444 1.444 0 01-.798 1.362l-4.763 2.36-2.802-1.393V70.868" fill="#deaa87"/>
  <path d="M108.103 81.986c.102 1.55 1.018 1.845 2.347 2.657.333.203 1.316.151 1.568.105 1.178-.223 5.157-.72 5.946-4.005.459-1.902 1.454-3.957 1.511-5.002.06-1.043 1.206-2.866 1.313-3.347.118-.54.536-3.849-.463-5.093-2.116-2.648-5.045-3.069-7.973-1.952-2.933 1.117-4.47 2.442-4.676 5.301-.15 2.083.213 8.176.427 11.336" fill="#483737"/>
  <path d="M107.423 69.41l.054.208.047.19.083.208.082.184.12.207.11.179.164.206.129.168.21.2.155.156.276.219.152.12c.156.107.322.214.497.319 2.828 1.642 7.426 1.638 10.272-.004.175-.101.341-.212.5-.32l.143-.115.29-.225.154-.151.216-.21.127-.162.175-.212.102-.174.13-.215.08-.183.088-.212.048-.188.054-.212.018-.191.013-.214v-.01l.006.5c.001 1.082-.714 2.17-2.144 2.993-2.846 1.646-7.444 1.648-10.272.002-1.402-.813-2.105-1.882-2.11-2.95v-.506l.015.205.016.19" fill="#ffe000"/>
  <path d="M121.9 69.2l-.02.191-.053.212-.048.188-.088.212-.08.183-.13.215-.102.174-.175.212-.127.162-.216.21-.154.151-.29.225-.143.114c-.159.109-.325.22-.5.32-2.846 1.643-7.444 1.647-10.272.005a10.128 10.128 0 01-.497-.32l-.152-.12-.276-.218-.155-.155-.21-.201-.129-.168-.164-.206-.11-.18-.12-.206-.082-.184-.083-.208-.047-.19-.054-.208-.016-.19c-.098-1.152.61-2.32 2.128-3.198 2.846-1.644 7.441-1.64 10.269.002 1.41.818 2.114 1.893 2.108 2.962l-.013.214" fill="#ffe000"/>
  <path d="M108.1 68.42c0-3.583 2.652-6.74 6.22-7.056l.404-.016.398.018c3.5.336 6.082 3.432 6.082 6.947v.28l-.013.164-.016.174-.044.191-.045.172-.079.188-.074.167-.116.192-.092.157-.16.195-.115.144-.197.192-.138.132-.256.203-.133.107-.455.29c-2.568 1.477-6.718 1.481-9.275 0l-.446-.29-.138-.109-.249-.193-.138-.14-.19-.185-.118-.147-.15-.19-.095-.159-.113-.188-.07-.167-.079-.188-.04-.164-.05-.194-.011-.171v-.177l-.01-.008v-.171" fill="#ffe000"/>
  <path d="M109.624 63.585c1.181-1.513 2.927-2.563 4.949-2.744l.43-.022.42.022c1.666.16 3.135.914 4.246 2.033-4.173 1.038-7.266 4.798-7.266 9.291l.002.048c-.879-.191-1.696-.492-2.401-.903a6.961 6.961 0 01-.472-.302l-.148-.116-.265-.21-.15-.146-.197-.195-.127-.16-.157-.194-.1-.172-.12-.199-.008-.02a9.52 9.52 0 001.364-6.01" fill="#ffe000"/>
  <path d="M128.505 93.769l-.063-.408c-.68-4.058-2.034-5.312-2.702-9.278-.164-.97.601-2.542 1.8-2.743 4.106-.693 6.928 13.11 7.488 15.769l-6.523-3.34" fill="#d4aa00"/>
</svg>
