<svg width="1058" height="785" viewBox="0 0 1058 785" fill="none" xmlns="http://www.w3.org/2000/svg">
<g id="ride_bike 2">
<g clip-path="url(#clip0)">
<path id="Vector" opacity="0.1" d="M209.73 115.43C204.25 122.08 202.14 131.43 199.78 140.22C180.78 211.06 133.96 268.04 80.64 308.74C58.06 325.98 30.57 349.1 35.51 380.01C38.17 396.61 49.84 408.83 58.51 422.35C76.7 450.66 82.6 489.14 73.93 523.03C64.07 561.59 36.51 597.57 45.04 636.56C50.3 660.56 68.16 677.64 85.33 692.32C112.117 715.207 139.757 736.647 168.25 756.64C187.35 770.04 207.67 783.08 229.93 784.78C249.53 786.28 268.73 778.83 287.34 771.48C303.6 765.05 320.27 758.36 333.4 745.48C341.97 737.07 348.8 726.22 358.32 719.34C380.68 703.18 409.4 713.42 435.04 720.34C495.54 736.58 560.29 730.65 617.86 703.6C706.17 662.1 773.48 574.95 859.86 528.19C897 508.08 937.4 495.6 971.79 469.7C991.165 454.953 1007.81 436.936 1020.99 416.46C1046.99 376.35 1061.05 325.21 1056.99 275.15C1052.93 225.09 1030.18 176.85 994.45 148.59C956.2 118.34 907.89 112.69 864.37 94.53C819.43 75.77 779.45 43.53 734.94 23.4C698.924 7.15668 659.728 -0.81713 620.228 0.0636446C580.728 0.944419 541.926 10.6574 506.67 28.49C458.23 52.99 409.13 110.15 355.18 114.49C316.74 117.49 239.75 79.01 209.73 115.43Z" fill="#04FE4A"/>
<path id="Vector_2" d="M387 554.303L344.293 512.159L330.947 525.683L373.654 567.827L387 554.303Z" fill="#6C63FF"/>
<path id="Vector_3" opacity="0.1" d="M387 554.303L344.293 512.159L330.947 525.683L373.654 567.827L387 554.303Z" fill="black"/>
<g id="front-wheel">
<path id="Vector_4" d="M684.847 726.78L678.587 628.88L678.457 628.67L672.137 630.87L643.047 715.68L596.797 682.88L670.487 629.47L670.557 629.26L670.977 629.11L675.727 625.66L598.487 582.35L579.557 603.15L582.557 622.65L671.357 624.23V626.23L580.877 624.61L577.477 602.5L603.367 574.05L642.087 528.88L642.777 530.75L650.977 521.75L681.517 527.22V526.01L683.517 526.07V527.58L728.877 535.7L686.547 620.35L680.377 624.82V625.32V625.88L778.187 591.8L766.577 683.01L683.577 630.14L680.657 628.5L729.597 707.39L684.847 726.78ZM680.847 632.44L686.697 723.82L726.747 706.44L680.847 632.44ZM600.277 682.88L642.067 712.51L669.407 632.77L600.277 682.88ZM682.597 627.22L684.687 628.39L765.037 679.59L775.837 594.72L682.597 627.22ZM675.497 620.02L678.007 624.07L678.447 623.75L681.447 529.22L651.707 523.88L643.547 532.88L675.497 620.02ZM600.107 580.97L674.947 622.97L673.647 620.84L642.067 534.57L604.867 575.45L600.107 580.97ZM683.477 529.58L680.477 622.27L684.997 618.99L725.907 537.17L683.477 529.58Z" fill="#535461"/>
<path id="Vector_5" d="M679.757 508C669.144 507.988 658.578 509.415 648.347 512.24C643.071 513.695 637.904 515.523 632.887 517.71C606.157 529.297 584.674 550.387 572.594 576.898C560.514 603.41 558.697 633.459 567.492 661.233C576.287 689.008 595.071 712.533 620.209 727.259C645.348 741.984 675.054 746.863 703.582 740.952C732.109 735.04 757.431 718.759 774.648 695.257C791.865 671.755 799.754 642.702 796.789 613.72C793.823 584.738 780.215 557.885 758.595 538.356C736.975 518.828 708.881 508.012 679.747 508H679.757ZM679.357 714.09C659.076 714.082 639.408 707.137 623.62 694.407C607.831 681.678 596.872 663.931 592.562 644.113C588.252 624.295 590.851 603.599 599.928 585.463C609.004 567.326 624.011 552.84 642.457 544.41C647.149 542.262 652.021 540.532 657.017 539.24C669.229 536.07 681.977 535.537 694.411 537.678C706.845 539.818 718.681 544.581 729.13 551.652C739.58 558.722 748.404 567.937 755.015 578.683C761.627 589.429 765.873 601.46 767.473 613.975C769.073 626.49 767.989 639.202 764.293 651.265C760.598 663.329 754.375 674.467 746.04 683.939C737.704 693.41 727.447 700.998 715.951 706.196C704.455 711.395 691.984 714.086 679.367 714.09H679.357Z" fill="#535461"/>
</g>
<g id="hind-wheel">
<path id="Vector_6" d="M255.23 716.99L248.96 619.05L248.83 618.84L242.51 621.04L213.43 705.89L167.18 673.1L240.85 619.69L240.92 619.48L241.34 619.33L246.09 615.88L168.85 572.57L149.93 593.37L152.93 612.87L241.75 614.49V616.49L151.27 614.87L147.85 592.73L173.75 564.27L212.5 519.07L213.19 520.94L221.39 511.94L251.85 517.4V516.19L253.85 516.25V517.76L299.21 525.88L256.92 610.49L250.75 614.96V615.46V616.02L348.55 581.94L336.94 673.15L253.94 620.28L251.02 618.64L299.96 697.52L255.23 716.99ZM251.23 622.65L257.08 714.03L297.13 696.65L251.23 622.65ZM170.65 673.08L212.44 702.71L239.78 622.97L170.65 673.08ZM252.97 617.42L255.06 618.59L335.41 669.79L346.21 584.92L252.97 617.42ZM245.87 610.22L248.38 614.27L248.82 613.95L251.82 519.42L222.08 514.1L213.92 523.1L245.87 610.22ZM170.45 571.16L245.29 613.16L243.99 611.03L212.41 524.76L175.22 565.63L170.45 571.16ZM253.85 519.77L250.85 612.49L255.37 609.21L296.28 527.39L253.85 519.77Z" fill="#535461"/>
<path id="Vector_7" d="M364.92 589.95C360.909 572.131 352.79 555.495 341.21 541.37C336.911 536.121 332.171 531.25 327.04 526.81C307.314 509.779 282.491 499.779 256.467 498.381C230.443 496.983 204.692 504.265 183.254 519.085C161.816 533.904 145.906 555.422 138.02 580.262C130.134 605.102 130.719 631.857 139.683 656.328C148.647 680.799 165.482 701.601 187.547 715.47C209.612 729.339 235.657 735.488 261.595 732.954C287.533 730.42 311.895 719.345 330.858 701.468C349.822 683.591 362.312 659.923 366.37 634.18C367.314 628.119 367.789 621.994 367.79 615.86C367.797 607.144 366.834 598.454 364.92 589.95ZM249.73 704.3C231.498 704.281 213.714 698.647 198.797 688.164C183.879 677.682 172.552 662.859 166.356 645.712C160.16 628.565 159.395 609.926 164.165 592.329C168.935 574.732 179.009 559.031 193.018 547.361C207.026 535.692 224.288 528.619 242.457 527.106C260.627 525.593 278.821 529.712 294.567 538.904C310.312 548.096 322.845 561.914 330.46 578.48C338.076 595.045 340.405 613.554 337.13 631.49C333.38 651.933 322.58 670.414 306.611 683.718C290.642 697.021 270.514 704.304 249.73 704.3V704.3Z" fill="#535461"/>
</g>
<path id="Vector_8" opacity="0.1" d="M367.79 615.86C367.789 621.994 367.314 628.119 366.37 634.18C356.77 633.49 346.85 632.49 337.13 631.49C339.289 619.599 339.021 607.394 336.34 595.61C345.81 593.61 355.48 591.7 364.92 589.97C366.833 598.467 367.795 607.15 367.79 615.86V615.86Z" fill="black"/>
<path id="Vector_9" opacity="0.1" d="M393 585.38V606.65H372.19V588.65C379.39 587.4 386.39 586.29 393 585.38Z" fill="black"/>
<path id="Vector_10" d="M258.54 615.49C258.54 615.49 426.62 571.49 440.22 588.28C453.82 605.07 468.23 627.49 425.85 635.49C383.47 643.49 255.37 621.88 255.37 621.88L258.54 615.49Z" fill="#6C63FF"/>
<path id="Vector_11" opacity="0.1" d="M341.21 541.37L319.85 560.92C316.067 556.064 311.791 551.614 307.09 547.64L327.03 526.81C332.164 531.249 336.908 536.12 341.21 541.37V541.37Z" fill="black"/>
<path id="Vector_12" opacity="0.1" d="M251.34 628.27C258.415 628.27 264.15 622.535 264.15 615.46C264.15 608.385 258.415 602.65 251.34 602.65C244.265 602.65 238.53 608.385 238.53 615.46C238.53 622.535 244.265 628.27 251.34 628.27Z" fill="black"/>
<path id="Vector_13" d="M249.73 628.27C256.805 628.27 262.54 622.535 262.54 615.46C262.54 608.385 256.805 602.65 249.73 602.65C242.655 602.65 236.92 608.385 236.92 615.46C236.92 622.535 242.655 628.27 249.73 628.27Z" fill="#535461"/>
<path id="Vector_14" opacity="0.1" d="M675.13 627.07C682.205 627.07 687.94 621.335 687.94 614.26C687.94 607.185 682.205 601.45 675.13 601.45C668.055 601.45 662.32 607.185 662.32 614.26C662.32 621.335 668.055 627.07 675.13 627.07Z" fill="black"/>
<path id="Vector_15" d="M675.93 628.67C683.005 628.67 688.74 622.935 688.74 615.86C688.74 608.785 683.005 603.05 675.93 603.05C668.855 603.05 663.12 608.785 663.12 615.86C663.12 622.935 668.855 628.67 675.93 628.67Z" fill="#535461"/>
<path id="Vector_16" opacity="0.1" d="M448.22 628.27C462.364 628.27 473.83 616.804 473.83 602.66C473.83 588.516 462.364 577.05 448.22 577.05C434.076 577.05 422.61 588.516 422.61 602.66C422.61 616.804 434.076 628.27 448.22 628.27Z" fill="black"/>
<path id="Vector_17" d="M449.83 628.27C463.974 628.27 475.44 616.804 475.44 602.66C475.44 588.516 463.974 577.05 449.83 577.05C435.686 577.05 424.22 588.516 424.22 602.66C424.22 616.804 435.686 628.27 449.83 628.27Z" fill="#535461"/>
<path id="Vector_18" d="M442.992 600.736L442.984 600.742C439.977 602.991 439.362 607.253 441.611 610.26L461.937 637.441C464.186 640.448 468.448 641.063 471.455 638.814L471.463 638.808C474.471 636.559 475.085 632.297 472.836 629.29L452.51 602.109C450.261 599.102 446 598.487 442.992 600.736Z" fill="#6C63FF"/>
<path id="Vector_19" opacity="0.1" d="M440.48 596.99L414.48 610.99L406.48 604.99V600.99C415.464 600.352 424.193 597.718 432.03 593.28C434.43 591.92 436.69 590.58 438.5 589.4C439.55 594.03 440.48 596.99 440.48 596.99Z" fill="black"/>
<g id="hat">
<path id="Vector_20" d="M453.16 105.34C455.29 112.02 465.52 112.23 470.77 117.15C473.5 119.71 474.77 123.49 477.77 125.77C481.94 128.95 487.96 128.25 493.27 127.49C503.96 125.97 515.44 125.06 525.08 129.67C528.5 131.3 531.57 133.58 535.14 134.91C538.71 136.24 543.14 136.4 546.04 134.04C548.36 132.15 549.21 129.04 551.31 126.96C552.94 125.32 555.21 124.4 557.07 122.96C561.15 119.88 562.91 114.86 564.07 110.06C566.47 100.18 567.16 89.53 563.07 80.16C558.98 70.79 549.14 63.16 538.4 63.65C535.11 63.8 531.9 64.65 528.62 65.01C520.07 65.88 511.62 63.01 503.04 62.52C500.551 62.2171 498.027 62.5616 495.71 63.52C493.963 64.4908 492.457 65.8405 491.3 67.47C487.372 72.6154 484.682 78.5968 483.44 84.95C482.44 89.74 482.39 94.08 476.52 94.82C469.85 95.7 448.65 91.21 453.16 105.34Z" fill="#472727"/>
</g>
<g id="body">
<path id="Vector_21" d="M682.13 503.84C671.758 503.834 661.428 505.151 651.39 507.76L614.52 393.96L614.04 392.48L617.18 391.56C624.58 375.29 604.85 372.85 604.85 372.85L603.19 373.41C592.76 370.41 574.69 368.82 555.94 368.08V345.36C555.987 332.9 558.239 320.546 562.59 308.87C563.12 307.44 563.59 306.1 563.95 304.82C564.03 304.56 564.11 304.3 564.18 304.05L564.31 303.58C564.4 303.25 564.5 302.91 564.58 302.58C564.66 302.25 564.7 302.12 564.75 301.88C564.8 301.64 564.87 301.41 564.92 301.18L564.99 300.85C565.07 300.51 565.14 300.18 565.21 299.85C565.21 299.71 565.26 299.57 565.29 299.43C565.32 299.29 565.4 298.87 565.45 298.59C565.5 298.31 565.51 298.21 565.54 298.02C565.57 297.83 565.61 297.6 565.64 297.4C565.67 297.2 565.64 297.14 565.69 297.01C565.74 296.88 565.76 296.52 565.79 296.28V296.09C565.79 295.8 565.86 295.51 565.88 295.23C565.9 294.95 565.88 294.98 565.88 294.85C565.88 294.72 565.88 294.44 565.88 294.24C565.88 294.04 565.88 294.04 565.88 293.94C565.88 293.84 565.88 293.52 565.88 293.31C565.88 293.1 565.88 292.89 565.88 292.69C565.88 292.49 565.88 292.53 565.88 292.45C565.88 292.37 565.88 292.12 565.88 291.96C565.88 291.8 565.88 291.75 565.88 291.66C565.88 291.57 565.88 291.42 565.88 291.3C565.88 291.18 565.88 291.05 565.88 290.93C565.88 290.81 565.88 290.69 565.88 290.57C565.88 290.45 565.88 290.36 565.88 290.26C565.494 286.392 565.44 282.497 565.72 278.62L567.12 261.1C571.241 259.839 575.083 257.802 578.44 255.1C578.44 255.1 579.33 228.97 582.01 208.29C583.734 195.426 582.179 182.335 577.488 170.233C572.797 158.131 565.124 147.412 555.18 139.07C553.38 137.58 551.51 136.15 549.56 134.82C549.93 133.406 550.21 131.97 550.4 130.52C551.291 128.886 552.358 127.354 553.58 125.95C555.26 124.29 557.58 123.34 559.5 121.95C563.69 118.82 565.5 113.72 566.7 108.84C569.16 98.84 569.87 87.97 565.7 78.45C561.53 68.93 551.39 61.16 540.36 61.66C536.98 61.81 533.68 62.66 530.36 63.05C521.58 63.94 512.89 61.05 504.08 60.52C501.526 60.2067 498.934 60.5509 496.55 61.52C494.761 62.4995 493.213 63.8661 492.02 65.52C487.988 70.7383 485.222 76.8212 483.94 83.29C482.86 88.16 482.86 92.57 476.83 93.29C470.04 94.14 448.25 89.58 452.83 103.94C455.02 110.73 465.53 110.94 470.92 115.94C473.72 118.54 475.01 122.38 478.09 124.7L478.21 124.78C464.21 124.99 441.1 130.53 427.48 161.52C406.94 208.28 394.61 223.52 378.17 235.73C362.53 247.34 355.26 284.73 354.59 288.31C350.26 299.24 347.9 319.31 361.73 352.63C373.45 380.88 383.65 400.11 390.84 414.56L389.43 414.43C386.43 414.2 383.445 413.803 380.49 413.24C368.9 411.04 339.69 406.44 331.83 414.24C321.96 424 325.25 441.09 351.56 443.53C357.576 444.035 363.617 444.175 369.65 443.95V486.8L369.08 487.15C363.93 490.22 358.97 492.97 355.63 494.78L354.41 495.44C353.446 493.857 352.643 492.182 352.01 490.44L324.85 508.3L338.33 519.49L324.62 533.66C324.19 533.28 323.77 532.89 323.34 532.51C301.33 513.684 273.303 503.368 244.34 503.43C177.59 503.43 123.49 556.98 123.49 623.03C123.49 689.08 177.6 742.63 244.34 742.63C304.12 742.63 353.76 699.63 363.47 643.25C386.47 644.96 407.85 645.48 421.89 643.43V657.21H483.52V640.55L485.06 640.45C512.79 638.45 498.41 626.22 498.41 626.22C492.05 626.22 485.05 622.68 480.13 619.59C478.4 618.5 476.62 617.51 474.8 616.59C476.47 610.663 475.963 604.335 473.37 598.75L613.94 453.75L635.42 513.15L633.99 513.74C591.2 532.14 561.27 574.35 561.27 623.48C561.27 689.54 615.38 743.08 682.12 743.08C748.86 743.08 802.98 689.49 802.98 623.49C802.98 557.49 748.85 503.84 682.13 503.84ZM688.57 713.1L683.57 635.91C684.495 635.78 685.403 635.552 686.28 635.23L727.58 701.12C715.646 708.003 702.31 712.099 688.57 713.1V713.1ZM607.96 676.22L671.21 630.85L671.33 631.01L645.39 705.9C630.503 699.499 617.586 689.256 607.96 676.22V676.22ZM724.56 543.29L689.85 611.92C688.227 610.412 686.249 609.339 684.1 608.8L683.26 606.21L685.65 532.81C699.237 533.364 712.529 536.941 724.56 543.28V543.29ZM681.43 600.49L660.29 535.26C667.308 533.59 674.496 532.748 681.71 532.75H683.63L681.43 600.49ZM643.85 540.86C644.32 540.65 644.85 540.46 645.27 540.25L671.35 612.49C670.319 613.54 669.474 614.757 668.85 616.09L601.99 578.99C604.505 574.589 607.385 570.408 610.6 566.49L618.06 558.38C625.591 551.107 634.314 545.181 643.85 540.86ZM601.1 580.77L668.24 618.03C667.937 619.131 667.783 620.268 667.78 621.41C667.78 621.58 667.78 621.75 667.78 621.92L590.52 620.56C590.881 606.659 594.491 593.036 601.06 580.78L601.1 580.77ZM694.83 621.64L768.85 596.11C772.786 608.631 773.925 621.862 772.189 634.871C770.452 647.881 765.882 660.35 758.8 671.4L692.92 629.85C694.213 627.813 694.906 625.453 694.92 623.04C694.902 622.575 694.858 622.111 694.79 621.65L694.83 621.64ZM768.25 594.17L694.44 619.63C693.7 617.482 692.692 615.436 691.44 613.54L726.44 544.25C746.055 555.16 760.935 572.947 768.21 594.18L768.25 594.17ZM594.46 399.87L599.65 414.21L510.13 441.79L509.2 423.3L560.2 408.3C560.306 409.444 560.235 410.598 559.99 411.72C561.278 410.369 562.44 408.903 563.46 407.34L593.88 398.4L594.46 399.87ZM250.78 712.67L245.78 635.67C246.792 635.655 247.798 635.524 248.78 635.28L289.78 700.75C277.844 707.61 264.512 711.685 250.78 712.67V712.67ZM170.17 675.81L233.42 630.49L233.54 630.65L207.6 705.49C192.713 699.089 179.796 688.846 170.17 675.81V675.81ZM152.7 620.15C153.068 606.248 156.684 592.624 163.26 580.37L231.54 618.26C231.172 619.302 230.94 620.388 230.85 621.49L152.7 620.15ZM286.77 542.88L255.14 605.49L250.3 610.49C248.79 609.91 247.187 609.612 245.57 609.61H245.38L247.85 532.41C261.441 532.962 274.737 536.538 286.77 542.88V542.88ZM317.03 568.58C322.807 576.208 327.324 584.713 330.41 593.77L263.92 616.7L317.03 568.58ZM260.08 620.18L331.08 595.71C331.747 597.917 332.36 600.16 332.92 602.44C333.04 602.96 333.15 603.44 333.26 603.99C301.35 610.62 271.59 617.94 259.14 621.07L260.08 620.18ZM243.32 609.64C241.338 609.721 239.4 610.247 237.65 611.18L210.76 538.49C221.339 534.411 232.582 532.326 243.92 532.34C244.56 532.34 245.2 532.34 245.84 532.34L243.32 609.64ZM235.85 612.34C234.41 613.433 233.211 614.812 232.33 616.39L164.25 578.58C166.76 574.169 169.637 569.978 172.85 566.05L180.33 557.91C188.582 549.951 198.256 543.614 208.85 539.23L235.85 612.34ZM333.37 640.49C331.169 651.333 326.971 661.672 320.99 670.98L256.33 630.2C269.52 632.3 300.56 637 333.37 640.49ZM362.24 596.69C358.232 579.131 350.278 562.716 338.98 548.69L342.15 545.82L369.71 572.73V597.01C367.35 597.417 364.973 597.837 362.58 598.27C362.47 597.74 362.37 597.22 362.25 596.7L362.24 596.69ZM369.71 545.58L369.11 545L369.71 545.49V545.58ZM391.09 510.35L391.16 510.3L392.67 509.3L393.34 508.85L394.08 508.36L394.92 507.81L395.7 507.31L396.65 506.7L397.44 506.2L398.6 505.48L399.31 505.04L400.55 504.29C401.041 508.827 402.172 513.271 403.91 517.49L404.3 553.32C398.502 546.803 394.016 539.228 391.09 531.01V510.35ZM505.7 353.35C508.13 355.51 509.7 356.85 509.7 356.85C509.7 356.85 514.85 361.49 520.71 367.49C515.5 367.49 510.66 367.49 506.41 367.6L505.7 353.35ZM507.49 389C515.84 389.29 526.7 389.58 538.26 389.66C538.34 389.91 538.42 390.16 538.47 390.39C540.831 391.119 543.14 392.008 545.38 393.05L508.32 405.63L507.49 389ZM516.91 323.3C516.91 323.3 509.28 303.3 499.97 288.18C504.88 273.8 514.03 258.59 531.12 251.85L531 253.22L530.94 253.96C530.4 260.27 529.78 267.96 529.25 275.86V276.32C529.19 277.26 529.127 278.203 529.06 279.15V279.64L528.99 280.8L528.92 281.94L528.86 282.94C528.82 283.607 528.78 284.273 528.74 284.94V285.51C528.74 286.083 528.71 286.657 528.65 287.23V287.9C528.617 288.567 528.583 289.253 528.55 289.96V290.08C528.51 290.847 528.477 291.607 528.45 292.36V292.7C528.45 293.367 528.423 294.06 528.37 294.78V294.94C528.31 296.467 528.263 297.957 528.23 299.41V299.57C528.23 301.02 528.17 302.42 528.15 303.77V303.89C528.15 305.25 528.15 306.55 528.15 307.78C528.15 308.373 528.15 308.953 528.15 309.52V309.63C528.15 310.75 528.22 311.8 528.28 312.77V312.95C528.34 313.89 528.42 314.76 528.51 315.53V315.71C528.55 316.037 528.593 316.347 528.64 316.64V316.8C528.7 317.12 528.75 317.43 528.82 317.7V317.81C528.87 318.04 528.93 318.25 528.99 318.44L529.04 318.61C529.104 318.805 529.181 318.995 529.27 319.18C530.98 322.56 531.8 332.96 532.17 343.97C523.36 332.59 516.9 323.28 516.9 323.28L516.91 323.3ZM391.09 592.05V563.22L404.53 574.36L404.72 592.07C400.42 592.49 395.85 593.07 391.08 593.69L391.09 592.05ZM391.09 442.33C394.57 441.89 397.99 441.33 401.3 440.79C401.793 443.264 401.981 445.79 401.86 448.31V463.56H402.55C398.591 466.069 394.766 468.782 391.09 471.69V442.34V442.33ZM304.15 554.82L259.94 600.49L288.56 543.84C293.625 546.659 298.409 549.954 302.85 553.68C303.3 554.05 303.72 554.49 304.15 554.82ZM152.67 622.63C152.67 622.48 152.67 622.33 152.67 622.18L230.85 623.56C230.976 625.369 231.483 627.131 232.34 628.73L169.01 674.16C158.367 659.086 152.659 641.083 152.67 622.63V622.63ZM243.93 712.94C232.132 712.953 220.442 710.692 209.5 706.28L235.13 632.28C237.498 634.398 240.553 635.588 243.73 635.63L248.73 712.8C247.14 712.89 245.54 712.94 243.93 712.94ZM291.55 699.66L250.76 634.59C252.327 633.923 253.75 632.958 254.95 631.75L319.85 672.69C312.475 683.618 302.82 692.819 291.55 699.66V699.66ZM456.73 584.59C454.365 583.922 451.918 583.585 449.46 583.59H448.64H447.82C443.663 583.578 439.562 584.548 435.85 586.42C434.11 575.68 433.23 562 437.12 551.47C439.436 545.109 441.176 538.552 442.32 531.88L450.67 484.66L606.04 431.94L607.94 437.2L456.73 584.59ZM590.46 623.04C590.46 622.89 590.46 622.74 590.46 622.59L667.99 623.96C668.562 625.736 669.264 627.467 670.09 629.14L606.76 674.57C596.131 659.491 590.437 641.488 590.46 623.04V623.04ZM681.72 713.35C669.922 713.363 658.232 711.102 647.29 706.69L672.92 632.69C675.288 634.808 678.343 635.998 681.52 636.04L686.52 713.22C684.927 713.307 683.327 713.35 681.72 713.35V713.35ZM729.35 700.08L688.16 634.38C689.498 633.633 690.696 632.659 691.7 631.5L757.7 673.11C750.309 684.043 740.637 693.244 729.35 700.08V700.08Z" fill="url(#paint0_linear)"/>
<path id="Vector_22" d="M354.48 491.99C354.48 491.99 379.27 478.91 388.85 470.49C394.617 465.444 400.818 460.917 407.38 456.96L438.48 438.03L503.48 433.03L506.48 444.03C506.48 444.03 511.48 460.03 461.48 474.03C411.48 488.03 386.48 510.03 386.48 510.03C386.48 510.03 354.48 520.99 354.48 491.99Z" fill="#DB8B8B"/>
<path id="Vector_23" opacity="0.1" d="M389.13 507.86C387.36 509.21 386.48 509.99 386.48 509.99C386.48 509.99 354.48 520.99 354.48 491.99C354.48 491.99 356.03 491.17 358.48 489.8C360.955 493.831 364.423 497.16 368.551 499.469C372.679 501.778 377.33 502.99 382.06 502.99H385.45L389.13 507.86Z" fill="black"/>
<path id="Vector_24" opacity="0.05" d="M505.54 449.55C502.76 455.44 493.17 465.12 461.48 473.99C420.87 485.36 396.75 501.99 389.13 507.86C387.36 509.21 386.48 509.99 386.48 509.99C386.48 509.99 354.48 520.99 354.48 491.99C354.48 491.99 356.03 491.17 358.48 489.8C365.91 485.73 381.64 476.8 388.82 470.45C394.586 465.403 400.787 460.875 407.35 456.92L438.45 437.99L450.03 437.1L503.45 432.99L506.45 443.99C506.45 443.99 507.15 446.14 505.54 449.55Z" fill="black"/>
<path id="Vector_25" d="M354.98 485.49L328.48 502.99L406.08 567.99C406.08 567.99 417.48 560.99 411.48 552.99C411.48 552.99 391.48 535.99 390.48 511.99L384.48 503.99H381.09C375.358 503.991 369.767 502.211 365.089 498.897C360.412 495.583 356.88 490.898 354.98 485.49V485.49Z" fill="#ABB1D1"/>
<path id="Vector_26" opacity="0.1" d="M505.54 449.55C489.54 441.82 450.48 440.99 450.48 440.99L450.06 437.1L503.48 432.99L506.48 443.99C506.48 443.99 507.15 446.14 505.54 449.55Z" fill="black"/>
<path id="Vector_27" d="M450.48 438.99C450.48 438.99 497.48 439.99 509.48 449.99L503.48 328.99H438.48L450.48 438.99Z" fill="#ABB1D1"/>
<path id="Vector_28" opacity="0.05" d="M450.48 438.49C450.48 438.49 497.48 439.49 509.48 449.49L503.48 328.49H438.48L450.48 438.49Z" fill="black"/>
<path id="Vector_29" d="M488.24 364.95C488.24 364.95 605.89 360.95 608.29 376.16C610.69 391.37 490.64 384.96 490.64 384.96C490.64 384.96 481.04 375.35 488.24 364.95Z" fill="#535461"/>
<path id="Vector_30" opacity="0.05" d="M488.24 364.95C488.24 364.95 605.89 360.95 608.29 376.16C610.69 391.37 490.64 384.96 490.64 384.96C490.64 384.96 481.04 375.35 488.24 364.95Z" fill="black"/>
<path id="Vector_31" d="M393 425.78H372.19V606.66H393V425.78Z" fill="#6C63FF"/>
<path id="Vector_32" opacity="0.1" d="M393 425.77V439.7C386.08 440.6 379 441.17 372.19 441.39V425.77H393Z" fill="black"/>
<path id="Vector_33" d="M391.44 410.78C388.52 410.554 385.616 410.164 382.74 409.61C371.46 407.45 343.02 402.92 335.37 410.61C325.77 420.21 328.97 437.02 354.58 439.42C380.19 441.82 424.21 435.42 433.02 425.81C433.02 425.77 417.09 412.75 391.44 410.78Z" fill="#535461"/>
<path id="Vector_34" d="M387.4 475.4L605.9 407.37L613.1 424.18L389 501.01L387.4 475.4Z" fill="#6C63FF"/>
<path id="Vector_35" d="M452.23 582.65L609.9 427.38L618.7 440.18L468.23 597.05L452.23 582.65Z" fill="#6C63FF"/>
<path id="Vector_36" opacity="0.1" d="M653.58 529.85C648.584 531.142 643.712 532.872 639.02 535.02L629.46 508.31C634.477 506.123 639.644 504.295 644.92 502.84L653.58 529.85Z" fill="black"/>
<path id="Vector_37" d="M680.33 608.26L669.13 614.66L590.99 396.33L587.49 386.56L605.9 376.15L610.51 390.53L680.33 608.26Z" fill="#6C63FF"/>
<path id="Vector_38" opacity="0.1" d="M610.51 390.53L590.99 396.33L587.49 386.56L605.9 376.15L610.51 390.53Z" fill="black"/>
<path id="Vector_39" d="M491.44 407.37L601.09 369.75C601.09 369.75 620.3 372.15 613.09 388.16L502.65 420.97C502.65 420.97 485.85 422.57 491.44 407.37Z" fill="#535461"/>
<path id="Vector_40" d="M252.94 606.66L378.59 475.4L382.6 505.81L259.34 618.66L252.94 606.66Z" fill="#6C63FF"/>
<path id="Vector_41" d="M565.48 246.99L563.1 277.1C562.826 280.914 562.876 284.744 563.25 288.55C563.56 291.92 563.25 297.82 559.95 306.82C555.713 318.317 553.523 330.467 553.48 342.72V376.99L530.48 372.99C530.48 372.99 531.48 324.99 527.48 316.99C523.48 308.99 530.48 237.99 530.48 237.99L565.48 246.99Z" fill="#DB8B8B"/>
<path id="Vector_42" opacity="0.05" d="M564.3 261.91L563.1 277.1C562.83 280.911 562.883 284.738 563.26 288.54C563.57 291.91 563.26 297.81 559.96 306.82C555.723 318.317 553.533 330.467 553.49 342.72V376.99L530.49 372.99C530.49 372.99 531.49 324.99 527.49 316.99C524.66 311.32 527.34 274.05 529.15 252.78C529.9 244.03 530.49 237.99 530.49 237.99L565.49 246.99L564.3 261.91Z" fill="black"/>
<path id="Vector_43" d="M451.5 476.99L442.85 526.19C441.759 532.759 440.086 539.218 437.85 545.49C432.78 559.35 436.02 578.78 438.48 589.38C439.57 594.06 440.48 597.02 440.48 597.02L414.48 611.02L406.48 605.02V601.02L405.48 512.02C399.48 498.02 401.48 477.02 405.48 469.02C406.617 466.392 407.417 463.63 407.86 460.8C409.86 450.08 410.48 435.02 410.48 435.02C410.48 435.02 426.48 408.02 445.48 426.02C452.48 432.65 455.14 441.32 455.7 449.62C456.68 463.83 451.5 476.99 451.5 476.99Z" fill="#DB8B8B"/>
<path id="Vector_44" opacity="0.1" d="M455.7 449.59C441.83 457.83 417.7 460.16 407.86 460.77C409.86 450.05 410.48 434.99 410.48 434.99C410.48 434.99 426.48 407.99 445.48 425.99C452.48 432.62 455.14 441.29 455.7 449.59Z" fill="black"/>
<path id="Vector_45" d="M489.48 424.99C478.846 430.653 468.797 437.352 459.48 444.99C443.48 457.99 403.48 458.99 403.48 458.99V443.99C404.48 425.99 387.48 405.99 364.48 349.99C349.79 314.23 353.86 293.99 358.72 283.99C361.48 278.34 364.48 275.99 364.48 275.99L489.48 299.99L493.95 313.39L503.48 341.99C503.48 341.99 468.48 343.99 462.48 346.99C456.48 349.99 460.48 376.99 460.48 376.99C454.48 404.99 489.48 424.99 489.48 424.99Z" fill="#ABB1D1"/>
<path id="Vector_46" opacity="0.1" d="M565.48 246.99L564.3 261.91C546.9 266.91 534.48 250.99 534.48 250.99C532.665 251.477 530.882 252.074 529.14 252.78C529.89 244.03 530.48 237.99 530.48 237.99L565.48 246.99Z" fill="black"/>
<path id="Vector_47" opacity="0.1" d="M493.95 313.39C493.48 318.06 493.48 320.99 493.48 320.99C493.48 320.99 470.48 339.99 431.48 310.99C392.48 281.99 357.48 289.99 357.48 289.99C357.48 289.99 357.89 287.67 358.72 283.99C361.48 278.34 364.48 275.99 364.48 275.99L489.48 299.99L493.95 313.39Z" fill="black"/>
<path id="Vector_48" d="M578.96 207.94C576.35 228.29 575.48 253.94 575.48 253.94C552.48 271.94 534.48 248.94 534.48 248.94C512.76 254.77 502.55 273.78 497.74 290.37C495.164 299.344 493.732 308.607 493.48 317.94C493.48 317.94 487.4 322.94 476.2 323.94C465.61 324.83 450.43 322.07 431.48 307.94C392.48 278.94 357.48 286.94 357.48 286.94C357.48 286.94 364.48 246.94 380.48 234.94C396.48 222.94 408.48 207.94 428.48 161.94C448.48 115.94 489.48 126.94 489.48 126.94C489.48 126.94 491.48 117.94 528.48 126.94C537.492 129.302 545.834 133.721 552.85 139.85C572.64 156.49 582.24 182.3 578.96 207.94Z" fill="white"/>
<path id="Vector_49" d="M541.85 149.49C541.8 150.82 541.69 152.3 541.51 153.95C539.51 171.95 537.51 169.95 515.51 173.95C501.83 176.44 494.72 165.01 491.3 156.01C490.062 152.75 489.128 149.382 488.51 145.95L536.51 137.95C536.51 137.95 542.26 136.34 541.85 149.49Z" fill="#DB8B8B"/>
<path id="Vector_50" opacity="0.05" d="M497.74 290.42C495.164 299.394 493.732 308.657 493.48 317.99C493.48 317.99 487.4 322.99 476.2 323.99C475.884 323.353 475.643 322.682 475.48 321.99C473.48 312.99 458.48 296.99 458.48 296.99C448.48 287.99 446.48 271.99 446.48 271.99L429.98 223.49L424.48 218.99C424.48 218.99 447.48 200.99 467.48 215.99C487.48 230.99 481.48 262.99 481.48 262.99L485.48 273.99C489.63 277.49 493.85 283.66 497.74 290.42Z" fill="black"/>
<path id="Vector_51" d="M427.48 217.99L449.48 270.99C449.48 270.99 451.48 286.99 461.48 295.99C461.48 295.99 476.48 311.99 478.48 320.99C480.48 329.99 508.48 353.99 508.48 353.99C508.48 353.99 534.48 377.99 536.48 386.99C536.48 386.99 560.48 393.99 557.48 407.99C557.48 407.99 575.48 389.99 557.48 372.99C539.48 355.99 515.48 320.99 515.48 320.99C515.48 320.99 501.48 283.99 488.48 272.99L484.48 261.99C484.48 261.99 490.48 229.99 470.48 214.99C450.48 199.99 427.48 217.99 427.48 217.99Z" fill="#DB8B8B"/>
<path id="Vector_52" opacity="0.1" d="M470.48 175.99L484.48 230.99C484.48 230.99 441.48 237.99 432.48 230.99C423.48 223.99 406.48 221.99 406.48 221.99C406.48 221.99 424.48 169.99 434.48 163.99C444.48 157.99 470.48 175.99 470.48 175.99Z" fill="black"/>
<path id="Vector_53" d="M470.48 173.99L484.48 228.99C484.48 228.99 441.48 235.99 432.48 228.99C423.48 221.99 406.48 219.99 406.48 219.99C406.48 219.99 424.48 167.99 434.48 161.99C444.48 155.99 470.48 173.99 470.48 173.99Z" fill="white"/>
<path id="Vector_54" opacity="0.1" d="M541.85 148.49C539.049 152.356 535.487 155.609 531.383 158.047C527.278 160.485 522.718 162.058 517.983 162.669C513.248 163.28 508.439 162.915 503.85 161.598C499.261 160.281 494.99 158.039 491.3 155.01C490.062 151.75 489.128 148.382 488.51 144.95L536.51 136.95C536.51 136.95 542.26 135.34 541.85 148.49Z" fill="black"/>
<path id="Vector_55" d="M548.48 126.99C548.48 136.273 544.793 145.175 538.229 151.739C531.665 158.303 522.763 161.99 513.48 161.99C504.197 161.99 495.295 158.303 488.731 151.739C482.168 145.175 478.48 136.273 478.48 126.99C478.48 126.41 478.48 125.83 478.48 125.25C478.711 115.967 482.62 107.157 489.346 100.756C496.073 94.3555 505.067 90.8893 514.35 91.12C523.633 91.3508 532.443 95.2595 538.844 101.986C545.245 108.713 548.711 117.707 548.48 126.99V126.99Z" fill="#DB8B8B"/>
<path id="Vector_56" opacity="0.1" d="M548.48 126.99C548.483 130.216 548.039 133.426 547.16 136.53C544.455 137.12 541.633 136.861 539.08 135.79C535.34 134.32 532.13 131.79 528.54 129.97C518.43 124.85 506.4 125.86 495.2 127.55C489.64 128.39 483.33 129.17 478.96 125.63C478.81 125.511 478.666 125.385 478.53 125.25C478.761 115.967 482.67 107.157 489.396 100.756C496.123 94.3555 505.117 90.8893 514.4 91.12C523.683 91.3508 532.493 95.2595 538.894 101.986C545.295 108.713 548.761 117.707 548.53 126.99H548.48Z" fill="black"/>
<path id="Vector_57" opacity="0.05" d="M384.98 234.49C384.98 234.49 410.98 241.49 418.98 259.49C426.98 277.49 448.62 280.78 448.62 280.78" fill="black"/>
</g>
<path id="Vector_58" d="M482.98 630.49H422.98V649.49H482.98V630.49Z" fill="#6C63FF"/>
<path id="Vector_59" opacity="0.1" d="M482.98 630.49H422.98V649.49H482.98V630.49Z" fill="black"/>
<path id="Vector_60" d="M431.99 595.23C437.36 592.23 442.07 589.23 442.48 587.99C442.48 587.99 456.03 602.29 468.1 606.73C472.159 608.229 476.044 610.16 479.69 612.49C484.47 615.49 491.29 619.02 497.48 619.02C497.48 619.02 511.48 631.02 484.48 633.02C457.48 635.02 394.48 628.02 394.48 628.02L398.48 603.02C410.167 603.705 421.804 601 431.99 595.23Z" fill="#ABB1D1"/>
</g>
</g>
<defs>
<linearGradient id="paint0_linear" x1="463.23" y1="743.05" x2="463.23" y2="60.49" gradientUnits="userSpaceOnUse">
<stop stop-color="#808080" stop-opacity="0.25"/>
<stop offset="0.54" stop-color="#808080" stop-opacity="0.12"/>
<stop offset="1" stop-color="#808080" stop-opacity="0.1"/>
</linearGradient>
<clipPath id="clip0">
<rect width="1057.7" height="784.98" fill="white"/>
</clipPath>
</defs>
</svg>
