<svg xmlns="http://www.w3.org/2000/svg" viewBox="0 0 210 297" height="297mm" width="210mm">
  <path d="M84.463 120.941l-11.928 6.887v-8.233l11.928-6.887v8.233M135.998 150.695l-11.928 6.886v-8.233l11.928-6.886v8.233" fill="#1d1715"/>
  <path d="M131.12 149.895l8.467 14.664-4.238 2.446-8.465-14.663 4.237-2.447" fill="#2f2e29"/>
  <path d="M127.335 157.49c0-2.412 1.693-3.39 3.782-2.184 2.088 1.206 3.782 4.14 3.782 6.551 0 2.413-1.694 3.39-3.783 2.184s-3.781-4.14-3.781-6.551zm8.281 9.34c.927-.682 1.493-1.948 1.493-3.697 0-1.91-.67-4.028-1.755-5.906-1.085-1.878-2.583-3.517-4.237-4.473-1.514-.874-2.894-1.016-3.949-.556-1.25.546-2.043 1.944-2.043 4.016 0 3.33 2.037 7.283 4.75 9.51.4.33.815.622 1.241.868 1.795 1.037 3.402 1.049 4.5.239" fill="#444443"/>
  <path d="M128.52 158.174c-.001-1.657 1.162-2.329 2.597-1.5 1.434.828 2.597 2.842 2.598 4.5-.001 1.656-1.164 2.327-2.599 1.5-1.434-.83-2.597-2.843-2.596-4.5zm6.379 3.683c0-2.412-1.694-5.345-3.782-6.551-2.089-1.206-3.782-.228-3.782 2.184 0 2.412 1.692 5.345 3.781 6.55 2.09 1.207 3.783.23 3.783-2.183" fill="#9d9d9c"/>
  <path d="M133.715 161.173c-.001-1.657-1.164-3.67-2.598-4.499-1.435-.829-2.598-.157-2.597 1.5-.001 1.657 1.162 3.67 2.596 4.5 1.435.827 2.598.156 2.599-1.5" fill="#fff"/>
  <path d="M75.745 127.696c0-2.412 1.693-3.39 3.782-2.184 2.089 1.207 3.782 4.139 3.782 6.551 0 2.413-1.693 3.39-3.782 2.184-2.09-1.206-3.782-4.139-3.782-6.551zm8.281 9.341c.927-.684 1.493-1.95 1.493-3.698 0-1.91-.67-4.027-1.755-5.906-1.085-1.878-2.583-3.518-4.237-4.472-1.515-.875-2.894-1.017-3.949-.556-1.25.546-2.043 1.943-2.043 4.015 0 3.329 2.037 7.283 4.75 9.51.4.33.816.622 1.242.869 1.794 1.036 3.4 1.047 4.5.238" fill="#444443"/>
  <path d="M76.93 128.38c0-1.656 1.162-2.328 2.597-1.5 1.434.828 2.597 2.843 2.598 4.5 0 1.656-1.164 2.328-2.598 1.5-1.435-.83-2.598-2.844-2.598-4.5zm6.38 3.683c0-2.412-1.694-5.344-3.783-6.55-2.089-1.207-3.782-.23-3.782 2.183 0 2.412 1.693 5.345 3.782 6.551 2.089 1.207 3.782.229 3.782-2.184" fill="#9d9d9c"/>
  <path d="M82.125 131.38c0-1.657-1.164-3.672-2.598-4.5-1.435-.828-2.598-.156-2.598 1.5s1.163 3.67 2.598 4.5c1.434.828 2.597.156 2.598-1.5" fill="#fff"/>
  <path d="M174.159 138.991L172.362 135l-10.716-23.845c-.842-1.857-1.963-3.553-3.243-4.95-.994-1.088-2.085-1.993-3.206-2.642l-59.09-34.114c-1.86-1.077-2.942-1.542-3.565-1.027L62.67 85.655l31.347 17.986 8.472 4.86 12.202 7.002 13.558 7.775.442.485a18.76 18.76 0 012.24 3.19c.274.481.522.977.75 1.478l10.726 23.864 1.794 3.992c.239.529.4 1.07.477 1.574 12.07-4.225 22.503-9.66 29.954-17.294a5.932 5.932 0 00-.473-1.576" fill="#ff8521"/>
  <path d="M61.686 115.592l1.063.614v-8.176l-1.399-.808c-.808-.466-1.48-.134-1.54.763l-.248 3.739c-.092 1.373.886 3.154 2.124 3.868" fill="#f66232"/>
  <path d="M66.153 86.743l59.09 34.114c1.211.7 2.39 1.7 3.448 2.906a19.137 19.137 0 012.99 4.668l10.726 23.864 1.794 3.992c.239.529.4 1.07.477 1.575.038.236.057.465.055.681l.001 7.563a6.898 6.898 0 01-.014.342c-.012.11-.028.213-.048.309l-.032.146c-.042.188-.112.36-.198.512-.06.115-.132.217-.212.307-.105.12-.226.219-.36.296a1.457 1.457 0 01-.557.18 1.407 1.407 0 01-.247.012c-.132 0-.267-.015-.404-.048l-.139-.037a3.045 3.045 0 01-.736-.317l-4.936-2.847.258-2.258c.001-1.461.056-3.338-.61-4.842-.03-.075-1.35-.404-1.386-.482-1.093-2.373-2.87-4.53-4.88-5.689l-.122-.071c-2.072-1.198-3.899-1.045-4.986.161-1.325.258-2.177 1.371-2.175 2.83l1.12 2.971-39.332-22.71-.001-2.473c.001-1.461-.388-3.039-1.054-4.542-1.088-2.46-2.916-4.725-4.986-5.92l-.12-.07c-2.072-1.198-3.9-1.045-4.987.16-.665.736-1.054 1.867-1.056 3.328l.001 2.474-.81-.467-2.33-1.345c-.155-.089-.308-.184-.461-.278-3.238-2.013-6.022-5.796-7.41-9.736l-.045-.12a9.055 9.055 0 01-.15-.453l-.031-.104a14.94 14.94 0 01-.143-.476c-.39-1.357-.602-2.718-.602-4.019l.22-3.813 1.034-17.766c.141-4.39.926-4.487 4.346-2.508" fill="#e05a00"/>
  <path d="M128.249 123.278v-17.636a3.182 3.182 0 00-1.592-2.756L83.33 77.873a1.007 1.007 0 00-1.509.814l-.732 17.86a2.636 2.636 0 001.313 2.435l43.966 25.383a1.254 1.254 0 001.88-1.087" fill="#ff8521"/>
  <path d="M144.678 157.861l-.882-.51a11.26 11.26 0 00-1.39-.678c-1.708-.698-3.328-.802-4.667-.297l-2.626 1.003c.035.077.072.153.107.231.663 1.503 1.053 3.08 1.053 4.54v2.476l5.514 3.184c.813.47 1.55.514 2.083.205.534-.307.864-.968.864-1.907v-7.564c0-.217-.019-.445-.056-.683" fill="#0e586b"/>
  <path d="M144.678 157.862c12.18-4.298 22.65-9.74 29.954-17.295.038.237.057.465.056.682v7.563c.004.941-.437 1.466-.86 1.91-6.623 6.954-17.068 11.77-29.957 17.296l.807-10.156" fill="#21758a"/>
  <path d="M73.588 122.028l-2.916-1.683-9.52-5.497c1.282 4.497 4.486 8.999 8.243 11.168l2.33 1.345.81.467v-2.476c0-1.459.39-2.587 1.053-3.324M83.684 127.857c.663 1.502 1.053 3.08 1.053 4.54v2.476l39.335 22.709v-2.476c0-1.459.389-2.588 1.053-3.324l-41.441-23.925" fill="#0e586b"/>
  <path d="M116.244 149.796c0 .609.428 1.349.954 1.653l2.2 1.27c.968.559 1.767.207 1.957-.782.659-3.43 3.251-4.937 6.546-3.814 1 .342 1.693-.322 1.693-1.5V127.47c0-.794-.557-1.76-1.244-2.156l-10.86-6.27c-.688-.398-1.245-.075-1.245.718v30.033" fill="#ff8521"/>
  <path d="M169.736 131.147c-.215.24-.439.476-.68.712-5.8 5.904-16.145 10.958-27.858 15.763l-1.341-2.98-7.396-16.455-.05-.117c-.088-.192-.178-.379-.268-.561 11.734-4.656 21.79-9.946 28.539-16.48.073.147.146.293.21.444l7.454 16.576 1.39 3.098" fill="#21758a"/>
  <path d="M165.451 129.179c-6.497-7.364-17.215-7.476-18.53-7.476h-.129c5.586-2.989 10.104-6.074 13.627-9.309l7.166 15.95c-.66.253-1.458.554-2.134.835" fill="#649fad"/>
  <path d="M90.409 71.285c-.389.225-.389.589 0 .814l60.165 34.737c.39.225 1.02.225 1.409 0 .389-.224.389-.589 0-.813L91.817 71.285c-.388-.224-1.02-.224-1.408 0" fill="#e05a00"/>
  <path d="M141.198 147.622l-1.341-2.98c5.48-3.887 10.79-7.364 15.628-10.21-.008-.076-.008-.154-.008-.232 0-2.248 1.525-4.894 3.477-6.021.59-.342 1.17-.512 1.72-.512 1.089 0 1.906.687 2.22 1.789.305-.057.602-.086.89-.086.333 0 .652.04.951.122.21-.099.454-.204.716-.313.78.883 1.498 1.87 2.133 2.976.226-.21.447-.42.66-.63v-.008l.243-.239.073-.074c.074-.071.144-.142.214-.215l-1.189-2.644c.287-.11.548-.21.76-.296l1.391 3.098c-.22.224-.447.464-.68.712-5.8 5.904-16.145 10.958-27.858 15.763m19.475-18.731c-.324 0-.711.122-1.105.353-1.41.814-2.623 2.761-2.827 4.452l.095-.052c1.121-1.692 3.024-3.172 4.882-3.863-.126-.451-.41-.89-1.045-.89" fill="#196479"/>
  <path d="M167.584 132.155a18.145 18.145 0 00-2.133-2.976c.676-.28 1.474-.582 2.134-.834l1.189 2.644c-.07.073-.14.144-.214.215l-.073.074-.243.24v.006c-.213.21-.434.421-.66.63" fill="#4d8898"/>
  <path d="M155.903 161.009a.482.482 0 01-.214-.916c4.681-2.312 8.534-4.504 11.78-6.701a.484.484 0 01.541.8c-3.282 2.222-7.172 4.435-11.893 6.766a.477.477 0 01-.214.05M155.903 159.373a.482.482 0 01-.214-.916c4.684-2.315 8.537-4.506 11.78-6.701a.483.483 0 01.541.8c-3.279 2.22-7.17 4.433-11.893 6.767a.489.489 0 01-.214.05M155.903 157.737a.482.482 0 01-.214-.917c4.684-2.314 8.537-4.506 11.78-6.701a.484.484 0 01.541.8c-3.278 2.22-7.168 4.434-11.893 6.768a.477.477 0 01-.214.05M155.903 156.01a.482.482 0 01-.214-.915c4.684-2.315 8.537-4.506 11.78-6.702a.483.483 0 01.541.8c-3.278 2.22-7.168 4.434-11.893 6.768a.477.477 0 01-.214.05" fill="#032936"/>
  <path d="M173.405 140.023c-1.711-1.955-3.855-2.95-6.345-2.95-1.256 0-2.599.253-4.02.763 2.69-1.41 5.172-3.388 6.875-5.3l3.49 7.487" fill="#ff943c"/>
  <path d="M152.823 158.893c-.163-1.84-1.67-2.707-3.364-1.94-1.694.768-2.934 2.881-2.771 4.721.163 1.839 1.67 2.707 3.364 1.94 1.694-.768 2.935-2.882 2.771-4.721" fill="#dadada"/>
  <path d="M153.489 159.277c-.163-1.84-1.67-2.708-3.364-1.94-1.694.768-2.934 2.882-2.771 4.72.163 1.84 1.67 2.708 3.364 1.94 1.694-.768 2.934-2.881 2.771-4.72" fill="#fff"/>
  <path d="M150.177 157.91a2.816 2.816 0 00-.206.104c-1.227.667-2.12 2.189-2.097 3.577-.002.076.003.152.01.227.135 1.523 1.382 2.242 2.782 1.605 1.404-.635 2.431-2.385 2.294-3.908-.133-1.521-1.38-2.24-2.783-1.604" fill="#f2b345"/>
  <path d="M149.97 158.014c-1.226.667-2.119 2.189-2.096 3.577.333.538.99.72 1.702.398.969-.441 1.68-1.652 1.587-2.704-.068-.777-.553-1.25-1.192-1.271" fill="#fff"/>
  <path d="M173.59 146.251c-.062-1.668-1.09-2.374-2.295-1.578-1.205.796-2.264 3.023-2.202 4.69.061 1.667 1.279 2.27 2.484 1.474s2.075-2.919 2.013-4.586" fill="#dadada"/>
  <path d="M174.043 146.563c-.061-1.668-1.089-2.374-2.293-1.578-1.206.795-2.133 2.792-2.071 4.46.062 1.667 1.09 2.374 2.294 1.578 1.206-.796 2.132-2.792 2.07-4.46" fill="#fff"/>
  <path d="M171.77 145.505l-.148.105c-.875.679-1.543 2.116-1.566 3.38-.004.07-.002.138 0 .207.051 1.38.901 1.966 1.898 1.306.997-.659 1.765-2.312 1.713-3.692-.05-1.38-.9-1.965-1.897-1.306" fill="#f2b345"/>
  <path d="M171.622 145.61c-.875.679-1.543 2.116-1.566 3.38.217.472.67.6 1.178.267.688-.458 1.22-1.6 1.185-2.555-.026-.704-.351-1.107-.797-1.092M85.843 107.914l1.28.739v.978l-1.28-.739v2.007l1.61.93v.979l-2.543-1.469v-6.85l2.544 1.467v.98l-1.611-.93v1.908M88.284 106.437l.933.537v5.873l1.533.885v.978l-2.466-1.423v-6.85M92.344 111.667l1.28.74v.978l-1.28-.74v2.007l1.61.93v.978l-2.543-1.467v-6.852l2.544 1.468v.979l-1.61-.93v1.909M97.489 116.047v.91c0 1.096-.475 1.448-1.39.92-.916-.529-1.39-1.43-1.39-2.525v-3.563c0-1.096.474-1.448 1.39-.92.915.528 1.39 1.429 1.39 2.525v.665l-.882-.508v-.735c0-.488-.186-.782-.483-.954-.296-.17-.482-.093-.482.397v3.7c0 .49.185.772.482.944.297.172.483.102.483-.386v-.979l.882.509M98.04 112.068l2.882 1.664v.978l-.975-.562v5.873l-.933-.54v-5.871l-.974-.563v-.979M102.515 115.631v2.103l.365.211c.348.201.56.148.56-.4v-.676c0-.49-.145-.788-.475-.979zm1.017 6.46c-.05-.207-.084-.334-.084-.891v-1.077c0-.636-.187-.979-.61-1.223l-.323-.186v2.79l-.932-.539v-6.85l1.407.81c.967.56 1.381 1.318 1.381 2.375v.537c0 .705-.195 1.053-.61 1.038.467.495.62 1.101.62 1.816l-.001 1.057c0 .332.009.582.102.89l-.95-.547M105.245 116.228l.932.538v6.851l-.932-.538v-6.851M109.814 123.162v.91c0 1.097-.476 1.45-1.39.92-.916-.528-1.39-1.429-1.39-2.525v-3.562c0-1.096.474-1.45 1.39-.92.915.528 1.39 1.429 1.39 2.525v.665l-.882-.508v-.735c0-.49-.187-.783-.483-.954-.296-.171-.484-.094-.484.396v3.7c0 .49.187.774.483.944.297.172.484.104.484-.386v-.98l.882.51M89.021 115.592c.907.523 1.373 1.418 1.373 2.514v.216l-.881-.51v-.282c0-.49-.17-.774-.467-.945-.296-.171-.466-.083-.466.406 0 1.41 1.823 2.725 1.823 4.683 0 1.097-.475 1.449-1.39.92-.916-.529-1.39-1.429-1.39-2.525v-.42l.881.508v.489c0 .49.187.774.483.946.297.17.484.102.484-.388 0-1.409-1.823-2.726-1.823-4.683 0-1.096.467-1.453 1.373-.93M92.123 120.347l1.28.74v.978l-1.28-.74v2.008l1.61.929v.98l-2.542-1.468v-6.851l2.543 1.467v.979l-1.61-.93v1.908M95.497 120.387v2.105l.364.21c.348.2.56.147.56-.401v-.676c0-.488-.144-.788-.474-.98zm1.017 6.46c-.05-.206-.084-.333-.084-.89v-1.077c0-.637-.187-.98-.611-1.224l-.322-.186v2.79l-.933-.539v-6.85l1.408.811c.966.558 1.38 1.316 1.38 2.374v.537c0 .705-.194 1.053-.61 1.039.467.494.62 1.1.62 1.815v1.057c0 .333.009.583.101.89l-.95-.547M99.616 127.376l.712-5.178.856.494-.915 6.322-1.39-.802-.916-7.38.941.544.712 6M101.87 123.088l.933.539v6.851l-.932-.539v-6.851M106.44 130.022v.91c0 1.096-.476 1.449-1.39.921-.916-.53-1.39-1.43-1.39-2.526v-3.562c0-1.097.474-1.449 1.39-.92.914.529 1.39 1.428 1.39 2.525v.665l-.882-.509v-.733c0-.49-.186-.783-.483-.954-.297-.172-.483-.093-.483.396v3.7c0 .489.186.773.483.944.297.172.483.103.483-.387v-.978l.881.508M108.194 129.626l1.28.74v.979l-1.28-.74v2.007l1.61.93v.978l-2.542-1.468v-6.85l2.543 1.466v.98l-1.61-.93v1.908M79.64 110.985l3.452.418L74.9 97.748l-2.203.86 7.318 10.581-3.507-.417 7.64 10.322-1.46-.572 3.492 3.067-1.988-4.771.297 2.057-4.848-7.89" fill="#fff"/>
  <path d="M74.393 107.613l2.629.051-5.698-8.52-1.59.622 4.842 6.366-2.671-.044 6.337 7.702-1.134-.34 2.806 2.186-1.764-3.69.338 1.638-4.095-5.97" fill="#fff"/>
  <path d="M73.486 109.833l-3.704-4.705 2.091-.258-3.453-4.591-1.206.47 2.6 3.075-2.123.268 5.616 5.948-.926-.166 2.393 1.574-1.68-2.996.392 1.381" fill="#fff"/>
</svg>
