<svg width="119" height="100" viewBox="0 0 119 100" fill="none" xmlns="http://www.w3.org/2000/svg">
<g id="man-carrying-wire">
<g id="wire-on-wall 1">
<g clip-path="url(#clip0)">
<g id="wall">
<path id="path975" d="M89.8021 50.448V51.597L91.1871 52.396V51.248L89.8021 50.448ZM92.7921 52.037V53.184L94.1771 53.984V52.836L92.7921 52.036" fill="white"/>
<path id="path923" d="M113.662 26.885L118.303 24.187L118.1 95.752L113.459 98.449L113.662 26.885Z" fill="#FF8521"/>
<path id="path925" d="M71.7671 2.69701L76.4091 0L118.303 24.187L113.662 26.885L71.7671 2.69701Z" fill="#FF9640"/>
<path id="path927" d="M113.662 26.885L113.459 98.449L71.5641 74.262L71.7671 2.69701L113.662 26.885Z" fill="#E05A00"/>
<path id="path929" d="M89.8951 24.132V25.281L91.2801 26.08V24.932L89.8951 24.132Z" fill="white"/>
<path id="path973" d="M83.7321 17.328L76.1311 12.94V9.557L83.7321 13.945V17.328ZM110.372 36.716L102.771 32.327V28.945L110.372 33.333V36.716ZM108.58 56.101L100.978 51.713V48.33L108.58 52.72V56.101ZM85.4311 24.187L79.9311 21.012V18.565L85.4311 21.74V24.187ZM89.5521 62.22L84.0531 59.045V56.597L89.5531 59.772V62.22H89.5521ZM78.8811 42.338L73.3811 39.163V36.716L78.8811 39.891V42.338ZM88.1821 43.34L82.6821 40.166V37.718L88.1821 40.893V43.34ZM100.535 39.527L95.0351 36.352V33.905L100.535 37.08V39.527ZM79.9321 66.374L74.4321 63.198V60.752L79.9321 63.927V66.374ZM90.6051 69.328L89.4921 68.685C89.9332 68.145 90.307 67.5533 90.6051 66.923V69.328ZM88.8201 68.298L85.1051 66.152V63.705L89.9671 66.512C89.6665 67.1557 89.2807 67.7571 88.8201 68.298ZM110.279 81.142L104.779 77.967V75.519L110.279 78.694V81.142ZM104.779 45.327L100.763 43.008V41.221L104.779 43.54V45.327ZM90.8191 33.76L86.8031 31.44V29.654L90.8191 31.972V33.76ZM99.4641 70.996L95.4481 68.676V66.889L99.4641 69.209V70.996ZM111.31 63.372L107.294 61.052V59.265L111.31 61.584V63.372ZM101.472 61.113L97.4551 58.795V57.008L101.472 59.326V61.113ZM94.6221 51.278L91.9231 49.72V47.933L94.6211 49.491V51.278H94.6221ZM91.1811 49.292L90.6051 48.959V47.172L91.1821 47.505L91.1811 49.292ZM112.287 42.582L108.271 40.264V38.476L112.287 40.795V42.582ZM77.6621 56.322L73.6451 54.003V52.216L77.6611 54.535L77.6621 56.322ZM79.6691 75.78L75.6531 73.461V71.674L79.6691 73.992V75.78ZM108.795 89.944L104.779 87.624V85.838L108.795 88.156V89.944ZM98.1641 87.89L94.1481 85.572V83.784L98.1641 86.104V87.891V87.89ZM87.7481 78.33L83.7321 76.012V74.224L87.7481 76.544V78.331V78.33ZM100.763 26.81L94.1481 22.992V20.048L100.763 23.868V26.81ZM81.4771 29.654L74.8621 25.834V22.892L81.4771 26.71V29.654ZM85.4311 53.954L78.8171 50.136V47.192L85.4311 51.012V53.954ZM109.302 72.818L101.72 68.441V65.067L109.302 69.444V72.818ZM100.537 82.206L92.9551 77.829L92.9561 74.455L100.537 78.832V82.206Z" fill="#E97500"/>
<path id="path977" d="M92.9271 15.2L92.7561 57.802C92.7561 58 92.6261 58.197 92.3661 58.347C91.8441 58.65 90.9891 58.654 90.4641 58.35C90.2001 58.198 90.0691 57.998 90.0701 57.798L90.2421 15.196C90.2411 15.396 90.3721 15.596 90.6351 15.749C91.1611 16.052 92.0151 16.049 92.5381 15.746C92.7981 15.595 92.9261 15.397 92.9281 15.2" fill="#B2B2B2"/>
<path id="path981" d="M92.7921 51.987V53.154C92.7921 53.351 92.6621 53.549 92.4021 53.699C91.8801 54.003 91.0261 54.006 90.5001 53.702C90.2371 53.55 90.1061 53.35 90.1071 53.15V51.984C90.1061 52.184 90.2371 52.384 90.5001 52.536C91.0261 52.839 91.8801 52.836 92.4031 52.533C92.6631 52.383 92.7921 52.185 92.7931 51.987H92.7921ZM92.8851 25.72V26.868L94.2701 27.668V26.52L92.8851 25.72ZM92.8851 25.671V26.838C92.8851 27.035 92.7551 27.232 92.4951 27.383C91.9731 27.687 91.1181 27.69 90.5931 27.387C90.3291 27.234 90.1991 27.034 90.1991 26.834V25.667C90.1991 25.867 90.3291 26.067 90.5931 26.22C91.1181 26.523 91.9731 26.52 92.4951 26.217C92.7551 26.066 92.8851 25.868 92.8851 25.671Z" fill="white"/>
<path id="path983" d="M92.3911 51.428C92.9161 51.731 92.9191 52.223 92.3971 52.527C91.8751 52.83 91.0201 52.834 90.4941 52.53C89.9691 52.227 89.9711 51.731 90.4941 51.428C91.0151 51.125 91.8651 51.125 92.3911 51.428Z" fill="#B2B2B2"/>
</g>
<g id="man-wire">
<path id="path971" d="M65.8151 65.8884L66.6631 65.2224C66.9331 65.0734 67.2631 65.0734 67.5331 65.2244L70.2961 65.8254L69.5311 67.6565L66.8421 66.6164L65.8151 65.8884Z" fill="#B2B2B2"/>
<path id="path939" d="M64.5531 60.6085C65.8161 59.4655 67.2231 58.9545 68.8111 59.2345L70.9881 63.6255L71.4631 67.0755L69.4461 68.0645C67.9121 67.4875 66.6351 66.7925 65.8161 65.8885L66.0841 63.1205L64.5541 60.6085" fill="#B2B2B2"/>
<path id="path937" d="M69.7581 61.8155L65.8151 62.4605C65.7201 62.3275 65.6191 62.1945 65.5241 62.0625C64.2521 60.2705 63.0941 58.2085 62.0621 55.8155C61.8013 54.6086 61.5732 53.3948 61.3781 52.1755C61.0751 50.2585 60.9041 48.4625 60.9421 46.8675L66.5221 44.0645C67.4271 47.1525 66.8091 49.2465 66.7961 53.7465L69.7581 61.8155Z" fill="#21758A"/>
<path id="path951" d="M62.7821 44.7355C62.7061 44.7355 62.6251 44.7285 62.5411 44.7135C61.6071 44.5995 60.9441 44.0635 60.4891 43.3555C60.7103 43.3856 60.9347 43.3829 61.1551 43.3475L61.9211 42.8165C62.3421 43.0188 62.8065 43.114 63.2731 43.0935C63.5591 43.0785 63.8731 42.9225 64.1951 42.6615C64.0551 43.8735 63.6281 44.7355 62.7821 44.7355Z" fill="#1E6A7D"/>
<path id="path961" d="M64.7821 42.0775C63.4661 41.9875 61.9501 40.7425 61.4691 39.3915L61.6521 39.5445L61.7961 38.6765C62.5261 39.4965 63.7861 39.9215 64.8331 39.9215C65.2381 39.9215 65.6111 39.8575 65.9091 39.7285L66.0081 39.7635C65.9874 40.0263 65.9232 40.2838 65.8181 40.5255C65.6484 40.8465 65.4608 41.1576 65.2561 41.4575C65.1091 41.6725 64.9561 41.8725 64.8031 42.0555L64.7831 42.0775" fill="#E59F6A"/>
<path id="path941" d="M64.5571 60.6065C63.641 59.1367 62.8355 57.6008 62.1471 56.0115L62.0621 55.8155C62.0281 55.6555 61.9941 55.4955 61.9621 55.3355C62.7187 54.0567 63.4278 52.7505 64.0881 51.4195L63.5551 54.3535L65.0501 60.1975C64.8796 60.3262 64.7151 60.4627 64.5571 60.6065Z" fill="#205A68"/>
<path id="path965" d="M61.4251 38.6255C61.4251 38.6255 64.0421 41.6515 65.6851 41.7115C67.8991 41.7915 69.3791 40.7605 69.5951 40.1615C70.1571 38.6165 67.1751 36.8015 67.1751 36.8015C67.0171 37.9535 63.7461 39.0075 61.4251 38.6255Z" fill="#0E586B"/>
<path id="path931" d="M38.5751 91.6135L37.8151 93.9215L37.3611 97.2615V100.329C37.3541 100.869 37.1991 101.261 36.8141 101.422C35.8621 101.703 34.5061 101.517 33.7461 100.815C32.9561 99.8135 33.0971 98.2975 33.2301 96.8985L34.2771 93.4965L34.8701 92.3725L35.9031 90.6425L38.3931 91.6135H38.5751ZM63.2661 91.4915L63.5451 93.5005L65.3421 95.1335L69.9771 96.7765C70.5121 97.3535 70.4151 97.8945 69.9771 98.4165C68.2031 99.1455 65.4291 98.8295 62.4461 98.2945C61.1851 98.6895 59.9741 98.5545 58.8011 97.9915C58.7091 96.6215 58.8121 95.4745 59.1971 94.6515L59.4701 91.9175L63.2661 91.4915Z" fill="black"/>
<path id="path933" d="M34.7841 94.3885C35.8481 95.7585 38.2501 95.7955 38.9711 94.6185C39.9411 91.0365 41.7151 87.6185 43.2821 83.6275L45.2871 80.2235C47.8531 75.4315 49.9771 71.1525 51.3911 66.8015L52.4631 66.8235C53.8841 71.3455 55.4881 75.3835 57.9221 79.2535C57.8751 85.6465 57.4341 93.0595 59.0151 95.2275C59.5331 95.4095 60.0351 95.5075 60.5321 95.5075C61.7011 95.5115 62.8051 94.9505 63.8121 93.5875L63.3881 82.2905C63.7491 80.3615 63.8631 78.3805 63.4291 76.5825C62.4161 71.3565 60.9251 66.0295 58.0021 60.3505C55.2071 61.4265 50.2981 61.5605 46.4931 58.1455C45.7241 58.8635 44.7181 61.0395 44.3761 62.9755C42.0141 67.3735 40.8231 72.8655 40.0651 78.7655C37.4481 81.6595 35.9981 87.0495 34.2921 92.4935C34.2151 93.2885 34.4201 93.9195 34.7841 94.3885Z" fill="#21758A"/>
<path id="path943" d="M46.0171 59.9735L46.0511 60.0975C46.0681 60.1775 46.0911 60.2615 46.1121 60.3335C46.2481 60.7575 47.1111 61.3545 48.3781 61.8105C50.0341 62.3952 51.8025 62.5903 53.5461 62.3805L53.6811 62.3575C55.4171 62.1205 56.7031 62.3275 58.2591 60.8575C59.0591 60.1175 65.9691 49.9775 66.5221 44.3245C66.5951 43.5135 65.9391 42.0945 65.3471 41.5425C62.4841 38.8275 57.7011 38.9955 55.0021 39.1625C54.3291 39.2055 53.7861 39.2475 53.4351 39.2445C51.9321 39.2325 49.4321 42.8525 49.1951 44.1715C49.0771 44.8255 48.9931 45.5125 48.8861 46.2285C48.8351 46.5715 48.7781 46.9045 48.7111 47.2535C48.1581 49.8975 46.7611 54.6875 46.2081 57.3305C46.0341 58.1925 45.8541 59.1055 46.0171 59.9735Z" fill="#21758A"/>
<path id="path953" d="M60.7941 43.3755C60.6911 43.3755 60.5901 43.3695 60.4891 43.3555C59.8691 42.3895 59.6341 41.1015 59.6271 40.1275C59.8151 40.6105 60.0691 41.0825 60.4141 41.5705C60.8361 42.1005 61.3461 42.5455 61.9211 42.8165L61.1551 43.3465C61.0351 43.3665 60.9131 43.3765 60.7941 43.3765" fill="#E59F6A"/>
<path id="path955" d="M62.6241 32.6264C60.4071 32.6484 59.1411 33.6934 59.0551 36.0084C59.1181 38.4414 59.2411 39.9084 60.4151 41.5704C61.1451 42.4884 62.1401 43.1514 63.2731 43.0934C64.6231 43.0254 66.6161 39.7915 66.8081 37.4505C67.1361 35.0855 65.1201 33.2724 62.6241 32.6264Z" fill="#FCAF75"/>
<path id="path957" d="M66.5321 39.1585C66.0301 40.3405 63.0871 40.1255 61.7961 38.6765L61.6521 39.5445L60.4631 38.5575L59.4291 39.9025L59.0551 39.3705C58.1141 37.4805 58.1621 34.3715 60.8441 32.8105C64.4291 31.3705 68.8741 35.5445 66.5321 39.1575" fill="black"/>
<path id="path959" d="M60.1321 39.5735C59.9891 39.3335 59.8671 39.0745 59.8391 38.7995C59.8111 38.5255 59.8891 38.2315 60.0971 38.0495C60.3051 37.8685 60.6531 37.8325 60.8721 38.0105C61.0221 38.1345 61.0911 38.3345 61.0931 38.5255C61.0961 38.7155 61.0431 38.9015 60.9891 39.0845L60.8441 39.5805C60.8111 39.6955 60.7681 39.8205 60.6601 39.8765C60.5611 39.9265 60.4341 39.8965 60.3431 39.8315C60.2556 39.7611 60.1837 39.6733 60.1321 39.5735Z" fill="#FCAF75"/>
<path id="path935" d="M34.7841 94.3885C34.4711 93.9855 34.2761 93.4625 34.2761 92.8195C34.2761 92.7145 34.2811 92.6055 34.2921 92.4935C35.9981 87.0495 37.4481 81.6595 40.0651 78.7665C40.8231 72.8655 42.0151 67.3735 44.3751 62.9745C44.5491 61.9965 44.8911 60.9565 45.2881 60.0745C45.5681 60.1725 45.8481 60.2725 46.1281 60.3745C46.3031 60.7945 47.1511 61.3685 48.3781 61.8105C48.7111 61.9285 49.0711 62.0365 49.4551 62.1325C47.1451 62.9505 40.8601 73.8575 41.7051 79.4365C38.2211 82.8835 36.0551 88.0555 34.7841 94.3885ZM45.9621 59.5265C45.8471 59.4845 45.7311 59.4445 45.6151 59.4045C45.725 59.1961 45.8445 58.9929 45.9731 58.7955C45.9525 59.0386 45.9488 59.2829 45.9621 59.5265ZM60.5321 95.5085C60.0361 95.5085 59.5321 95.4095 59.0151 95.2275C58.0311 93.8785 57.8301 90.5005 57.8301 86.6015C57.8301 84.2315 57.9041 81.6695 57.9221 79.2545C55.4881 75.3845 53.8841 71.3455 52.4621 66.8235L51.3921 66.8015L51.6641 65.2815C51.9231 65.3575 52.1821 65.3915 52.4401 65.3915C53.3501 65.3915 54.2601 64.9535 55.1741 64.2505C54.3111 68.3355 56.2391 73.2265 58.9541 78.3425C58.9711 85.4315 58.9901 92.5055 60.5321 95.5075" fill="#205A68"/>
<path id="path945" d="M49.2771 60.7975C48.1801 60.3532 47.0749 59.9295 45.9621 59.5265C45.956 59.4323 45.9527 59.3379 45.9521 59.2435C45.9541 58.6035 46.0821 57.9535 46.2081 57.3305C46.7611 54.6875 48.1581 49.8975 48.7111 47.2535C48.7781 46.9045 48.8351 46.5715 48.8861 46.2285C48.9931 45.5125 49.0761 44.8255 49.1961 44.1715L53.5051 43.8675C49.9951 48.3475 49.3481 53.2835 49.1901 58.0735C49.1561 58.9775 49.1851 59.8835 49.2771 60.7975Z" fill="#205A68"/>
<path id="path947" d="M40.2951 52.0855C39.7151 49.4375 39.5141 46.6525 39.7191 43.7205C39.7596 43.1738 39.9671 42.6528 40.3136 42.228C40.6601 41.8032 41.1287 41.4951 41.6561 41.3455C46.2431 40.0355 50.2771 39.3085 54.9141 39.1685L54.5401 45.7285C50.8201 46.1455 47.7711 46.5555 45.1601 46.2605C44.9231 49.0925 44.8971 51.3775 44.4481 53.2705L40.2951 52.0855Z" fill="#21758A"/>
<path id="path949" d="M59.6061 37.2185C59.5261 37.2185 58.1681 38.8975 58.1681 38.8975C56.3571 39.9235 58.6811 43.7435 61.1551 43.3475L63.2051 41.9235L59.6061 37.2175" fill="#FCAF75"/>
<path id="path963" d="M63.4141 32.0715C61.0811 31.6505 59.1061 33.1345 58.8261 35.3465C58.8241 37.2145 60.7391 38.7705 63.0581 39.0865C65.1091 39.0615 66.6261 38.6715 67.0681 37.8155C67.6521 34.2635 65.9031 32.5205 63.4141 32.0715Z" fill="#21758A"/>
<path id="path969" d="M39.8001 51.7885C40.3551 50.8585 44.4481 50.6825 44.8421 51.8075L44.8501 57.2025L44.2501 59.7585L43.0241 60.6085C43.0241 60.6085 40.0731 59.7185 39.9541 59.6785C39.8361 59.6385 39.4671 59.0565 39.4671 59.0565L40.0571 58.8095C40.6911 58.6775 40.5561 58.0715 40.4171 57.1095C40.4171 57.1095 40.5141 56.1765 40.9741 55.6725L39.8001 51.7885ZM66.0841 63.1205L67.3061 64.5505C67.7611 65.0655 68.6941 65.1135 69.3801 65.1635L70.0391 66.6405L70.8571 66.9035L70.9881 63.6255L66.0841 63.1205Z" fill="#B2B2B2"/>
<path id="path967" d="M15.8451 79.1425C13.0711 79.1425 10.1341 79.7984 7.42812 81.4154C5.53812 82.5454 4.44212 84.1665 4.42212 85.8655C4.40212 87.5425 5.39412 89.0994 7.21712 90.2494C8.69512 91.1804 10.5771 91.8305 12.6581 92.1285C17.9481 92.8835 23.2741 89.7045 25.3151 84.5625L26.0571 82.6924C25.5561 82.2194 24.9621 81.7724 24.2811 81.3574C22.1241 80.0444 19.0971 79.1425 15.8451 79.1425ZM16.2051 77.5664C12.5821 77.5664 9.17112 78.5325 6.69612 79.9465C3.78512 81.6095 2.12912 83.7984 2.15512 85.9534C2.18012 88.0164 3.75712 89.9515 6.71512 91.5475C11.6111 94.1905 17.5971 94.3875 22.7271 92.0725C26.0171 90.5885 27.8221 88.7205 27.9471 86.6705C28.0191 85.5205 27.5511 84.3535 26.6221 83.2805L26.0051 84.8365C23.8051 90.3805 18.2771 93.6795 12.5531 92.8625C10.3681 92.5495 8.38612 91.8625 6.82112 90.8765C4.80112 89.6025 3.65712 87.7724 3.68112 85.8554C3.70312 83.8954 4.93112 82.0435 7.04812 80.7785C13.1861 77.1085 20.4841 78.1785 24.6681 80.7235C25.2961 81.1065 25.8581 81.5194 26.3491 81.9554L26.7811 80.8655C26.4501 80.6055 26.0911 80.3575 25.7081 80.1255C22.7021 78.3055 19.3731 77.5664 16.2051 77.5664ZM15.2631 95.3164C11.3001 95.3164 7.33912 94.4205 4.34412 92.6275C2.11712 91.2975 0.621123 89.6075 0.0181233 87.7435C-0.0122369 87.65 -0.00421824 87.5483 0.0404164 87.4607C0.0850509 87.3732 0.162645 87.3068 0.25613 87.2764C0.349615 87.2461 0.451332 87.2541 0.53891 87.2987C0.626487 87.3433 0.692749 87.421 0.723121 87.5145C1.27112 89.2065 2.65412 90.7545 4.72512 91.9925C10.4421 95.4115 19.8151 95.4574 25.6201 92.0924C28.1801 90.6094 29.6601 88.4505 29.6821 86.1685C29.7001 84.4355 28.8781 82.7554 27.3781 81.3714L26.9261 82.5134C28.1531 83.8084 28.7761 85.2654 28.6881 86.7164C28.5881 88.3494 27.5251 90.7214 23.0331 92.7484C17.6921 95.1564 11.4591 94.9525 6.36312 92.2005C2.30712 90.0115 1.43312 87.5995 1.41312 85.9625C1.38412 83.5295 3.17612 81.1024 6.32812 79.3024C11.3111 76.4554 19.3561 75.4105 26.0921 79.4925C26.4351 79.6995 26.7591 79.9194 27.0651 80.1484L32.0211 67.6524C33.3026 64.4341 35.3065 61.5533 37.8781 59.2324L37.9341 59.1834C38.4289 58.7374 39.0246 58.4184 39.67 58.2536C40.3154 58.0889 40.9911 58.0832 41.6391 58.2374C44.5751 58.9104 47.2341 59.9774 50.0491 61.1064C55.4431 63.2704 61.0101 65.5035 69.1091 65.0765C72.0921 64.9175 73.4291 66.5625 74.8261 68.3065C76.5161 70.4195 78.2581 72.6045 83.3711 72.3085C87.7311 72.0555 90.2961 69.3984 90.9971 64.4124C91.1191 63.5374 91.1821 62.6224 91.1821 61.6894V38.2645C91.1821 38.1662 91.2212 38.0719 91.2906 38.0024C91.3601 37.9329 91.4544 37.894 91.5526 37.894C91.6509 37.894 91.7451 37.9329 91.8146 38.0024C91.8841 38.0719 91.9231 38.1662 91.9231 38.2645V61.6894C91.9231 62.6564 91.8591 63.6074 91.7311 64.5154C90.9741 69.9014 88.1761 72.7724 83.4151 73.0494C77.9361 73.3674 75.9721 70.9255 74.2451 68.7695C72.9191 67.1105 71.7641 65.6874 69.1491 65.8164C60.9021 66.2584 55.2421 63.9884 49.7721 61.7944C46.9851 60.6754 44.3521 59.6194 41.4701 58.9594C40.9383 58.8335 40.384 58.8385 39.8545 58.9739C39.325 59.1092 38.8363 59.3709 38.4301 59.7365L38.3731 59.7854C35.887 62.0296 33.9498 64.8148 32.7111 67.9264L27.6701 80.6364C29.4601 82.1964 30.4441 84.1454 30.4241 86.1754C30.3991 88.7264 28.7841 91.1174 25.9931 92.7354C23.0191 94.4574 19.1411 95.3164 15.2631 95.3164Z" fill="black"/>
</g>
</g>
</g>
</g>
<defs>
<clipPath id="clip0">
<rect width="119" height="100" fill="white"/>
</clipPath>
</defs>
</svg>
