<svg xmlns="http://www.w3.org/2000/svg" width="210mm" height="297mm" viewBox="0 0 210 297"><g stroke="#000" stroke-width=".265"><path d="M110.369 71.726l-34.207 57.075h18.71l-36.664 63.878 59.532-72.76-20.865-.757z" fill="red"/><path d="M86.328 141.984l-16.57-20.313 18.44-21.381c-1.767-3.118-3.815-5.898-9.086-4.811L59.067 116.86l-.535-20.847c-5.562.007-8.288 3.165-10.69 6.682l1.068 40.625c1.791 5.05 5.921 6.09 10.157 6.949l-.268-20.312 2.138-2.673 19.778 23.787zM104.802 95.506l32.74-.562c.041 4.884-2.485 6.174-4.864 7.67l-30.121.562zM117.74 119.918l-6.796 10.573v0l15.715-.187c-1.965-4.47-4.024-8.846-8.92-10.386zM100.092 143.026l36.857-.561c.345 5.183-2.727 6.381-5.239 8.232l-38.727.374z"/></g></svg>